<svg width="16" height="118" viewBox="0 0 16 118" fill="none" xmlns="http://www.w3.org/2000/svg">
<g id="Group 139">
<path id="Arrow 1" d="M7.99996 0.99138C7.9952 0.439115 7.54364 -0.00472368 6.99138 3.71933e-05C6.43912 0.00479806 5.99528 0.456356 6.00004 1.00862L7.99996 0.99138ZM7.29901 117.713C7.69289 118.1 8.32603 118.095 8.71317 117.701L15.022 111.282C15.4092 110.889 15.4037 110.255 15.0098 109.868C14.616 109.481 13.9828 109.487 13.5957 109.88L7.9878 115.586L2.2824 109.978C1.88852 109.591 1.25538 109.596 0.868234 109.99C0.481091 110.384 0.486549 111.017 0.880425 111.404L7.29901 117.713ZM6.00004 1.00862L7.00003 117.009L8.99996 116.991L7.99996 0.99138L6.00004 1.00862Z" fill="white"/>
<path id="Arrow 2" d="M7 1L7 21" stroke="#00AEEF" stroke-width="2" stroke-linecap="round"/>
</g>
</svg>
