<svg width="12" height="10" viewBox="0 0 12 10" fill="none" xmlns="http://www.w3.org/2000/svg">
<path fill-rule="evenodd" clip-rule="evenodd" d="M11.9729 4.38731C11.9865 4.48538 12 4.5848 12 4.6856C12 4.79184 11.9865 4.89673 11.9729 5.00025C11.8639 5.7998 11.2645 6.29285 10.5017 6.60477C8.36321 7.4697 3.14647 9.4393 2.34283 9.4393C2.27472 9.4393 2.20657 9.43656 2.15208 9.43112C1.44379 9.37936 0.926251 9.04836 0.572106 8.43814C0.19072 7.77072 0 6.51758 0 4.67875C0 4.58067 0 4.48398 0 4.38864C0.0272419 2.70917 0.231503 1.56638 0.62651 0.960251C1.04876 0.320066 1.6617 0 2.46534 0C2.71052 0 2.96934 0.0204261 3.24176 0.0626511C3.86832 0.160722 9.27589 2.43402 10.4473 2.74321C10.5699 2.7759 10.6788 2.81952 10.8014 2.87264C11.4279 3.13689 11.8775 3.71171 11.9729 4.38731Z" fill="#767676"/>
</svg>
