<svg width="574" height="46" viewBox="0 0 574 46" fill="none" xmlns="http://www.w3.org/2000/svg">
<g clip-path="url(#clip0_408_1994)">
<path d="M288.736 27.474C288.343 27.5443 288.042 27.6146 287.835 27.6849L288.037 28.9886C288.233 28.9182 288.49 28.8587 288.801 28.8046C289.112 28.7506 289.456 28.7235 289.833 28.7235C290.111 28.7235 290.34 28.756 290.526 28.8317C290.711 28.902 290.859 29.0048 290.968 29.1292C291.083 29.259 291.159 29.4051 291.203 29.5728C291.246 29.7404 291.268 29.9189 291.268 30.1029V30.3679C291.044 30.3138 290.837 30.276 290.635 30.2543C290.433 30.2327 290.247 30.2219 290.073 30.2219C289.685 30.2219 289.32 30.2597 288.965 30.3355C288.61 30.4112 288.299 30.5356 288.032 30.7087C287.764 30.8818 287.551 31.1036 287.393 31.3794C287.235 31.6553 287.158 31.9907 287.158 32.391C287.158 32.7912 287.229 33.1591 287.366 33.4403C287.502 33.7216 287.699 33.9542 287.944 34.1327C288.19 34.3112 288.49 34.4411 288.839 34.5168C289.189 34.5979 289.571 34.6358 289.996 34.6358C290.63 34.6358 291.203 34.5979 291.71 34.5222C292.218 34.4465 292.594 34.3816 292.845 34.3275V30.1083C292.845 29.7026 292.796 29.3239 292.704 28.9832C292.611 28.6424 292.452 28.3503 292.234 28.1123C292.016 27.8743 291.721 27.6849 291.355 27.5497C290.99 27.4145 290.537 27.3496 290.002 27.3496C289.554 27.3496 289.134 27.3874 288.741 27.4577M289.15 33.1482C288.91 33.0022 288.79 32.7371 288.79 32.3585C288.79 32.1638 288.834 32.0015 288.927 31.8717C289.014 31.7419 289.134 31.6445 289.281 31.5742C289.429 31.5038 289.593 31.4552 289.778 31.4281C289.964 31.4011 290.144 31.3903 290.324 31.3903C290.531 31.3903 290.717 31.4011 290.886 31.4281C291.055 31.4552 291.186 31.4822 291.274 31.5093V33.2889C291.012 33.343 290.635 33.37 290.133 33.37C289.724 33.37 289.396 33.2997 289.15 33.1482ZM282.071 24.1744L280.445 24.4394V34.5006H282.071V31.3091C282.312 31.4876 282.557 31.704 282.808 31.9528C283.059 32.2016 283.305 32.4721 283.545 32.7588C283.785 33.0401 284.014 33.3376 284.222 33.6351C284.429 33.938 284.615 34.2247 284.779 34.5006H286.656C286.498 34.1976 286.296 33.8731 286.05 33.5161C285.81 33.1591 285.548 32.8075 285.275 32.4505C284.997 32.0935 284.713 31.7581 284.418 31.4443C284.124 31.1306 283.845 30.8601 283.572 30.6384C284.075 30.1299 284.571 29.616 285.068 29.0805C285.565 28.5504 286.034 28.0311 286.481 27.5335H284.56C284.418 27.7012 284.244 27.9013 284.042 28.1285C283.84 28.3557 283.627 28.5883 283.403 28.8317C283.179 29.0751 282.95 29.3185 282.721 29.5619C282.486 29.8054 282.268 30.0325 282.061 30.2489V24.1689L282.071 24.1744ZM275.085 33.2078C274.747 33.1212 274.463 33.0238 274.218 32.9265L273.934 34.2734C274.087 34.3383 274.349 34.4194 274.725 34.5168C275.102 34.6196 275.598 34.6682 276.215 34.6682C277.137 34.6682 277.847 34.4951 278.344 34.1544C278.84 33.8136 279.091 33.3105 279.091 32.6452C279.091 32.3369 279.053 32.0664 278.971 31.8446C278.89 31.6228 278.764 31.4281 278.589 31.255C278.415 31.0819 278.196 30.9251 277.923 30.7898C277.651 30.6546 277.329 30.514 276.946 30.3679C276.712 30.2868 276.515 30.211 276.357 30.1353C276.199 30.0596 276.068 29.9839 275.97 29.9081C275.871 29.8324 275.8 29.7513 275.762 29.6647C275.724 29.5782 275.702 29.4754 275.702 29.3564C275.702 29.1238 275.806 28.9561 276.013 28.8425C276.221 28.7289 276.488 28.6748 276.821 28.6748C277.187 28.6748 277.509 28.7073 277.787 28.7722C278.065 28.8371 278.295 28.9128 278.469 28.994L278.764 27.6903C278.573 27.62 278.295 27.5443 277.918 27.4686C277.541 27.3928 277.148 27.355 276.739 27.355C275.926 27.355 275.282 27.5389 274.807 27.9067C274.332 28.2745 274.097 28.7776 274.097 29.4159C274.097 29.7459 274.147 30.0217 274.25 30.2489C274.354 30.4761 274.496 30.6708 274.676 30.8277C274.856 30.9846 275.069 31.1252 275.315 31.2496C275.56 31.3686 275.833 31.4822 276.128 31.5904C276.614 31.7689 276.957 31.9312 277.17 32.0826C277.378 32.2341 277.487 32.4234 277.487 32.656C277.487 32.9048 277.389 33.0779 277.192 33.1807C276.996 33.2835 276.679 33.3322 276.253 33.3322C275.828 33.3322 275.44 33.2889 275.107 33.1969M272.962 33.2997C272.749 33.2727 272.569 33.2348 272.433 33.1861C272.296 33.1374 272.182 33.0671 272.105 32.9752C272.023 32.8832 271.969 32.7696 271.936 32.6344C271.903 32.4991 271.887 32.3369 271.887 32.1421V24.1744L270.266 24.4394V32.4505C270.266 32.7967 270.304 33.105 270.381 33.3754C270.457 33.6459 270.588 33.8731 270.774 34.057C270.965 34.2409 271.216 34.3761 271.532 34.4789C271.849 34.5763 272.247 34.6304 272.733 34.6358L272.962 33.3051V33.2997ZM266.724 32.6776C266.424 33.0833 266.003 33.2889 265.468 33.2889C264.934 33.2889 264.513 33.0833 264.213 32.6776C263.913 32.272 263.766 31.7148 263.766 31.017C263.766 30.3192 263.918 29.7783 264.213 29.3726C264.513 28.9669 264.934 28.7668 265.468 28.7668C266.003 28.7668 266.424 28.9669 266.724 29.3726C267.024 29.7783 267.171 30.3246 267.171 31.017C267.171 31.7094 267.018 32.272 266.724 32.6776ZM268.59 29.5133C268.427 29.0643 268.192 28.6802 267.897 28.3611C267.602 28.0419 267.248 27.7985 266.833 27.62C266.418 27.4469 265.96 27.3604 265.468 27.3604C264.977 27.3604 264.524 27.4469 264.115 27.62C263.706 27.7931 263.345 28.0419 263.045 28.3611C262.745 28.6802 262.516 29.0643 262.347 29.5133C262.183 29.9622 262.095 30.4599 262.095 31.0116C262.095 31.5633 262.177 32.061 262.347 32.5154C262.51 32.9697 262.745 33.3538 263.04 33.6729C263.334 33.9921 263.689 34.2409 264.099 34.4194C264.513 34.5979 264.966 34.6845 265.468 34.6845C265.971 34.6845 266.429 34.5979 266.844 34.4194C267.259 34.2409 267.613 33.9921 267.914 33.6729C268.208 33.3538 268.438 32.9697 268.596 32.5154C268.76 32.061 268.836 31.5633 268.836 31.0116C268.836 30.4599 268.754 29.9622 268.585 29.5133M258.177 26.7059C258.46 26.7546 258.701 26.8357 258.908 26.9547C259.11 27.0683 259.274 27.2306 259.388 27.4307C259.503 27.6363 259.563 27.8905 259.563 28.188C259.563 28.8155 259.345 29.2428 258.908 29.47C258.471 29.6972 257.844 29.8108 257.025 29.8108H256.206V26.6734C256.485 26.6464 256.839 26.6356 257.265 26.6356C257.587 26.6356 257.887 26.6572 258.171 26.7059M255.824 25.2292C255.344 25.2616 254.907 25.3211 254.514 25.4077V34.4951H256.206V31.2496H257.052C257.735 31.2496 258.335 31.1901 258.864 31.0765C259.394 30.9629 259.841 30.779 260.207 30.5356C260.573 30.2922 260.856 29.9784 261.048 29.589C261.239 29.2049 261.337 28.7397 261.337 28.1988C261.337 27.1602 260.977 26.3975 260.256 25.9107C259.536 25.4239 258.499 25.1805 257.145 25.1805C256.741 25.1805 256.305 25.1967 255.824 25.2292Z" fill="#010709"/>
<path d="M341.689 12.1385C341.296 12.2088 340.995 12.2791 340.788 12.3495L340.99 13.6531C341.186 13.5828 341.443 13.5178 341.754 13.4637C342.065 13.4097 342.409 13.3826 342.786 13.3826C343.064 13.3826 343.293 13.4151 343.479 13.4908C343.664 13.5611 343.812 13.6639 343.921 13.7883C344.03 13.9127 344.112 14.0642 344.156 14.2319C344.199 14.3995 344.221 14.578 344.221 14.762V15.027C343.997 14.9729 343.784 14.9351 343.588 14.9134C343.391 14.8918 343.2 14.881 343.026 14.881C342.638 14.881 342.273 14.9188 341.918 14.9946C341.563 15.0703 341.252 15.1947 340.985 15.3678C340.717 15.5409 340.504 15.7627 340.346 16.0385C340.188 16.3144 340.111 16.6498 340.111 17.0501C340.111 17.4503 340.182 17.8182 340.319 18.0995C340.455 18.3861 340.652 18.6133 340.897 18.7918C341.143 18.9703 341.443 19.1002 341.792 19.1759C342.142 19.257 342.524 19.2949 342.949 19.2949C343.582 19.2949 344.156 19.257 344.663 19.1813C345.171 19.1056 345.547 19.0407 345.798 18.9866V14.7674C345.798 14.3617 345.749 13.983 345.657 13.6423C345.564 13.3015 345.405 13.0094 345.187 12.7714C344.969 12.5334 344.674 12.344 344.308 12.2142C343.943 12.079 343.49 12.0141 342.955 12.0141C342.507 12.0141 342.087 12.0519 341.694 12.1223M342.103 17.8182C341.863 17.6721 341.743 17.4071 341.743 17.0284C341.743 16.8337 341.787 16.6714 341.88 16.5416C341.967 16.4118 342.087 16.3144 342.234 16.2441C342.382 16.1738 342.545 16.1251 342.731 16.098C342.917 16.071 343.097 16.0602 343.277 16.0602C343.484 16.0602 343.67 16.071 343.839 16.098C344.008 16.1251 344.139 16.1521 344.227 16.1792V17.9642C343.965 18.0183 343.588 18.0454 343.086 18.0454C342.671 18.0454 342.349 17.975 342.103 17.8236M334.964 16.401C334.964 16.8607 335.003 17.2718 335.084 17.6343C335.166 17.9913 335.303 18.2996 335.499 18.5538C335.696 18.8081 335.963 18.9974 336.296 19.1326C336.635 19.2678 337.049 19.3328 337.551 19.3328C337.966 19.3328 338.321 19.2895 338.627 19.2083C338.932 19.1218 339.178 19.0407 339.364 18.9595L339.096 17.6829C338.96 17.737 338.78 17.7965 338.55 17.856C338.321 17.9155 338.059 17.948 337.764 17.948C337.333 17.948 337.028 17.829 336.853 17.591C336.673 17.353 336.585 16.9527 336.585 16.3955V13.5611H339.08V12.2142H336.585V10.11L334.959 10.3751V16.401H334.964ZM333.032 9.43929C332.836 9.26079 332.601 9.17424 332.334 9.17424C332.066 9.17424 331.821 9.26079 331.624 9.43929C331.428 9.6178 331.329 9.86121 331.329 10.1695C331.329 10.4779 331.428 10.7105 331.624 10.889C331.821 11.0675 332.055 11.154 332.334 11.154C332.612 11.154 332.836 11.0675 333.032 10.889C333.229 10.7105 333.327 10.4725 333.327 10.1695C333.327 9.86662 333.229 9.6178 333.032 9.43929ZM333.158 12.2088H331.531V19.1705H333.158V12.2088ZM330.216 17.9696C330.003 17.9426 329.823 17.9047 329.687 17.856C329.55 17.8074 329.436 17.737 329.359 17.6451C329.277 17.5531 329.223 17.4395 329.19 17.3043C329.157 17.1691 329.141 17.0068 329.141 16.8121V8.83887L327.52 9.10392V17.115C327.52 17.4612 327.558 17.7695 327.634 18.0399C327.711 18.3104 327.842 18.5376 328.027 18.7161C328.218 18.9 328.469 19.0407 328.786 19.138C329.103 19.2354 329.501 19.2895 329.987 19.2949L330.216 17.9642V17.9696ZM323.945 17.3422C323.645 17.7479 323.224 17.9534 322.69 17.9534C322.155 17.9534 321.734 17.7479 321.434 17.3422C321.134 16.9365 320.987 16.3793 320.987 15.6761C320.987 14.9729 321.134 14.4374 321.434 14.0317C321.734 13.626 322.155 13.4259 322.69 13.4259C323.224 13.4259 323.645 13.626 323.945 14.0317C324.245 14.4374 324.392 14.9837 324.392 15.6761C324.392 16.3685 324.24 16.9311 323.945 17.3422ZM325.811 14.1832C325.648 13.7342 325.413 13.3502 325.118 13.031C324.824 12.7119 324.469 12.463 324.049 12.2899C323.634 12.1169 323.175 12.0303 322.684 12.0303C322.193 12.0303 321.74 12.1169 321.325 12.2899C320.916 12.463 320.555 12.7119 320.255 13.031C319.955 13.3502 319.72 13.7342 319.557 14.1832C319.393 14.6321 319.306 15.1298 319.306 15.6815C319.306 16.2333 319.387 16.7309 319.557 17.1853C319.72 17.6397 319.955 18.0237 320.25 18.3429C320.545 18.662 320.899 18.9108 321.309 19.0893C321.718 19.2678 322.176 19.3544 322.679 19.3544C323.181 19.3544 323.639 19.2678 324.054 19.0893C324.469 18.9108 324.829 18.662 325.124 18.3429C325.418 18.0237 325.648 17.6397 325.806 17.1853C325.964 16.7309 326.046 16.2333 326.046 15.6815C326.046 15.1298 325.964 14.6321 325.801 14.1832M317.936 14.1832C317.772 13.7342 317.532 13.3556 317.226 13.0364C316.915 12.7227 316.544 12.4793 316.107 12.3116C315.671 12.1439 315.174 12.0574 314.617 12.0574C314.061 12.0574 313.569 12.0952 313.089 12.1764C312.609 12.2575 312.199 12.3386 311.866 12.4306V21.6263H313.493V18.9271C313.673 19.0244 313.902 19.1164 314.175 19.1921C314.454 19.2733 314.759 19.3111 315.087 19.3111C315.578 19.3111 316.02 19.2246 316.407 19.0461C316.795 18.8676 317.122 18.6187 317.379 18.2996C317.641 17.9804 317.837 17.6018 317.979 17.1528C318.116 16.7093 318.187 16.2225 318.187 15.6869C318.187 15.1298 318.105 14.6267 317.936 14.1778M316.113 17.3313C315.84 17.7316 315.409 17.9318 314.819 17.9318C314.552 17.9318 314.295 17.8885 314.061 17.8074C313.826 17.7262 313.635 17.6343 313.493 17.5369V13.5611C313.651 13.5178 313.815 13.4854 313.984 13.4746C314.148 13.4637 314.306 13.4529 314.459 13.4529C315.185 13.4529 315.709 13.6531 316.036 14.0534C316.364 14.4536 316.528 15.0108 316.528 15.7302C316.528 16.4064 316.391 16.9419 316.118 17.3422M306.501 17.8777C306.163 17.7911 305.879 17.6938 305.633 17.5964L305.35 18.9379C305.503 19.0028 305.764 19.0839 306.141 19.1867C306.518 19.2895 307.014 19.3382 307.631 19.3382C308.553 19.3382 309.263 19.1651 309.76 18.8243C310.256 18.4835 310.507 17.9804 310.507 17.3151C310.507 17.0068 310.469 16.7363 310.387 16.5145C310.305 16.2928 310.18 16.098 310.005 15.9195C309.831 15.7464 309.612 15.5896 309.339 15.4543C309.072 15.3191 308.744 15.1785 308.357 15.0324C308.122 14.9513 307.926 14.8756 307.768 14.7998C307.609 14.7241 307.478 14.6484 307.38 14.5726C307.282 14.4969 307.211 14.4158 307.173 14.3238C307.134 14.2373 307.113 14.1345 307.113 14.0155C307.113 13.7829 307.216 13.6152 307.424 13.5016C307.631 13.3934 307.899 13.3339 308.226 13.3339C308.592 13.3339 308.914 13.3664 309.192 13.4313C309.47 13.4962 309.7 13.5719 309.874 13.6531L310.169 12.3495C309.983 12.2791 309.7 12.2034 309.323 12.1277C308.946 12.0519 308.553 12.0141 308.144 12.0141C307.331 12.0141 306.687 12.198 306.212 12.5658C305.737 12.9336 305.502 13.4367 305.502 14.075C305.502 14.405 305.552 14.6808 305.655 14.908C305.759 15.1352 305.901 15.3299 306.076 15.4868C306.25 15.6437 306.469 15.7843 306.714 15.9033C306.96 16.0223 307.233 16.1359 307.527 16.2441C308.008 16.4226 308.357 16.5849 308.57 16.7363C308.777 16.8878 308.886 17.0771 308.886 17.3097C308.886 17.5585 308.788 17.7316 308.592 17.8344C308.395 17.9372 308.079 17.9859 307.653 17.9859C307.227 17.9859 306.84 17.9426 306.507 17.8506M302.282 17.3422C301.982 17.7479 301.562 17.9534 301.027 17.9534C300.492 17.9534 300.072 17.7479 299.772 17.3422C299.471 16.9365 299.324 16.3793 299.324 15.6761C299.324 14.9729 299.471 14.4374 299.772 14.0317C300.072 13.626 300.487 13.4259 301.027 13.4259C301.567 13.4259 301.982 13.626 302.282 14.0317C302.583 14.4374 302.73 14.9837 302.73 15.6761C302.73 16.3685 302.577 16.9311 302.282 17.3422ZM304.149 14.1832C303.985 13.7342 303.75 13.3502 303.456 13.031C303.161 12.7119 302.806 12.463 302.386 12.2899C301.971 12.1169 301.513 12.0303 301.022 12.0303C300.53 12.0303 300.077 12.1169 299.668 12.2899C299.259 12.463 298.898 12.7119 298.598 13.031C298.298 13.3502 298.063 13.7342 297.9 14.1832C297.736 14.6321 297.649 15.1298 297.649 15.6815C297.649 16.2333 297.73 16.7309 297.9 17.1853C298.063 17.6397 298.293 18.0237 298.593 18.3429C298.887 18.662 299.242 18.9108 299.652 19.0893C300.061 19.2678 300.519 19.3544 301.022 19.3544C301.524 19.3544 301.982 19.2678 302.397 19.0893C302.812 18.9108 303.167 18.662 303.467 18.3429C303.761 18.0237 303.991 17.6397 304.154 17.1853C304.313 16.7309 304.395 16.2333 304.395 15.6815C304.395 15.1298 304.313 14.6321 304.143 14.1832M296.279 14.1832C296.115 13.7342 295.875 13.3556 295.569 13.0364C295.258 12.7227 294.887 12.4793 294.45 12.3116C294.014 12.1439 293.517 12.0574 292.96 12.0574C292.403 12.0574 291.912 12.0952 291.432 12.1764C290.946 12.2575 290.542 12.3386 290.209 12.4306V21.6263H291.836V18.9271C292.016 19.0244 292.245 19.1164 292.518 19.1921C292.796 19.2733 293.102 19.3111 293.43 19.3111C293.921 19.3111 294.363 19.2246 294.75 19.0461C295.138 18.8676 295.465 18.6187 295.722 18.2996C295.984 17.9804 296.18 17.6018 296.322 17.1528C296.459 16.7093 296.53 16.2225 296.53 15.6869C296.53 15.1298 296.448 14.6267 296.284 14.1778M294.45 17.3313C294.177 17.7316 293.746 17.9318 293.157 17.9318C292.889 17.9318 292.633 17.8885 292.398 17.8074C292.163 17.7262 291.972 17.6343 291.83 17.5369V13.5611C291.989 13.5178 292.152 13.4854 292.322 13.4746C292.485 13.4637 292.644 13.4529 292.796 13.4529C293.522 13.4529 294.046 13.6531 294.374 14.0534C294.701 14.4536 294.865 15.0108 294.865 15.7302C294.865 16.4064 294.729 16.9419 294.456 17.3422M288.752 12.2088H283.42V13.5557H286.656C286.416 13.8424 286.138 14.1724 285.832 14.551C285.521 14.9351 285.21 15.3353 284.899 15.7573C284.588 16.1792 284.282 16.5957 283.987 17.0122C283.693 17.4287 283.447 17.8128 283.25 18.1698V19.1651H288.834V17.8236H285.21C285.477 17.4179 285.778 16.9906 286.116 16.5362C286.454 16.0872 286.787 15.6599 287.115 15.2434C287.448 14.8323 287.759 14.4536 288.048 14.1183C288.337 13.7829 288.572 13.5178 288.752 13.3339V12.2034V12.2088ZM277.028 17.1528C277.17 17.6018 277.389 17.9859 277.683 18.3104C277.973 18.635 278.338 18.8892 278.786 19.0677C279.233 19.2462 279.752 19.3382 280.352 19.3382C280.734 19.3382 281.111 19.3003 281.471 19.23C281.831 19.1597 282.104 19.0785 282.284 18.992L282.055 17.6613C281.859 17.7424 281.624 17.8074 281.357 17.8614C281.089 17.9155 280.816 17.9426 280.538 17.9426C279.796 17.9426 279.266 17.7424 278.955 17.3368C278.644 16.9311 278.486 16.3847 278.486 15.6923C278.486 15 278.649 14.4158 278.982 14.0209C279.315 13.626 279.796 13.4313 280.434 13.4313C280.702 13.4313 280.958 13.4583 281.193 13.5124C281.428 13.5665 281.64 13.6314 281.831 13.7126L282.181 12.3981C281.591 12.1601 280.964 12.0357 280.303 12.0357C279.768 12.0357 279.283 12.1277 278.851 12.317C278.42 12.5009 278.055 12.7606 277.754 13.0905C277.454 13.4205 277.225 13.8045 277.061 14.2535C276.897 14.7025 276.821 15.1839 276.821 15.6978C276.821 16.2116 276.892 16.7093 277.034 17.1528M271.019 15C271.047 14.7944 271.096 14.5943 271.167 14.3995C271.238 14.2048 271.341 14.0317 271.467 13.8803C271.598 13.7288 271.756 13.6098 271.942 13.5124C272.133 13.4205 272.351 13.3718 272.602 13.3718C272.853 13.3718 273.05 13.4151 273.224 13.4962C273.399 13.5828 273.546 13.6963 273.666 13.8424C273.786 13.9884 273.879 14.1615 273.939 14.3617C274.005 14.5618 274.032 14.7728 274.032 14.9946H271.014L271.019 15ZM269.54 17.1637C269.682 17.6018 269.9 17.9859 270.201 18.3104C270.495 18.635 270.872 18.8892 271.33 19.0677C271.789 19.2516 272.324 19.3382 272.94 19.3382C273.181 19.3382 273.421 19.3219 273.65 19.3003C273.885 19.2733 274.098 19.2408 274.299 19.2029C274.501 19.1651 274.682 19.1164 274.834 19.0677C274.993 19.019 275.113 18.9703 275.206 18.9271L274.993 17.6126C274.802 17.6938 274.545 17.7695 274.218 17.8398C273.89 17.9101 273.53 17.948 273.137 17.948C272.466 17.948 271.953 17.7965 271.598 17.4882C271.243 17.1799 271.047 16.7471 271.003 16.19H275.637C275.648 16.1034 275.653 16.0007 275.659 15.8925C275.659 15.7789 275.664 15.6815 275.664 15.595C275.664 14.4158 275.391 13.5287 274.851 12.9336C274.31 12.3386 273.557 12.0411 272.591 12.0411C272.182 12.0411 271.778 12.1169 271.385 12.2737C270.992 12.4306 270.643 12.6578 270.337 12.9661C270.031 13.2744 269.791 13.6531 269.606 14.1183C269.42 14.578 269.327 15.1136 269.327 15.7302C269.327 16.2549 269.398 16.7363 269.54 17.1745M268.394 12.2088H263.062V13.5557H266.298C266.058 13.8424 265.78 14.1724 265.474 14.551C265.163 14.9351 264.852 15.3353 264.541 15.7573C264.23 16.1792 263.924 16.5957 263.629 17.0122C263.334 17.4287 263.089 17.8128 262.892 18.1698V19.1651H268.476V17.8236H264.852C265.119 17.4179 265.419 16.9906 265.758 16.5362C266.096 16.0872 266.424 15.6599 266.757 15.2434C267.09 14.8323 267.401 14.4536 267.69 14.1183C267.979 13.7829 268.214 13.5178 268.394 13.3339V12.2034V12.2088ZM258.117 11.3758C258.395 11.4245 258.635 11.5056 258.837 11.6192C259.039 11.7328 259.192 11.8897 259.301 12.0844C259.41 12.2791 259.459 12.5171 259.459 12.8038C259.459 13.1067 259.405 13.3556 259.301 13.5503C259.192 13.745 259.034 13.9019 258.826 14.0155C258.619 14.1291 258.357 14.2102 258.04 14.2535C257.729 14.2968 257.364 14.3184 256.954 14.3184H256.217V11.3379C256.523 11.3109 256.85 11.3001 257.211 11.3001C257.544 11.3001 257.844 11.3271 258.122 11.3758M255.835 9.89907C255.371 9.93153 254.929 9.99103 254.52 10.0776V19.1651H256.212V15.6815H257.287C257.374 15.6815 257.484 15.6815 257.609 15.6707C257.778 15.8817 257.964 16.1251 258.16 16.3955C258.357 16.666 258.553 16.9527 258.755 17.261C258.957 17.5693 259.154 17.8831 259.356 18.2076C259.552 18.5322 259.738 18.8513 259.907 19.1705H261.801C261.643 18.8243 261.457 18.4727 261.25 18.1103C261.042 17.7533 260.829 17.4017 260.606 17.0609C260.382 16.7201 260.163 16.401 259.945 16.1089C259.732 15.8168 259.536 15.5679 259.367 15.3624C260.611 14.9188 261.233 14.0696 261.233 12.8201C261.233 11.8193 260.878 11.0729 260.163 10.586C259.454 10.0992 258.422 9.8558 257.085 9.8558C256.719 9.8558 256.299 9.87203 255.835 9.90448" fill="#010709"/>
<path d="M242.818 0.0917969H173.382V23.0918H242.818V0.0917969Z" fill="white"/>
<path d="M242.818 23H173.382V45.908H242.818V23Z" fill="#BB0A30"/>
<path d="M242.911 0H173.289V46H242.911V0ZM242.698 45.7836H173.513V0.216369H242.698V45.7836Z" fill="#010709" fill-opacity="0.3"/>
<path d="M574 0H504.379V46H574V0Z" fill="#003399"/>
<path d="M539.189 5.47949L539.757 7.21585H541.591L540.106 8.28688L540.674 10.0178L539.189 8.9468L537.699 10.0178L538.267 8.28688L536.782 7.21585H538.616L539.189 5.47949Z" fill="#FFCC00"/>
<path d="M539.189 35.8311L539.757 37.562H541.591L540.106 38.633L540.674 40.364L539.189 39.293L537.699 40.364L538.267 38.633L536.782 37.562H538.616L539.189 35.8311Z" fill="#FFCC00"/>
<path d="M523.994 20.582L524.562 22.3184H526.401L524.911 23.3894L525.479 25.1204L523.994 24.0493L522.504 25.1204L523.077 23.3894L521.587 22.3184H523.427L523.994 20.582Z" fill="#FFCC00"/>
<path d="M554.379 20.582L554.946 22.3184H556.786L555.296 23.3894L555.863 25.1204L554.379 24.0493L552.894 25.1204L553.462 23.3894L551.972 22.3184H553.811L554.379 20.582Z" fill="#FFCC00"/>
<path d="M546.754 7.56738L547.322 9.29833H549.161L547.671 10.3694L548.238 12.1003L546.754 11.0293L545.264 12.1003L545.832 10.3694L544.347 9.29833H546.186L546.754 7.56738Z" fill="#FFCC00"/>
<path d="M531.619 7.56738L532.192 9.29833H534.026L532.541 10.3694L533.109 12.1003L531.619 11.0293L530.135 12.1003L530.702 10.3694L529.218 9.29833H531.051L531.619 7.56738Z" fill="#FFCC00"/>
<path d="M546.754 33.6182L547.322 35.3491H549.161L547.671 36.4201L548.238 38.1511L546.754 37.0801L545.264 38.1511L545.832 36.4201L544.347 35.3491H546.186L546.754 33.6182Z" fill="#FFCC00"/>
<path d="M531.619 33.6182L532.192 35.3491H534.026L532.541 36.4201L533.109 38.1511L531.619 37.0801L530.135 38.1511L530.702 36.4201L529.218 35.3491H531.051L531.619 33.6182Z" fill="#FFCC00"/>
<path d="M552.321 13.0088L552.889 14.7397H554.728L553.243 15.8108L553.811 17.5417L552.321 16.4707L550.836 17.5417L551.404 15.8108L549.914 14.7397H551.753L552.321 13.0088Z" fill="#FFCC00"/>
<path d="M526.052 13.0088L526.62 14.7397H528.459L526.969 15.8108L527.537 17.5417L526.052 16.4707L524.567 17.5417L525.135 15.8108L523.645 14.7397H525.484L526.052 13.0088Z" fill="#FFCC00"/>
<path d="M552.321 28.0791L552.889 29.8155H554.728L553.243 30.8865L553.811 32.6174L552.321 31.5464L550.836 32.6174L551.404 30.8865L549.914 29.8155H551.753L552.321 28.0791Z" fill="#FFCC00"/>
<path d="M526.052 28.0791L526.62 29.8155H528.459L526.969 30.8865L527.537 32.6174L526.052 31.5464L524.567 32.6174L525.135 30.8865L523.645 29.8155H525.484L526.052 28.0791Z" fill="#FFCC00"/>
<path d="M387.606 10.6782C388.823 10.6782 389.429 10.2671 389.429 9.43952C389.429 9.18529 389.374 8.96892 389.265 8.79041C389.156 8.61191 389.009 8.45504 388.829 8.32522C388.643 8.1954 388.436 8.08181 388.196 7.98444C387.961 7.88707 387.71 7.79512 387.448 7.69775C387.142 7.59497 386.853 7.47597 386.585 7.34615C386.313 7.21633 386.078 7.05946 385.876 6.88096C385.674 6.70245 385.516 6.49149 385.401 6.24267C385.286 5.99926 385.226 5.70175 385.226 5.35015C385.226 4.63072 385.472 4.06276 385.969 3.66247C386.465 3.25678 387.148 3.05664 388.021 3.05664C388.523 3.05664 388.981 3.11073 389.396 3.21892C389.806 3.3271 390.111 3.4407 390.302 3.57052L389.931 4.51172C389.762 4.40895 389.511 4.30617 389.183 4.2088C388.85 4.11144 388.463 4.06276 388.026 4.06276C387.803 4.06276 387.595 4.08439 387.404 4.13307C387.213 4.18176 387.044 4.25208 386.902 4.34944C386.76 4.44681 386.645 4.56581 386.558 4.71186C386.476 4.85791 386.433 5.03101 386.433 5.23115C386.433 5.45292 386.476 5.64225 386.564 5.7883C386.651 5.93975 386.776 6.06958 386.935 6.18858C387.093 6.30217 387.279 6.41036 387.491 6.50231C387.704 6.59968 387.939 6.69164 388.196 6.789C388.556 6.92964 388.883 7.07569 389.183 7.21633C389.484 7.35697 389.746 7.53006 389.964 7.73021C390.182 7.93035 390.357 8.16294 390.477 8.43881C390.597 8.71468 390.657 9.04465 390.657 9.43411C390.657 10.1535 390.39 10.7107 389.86 11.1001C389.325 11.4896 388.578 11.6843 387.612 11.6843C387.284 11.6843 386.978 11.6627 386.706 11.6194C386.433 11.5762 386.182 11.5221 385.969 11.4626C385.75 11.4031 385.565 11.3382 385.412 11.2732C385.254 11.2083 385.134 11.1488 385.046 11.1001L385.396 10.1481C385.581 10.2509 385.86 10.3645 386.236 10.4943C386.613 10.6187 387.071 10.6836 387.617 10.6836L387.606 10.6782Z" fill="#010709"/>
<path d="M394.576 2.2666C394.903 2.2666 395.187 2.28824 395.422 2.33692C395.657 2.3856 395.826 2.42888 395.919 2.46674L395.717 3.41877C395.618 3.37008 395.482 3.32681 395.307 3.28353C395.133 3.24026 394.914 3.21862 394.658 3.21862C394.139 3.21862 393.774 3.35926 393.566 3.64054C393.359 3.92182 393.255 4.30047 393.255 4.77648V5.31199H395.657V6.24238H393.255V11.5001H392.136V4.75484C392.136 3.95969 392.333 3.34845 392.726 2.91571C393.119 2.48297 393.735 2.2666 394.576 2.2666Z" fill="#010709"/>
<path d="M397.518 4.19186C397.316 4.19186 397.147 4.12695 397.01 3.99713C396.868 3.8673 396.803 3.6888 396.803 3.46702C396.803 3.24524 396.874 3.06674 397.01 2.93692C397.152 2.8071 397.321 2.74219 397.518 2.74219C397.714 2.74219 397.889 2.8071 398.031 2.93692C398.173 3.06674 398.238 3.24524 398.238 3.46702C398.238 3.6888 398.167 3.8673 398.031 3.99713C397.889 4.12695 397.72 4.19186 397.518 4.19186ZM398.085 11.4997H396.966V5.31157H398.085V11.4997Z" fill="#010709"/>
<path d="M399.968 5.49094C400.225 5.42603 400.563 5.36112 400.989 5.2908C401.415 5.22048 401.9 5.18262 402.452 5.18262C402.948 5.18262 403.363 5.25294 403.691 5.39358C404.018 5.53422 404.28 5.72895 404.477 5.97777C404.673 6.2266 404.809 6.52951 404.891 6.8757C404.973 7.2273 405.011 7.61136 405.011 8.02787V11.5006H403.893V8.26587C403.893 7.88723 403.865 7.55726 403.816 7.29221C403.762 7.02175 403.68 6.80538 403.56 6.6377C403.44 6.47001 403.281 6.35101 403.079 6.27528C402.877 6.19955 402.632 6.16169 402.337 6.16169C402.217 6.16169 402.091 6.16169 401.966 6.1725C401.835 6.17791 401.715 6.18873 401.6 6.20496C401.486 6.21578 401.382 6.23201 401.289 6.24823C401.196 6.26446 401.131 6.27528 401.093 6.2861V11.5114H399.974V5.50176L399.968 5.49094Z" fill="#010709"/>
<path d="M408.848 5.15527C409.296 5.15527 409.672 5.21478 409.984 5.32837C410.289 5.44196 410.54 5.60424 410.726 5.8152C410.911 6.02616 411.048 6.27498 411.13 6.56708C411.212 6.85918 411.25 7.17832 411.25 7.52451V11.3921C411.152 11.4083 411.021 11.43 410.846 11.457C410.671 11.4841 410.48 11.5111 410.262 11.5327C410.044 11.5544 409.814 11.576 409.558 11.5977C409.301 11.6193 409.056 11.6301 408.81 11.6301C408.455 11.6301 408.133 11.5922 407.839 11.5219C407.544 11.4516 407.287 11.338 407.069 11.1811C406.851 11.0243 406.687 10.8241 406.567 10.5699C406.447 10.3157 406.387 10.0128 406.387 9.65574C406.387 9.29874 406.458 9.02287 406.594 8.77404C406.736 8.53063 406.927 8.33049 407.162 8.17903C407.402 8.02757 407.68 7.91938 408.002 7.84366C408.324 7.77334 408.657 7.73547 409.012 7.73547C409.127 7.73547 409.241 7.74088 409.361 7.7517C409.481 7.76252 409.596 7.77874 409.705 7.80038C409.814 7.82202 409.907 7.83825 409.989 7.85447C410.071 7.8707 410.126 7.88152 410.158 7.89234V7.58401C410.158 7.4001 410.136 7.2216 410.098 7.04309C410.06 6.86459 409.984 6.70772 409.88 6.56708C409.776 6.42644 409.634 6.31826 409.454 6.23171C409.274 6.15057 409.039 6.1073 408.75 6.1073C408.384 6.1073 408.062 6.13434 407.784 6.18303C407.506 6.23712 407.304 6.2858 407.167 6.3453L407.036 5.43114C407.178 5.36623 407.418 5.30673 407.757 5.24723C408.095 5.18773 408.455 5.15527 408.848 5.15527ZM408.947 10.6997C409.209 10.6997 409.443 10.6943 409.651 10.6835C409.858 10.6727 410.027 10.651 410.164 10.6186V8.77404C410.082 8.73618 409.956 8.69831 409.776 8.67127C409.596 8.64422 409.378 8.62799 409.121 8.62799C408.952 8.62799 408.777 8.63881 408.586 8.66586C408.395 8.6929 408.226 8.74159 408.068 8.81191C407.91 8.88764 407.779 8.99041 407.675 9.12023C407.571 9.25005 407.517 9.42315 407.517 9.63952C407.517 10.0344 407.642 10.3103 407.899 10.4671C408.155 10.624 408.505 10.6997 408.941 10.6997H408.947Z" fill="#010709"/>
<path d="M413.095 5.49094C413.351 5.42603 413.69 5.36112 414.115 5.2908C414.541 5.22048 415.027 5.18262 415.578 5.18262C416.075 5.18262 416.489 5.25294 416.817 5.39358C417.144 5.53422 417.406 5.72895 417.603 5.97777C417.799 6.2266 417.936 6.52951 418.018 6.8757C418.1 7.2273 418.138 7.61136 418.138 8.02787V11.5006H417.019V8.26587C417.019 7.88723 416.992 7.55726 416.942 7.29221C416.888 7.02175 416.806 6.80538 416.686 6.6377C416.566 6.47001 416.408 6.35101 416.206 6.27528C416.004 6.19955 415.758 6.16169 415.463 6.16169C415.343 6.16169 415.218 6.16169 415.092 6.1725C414.961 6.17791 414.841 6.18873 414.727 6.20496C414.612 6.21578 414.508 6.23201 414.415 6.24823C414.323 6.26446 414.257 6.27528 414.219 6.2861V11.5114H413.1V5.50176L413.095 5.49094Z" fill="#010709"/>
<path d="M421.418 10.6993C421.876 10.6993 422.215 10.6398 422.433 10.5208C422.651 10.4018 422.766 10.2124 422.766 9.94739C422.766 9.68234 422.657 9.46597 422.444 9.30369C422.226 9.14683 421.871 8.96832 421.374 8.76818C421.134 8.67081 420.905 8.57345 420.681 8.47608C420.463 8.37872 420.272 8.25971 420.113 8.12448C419.955 7.98925 419.824 7.82698 419.731 7.63765C419.633 7.44833 419.59 7.21574 419.59 6.93446C419.59 6.38812 419.791 5.94998 420.201 5.63083C420.61 5.31169 421.167 5.14941 421.871 5.14941C422.046 5.14941 422.226 5.16023 422.4 5.18187C422.575 5.20351 422.739 5.22514 422.892 5.25219C423.044 5.27924 423.175 5.31169 423.295 5.34415C423.416 5.3766 423.503 5.40365 423.568 5.42528L423.366 6.37731C423.246 6.3124 423.061 6.24749 422.804 6.18257C422.548 6.11766 422.242 6.0798 421.882 6.0798C421.571 6.0798 421.298 6.1393 421.063 6.26371C420.828 6.38812 420.714 6.57745 420.714 6.8425C420.714 6.97773 420.741 7.09673 420.79 7.19951C420.839 7.30228 420.921 7.39424 421.03 7.48079C421.14 7.56193 421.271 7.64306 421.434 7.71338C421.593 7.7837 421.789 7.85943 422.013 7.94057C422.308 8.05416 422.575 8.16235 422.804 8.26512C423.033 8.37331 423.235 8.49772 423.399 8.63836C423.563 8.779 423.688 8.95209 423.776 9.15765C423.863 9.35779 423.907 9.60661 423.907 9.89871C423.907 10.4721 423.694 10.9048 423.263 11.1969C422.837 11.489 422.226 11.6351 421.434 11.6351C420.883 11.6351 420.452 11.5918 420.135 11.4998C419.824 11.4079 419.611 11.3376 419.497 11.2889L419.699 10.3369C419.824 10.3855 420.032 10.4559 420.31 10.5532C420.588 10.6506 420.965 10.6939 421.429 10.6939L421.418 10.6993Z" fill="#010709"/>
<path d="M430.849 8.40569C430.849 8.89793 430.778 9.34148 430.631 9.73636C430.484 10.1312 430.287 10.472 430.025 10.7587C429.763 11.0454 429.458 11.2618 429.092 11.4186C428.726 11.5755 428.339 11.6512 427.913 11.6512C427.487 11.6512 427.094 11.5755 426.734 11.4186C426.374 11.2618 426.063 11.0454 425.801 10.7587C425.539 10.472 425.337 10.1312 425.195 9.73636C425.053 9.34148 424.977 8.89793 424.977 8.40569C424.977 7.91345 425.047 7.48071 425.195 7.08043C425.337 6.68015 425.539 6.33937 425.801 6.05268C426.063 5.76599 426.368 5.54421 426.734 5.39275C427.094 5.23589 427.487 5.16016 427.913 5.16016C428.339 5.16016 428.732 5.23589 429.092 5.39275C429.452 5.54962 429.763 5.76599 430.025 6.05268C430.287 6.33937 430.489 6.68015 430.631 7.08043C430.773 7.48071 430.849 7.92427 430.849 8.40569ZM429.687 8.40569C429.687 7.7079 429.528 7.15616 429.212 6.74506C428.895 6.33396 428.464 6.13382 427.924 6.13382C427.383 6.13382 426.947 6.33937 426.63 6.74506C426.314 7.15616 426.155 7.7079 426.155 8.40569C426.155 9.10348 426.314 9.65522 426.63 10.0663C426.947 10.4774 427.378 10.6776 427.924 10.6776C428.47 10.6776 428.901 10.472 429.212 10.0663C429.523 9.66063 429.687 9.10348 429.687 8.40569Z" fill="#010709"/>
<path d="M437.421 11.4997C437.197 10.9263 436.957 10.2772 436.706 9.54153C436.455 8.80588 436.225 8.04318 436.018 7.25343C435.811 8.04859 435.581 8.81129 435.336 9.54153C435.085 10.2772 434.85 10.9263 434.626 11.4997H433.655C433.289 10.6829 432.929 9.75249 432.574 8.7031C432.219 7.65372 431.892 6.52319 431.575 5.31152H432.776C432.858 5.68476 432.951 6.09045 433.065 6.52319C433.18 6.95593 433.294 7.39407 433.42 7.83222C433.546 8.27037 433.671 8.68688 433.808 9.09257C433.944 9.49826 434.069 9.84986 434.19 10.1528C434.326 9.77954 434.462 9.38467 434.593 8.96816C434.724 8.55165 434.85 8.12973 434.97 7.70781C435.09 7.28589 435.205 6.86938 435.314 6.45828C435.423 6.04718 435.516 5.66853 435.598 5.31152H436.52C436.591 5.66853 436.678 6.05259 436.782 6.45828C436.886 6.86397 437 7.28589 437.12 7.70781C437.241 8.12973 437.366 8.55165 437.497 8.96816C437.628 9.38467 437.765 9.77954 437.901 10.1528C438.021 9.84986 438.147 9.49826 438.278 9.09257C438.409 8.68688 438.54 8.26496 438.665 7.83222C438.791 7.39407 438.911 6.96134 439.025 6.52319C439.14 6.08504 439.233 5.68476 439.315 5.31152H440.466C440.155 6.52319 439.822 7.65372 439.467 8.7031C439.113 9.75249 438.752 10.6829 438.387 11.4997H437.415H437.421Z" fill="#010709"/>
<path d="M443.577 5.15527C444.025 5.15527 444.401 5.21478 444.712 5.32837C445.018 5.44196 445.269 5.60424 445.455 5.8152C445.64 6.02616 445.777 6.27498 445.859 6.56708C445.94 6.85918 445.979 7.17832 445.979 7.52451V11.3921C445.88 11.4083 445.749 11.43 445.575 11.457C445.4 11.4841 445.209 11.5111 444.991 11.5327C444.772 11.5544 444.543 11.576 444.287 11.5977C444.03 11.6193 443.785 11.6301 443.539 11.6301C443.184 11.6301 442.862 11.5922 442.567 11.5219C442.273 11.4516 442.016 11.338 441.798 11.1811C441.58 11.0243 441.416 10.8241 441.296 10.5699C441.176 10.3157 441.116 10.0128 441.116 9.65574C441.116 9.29874 441.187 9.02287 441.323 8.77404C441.465 8.53063 441.656 8.33049 441.891 8.17903C442.131 8.02757 442.409 7.91938 442.731 7.84366C443.053 7.77334 443.386 7.73547 443.741 7.73547C443.856 7.73547 443.97 7.74088 444.09 7.7517C444.21 7.76252 444.325 7.77874 444.434 7.80038C444.543 7.82202 444.636 7.83825 444.718 7.85447C444.8 7.8707 444.854 7.88152 444.887 7.89234V7.58401C444.887 7.4001 444.865 7.2216 444.827 7.04309C444.789 6.86459 444.712 6.70772 444.609 6.56708C444.505 6.42644 444.363 6.31826 444.183 6.23171C444.003 6.15057 443.768 6.1073 443.479 6.1073C443.113 6.1073 442.791 6.13434 442.513 6.18303C442.235 6.23712 442.033 6.2858 441.896 6.3453L441.765 5.43114C441.907 5.36623 442.147 5.30673 442.486 5.24723C442.824 5.18773 443.184 5.15527 443.577 5.15527ZM443.67 10.6997C443.932 10.6997 444.167 10.6943 444.374 10.6835C444.581 10.6727 444.751 10.651 444.887 10.6186V8.77404C444.805 8.73618 444.68 8.69831 444.5 8.67127C444.319 8.64422 444.101 8.62799 443.845 8.62799C443.675 8.62799 443.501 8.63881 443.31 8.66586C443.119 8.6929 442.95 8.74159 442.791 8.81191C442.633 8.88764 442.502 8.99041 442.398 9.12023C442.295 9.25005 442.24 9.42315 442.24 9.63952C442.24 10.0344 442.366 10.3103 442.622 10.4671C442.879 10.624 443.228 10.6997 443.665 10.6997H443.67Z" fill="#010709"/>
<path d="M447.812 5.49094C448.069 5.42603 448.407 5.36112 448.833 5.2908C449.259 5.22048 449.745 5.18262 450.296 5.18262C450.793 5.18262 451.202 5.25294 451.535 5.39358C451.862 5.53422 452.124 5.72895 452.321 5.97777C452.517 6.2266 452.654 6.52951 452.736 6.8757C452.817 7.2273 452.856 7.61136 452.856 8.02787V11.5006H451.737V8.26587C451.737 7.88723 451.709 7.55726 451.66 7.29221C451.606 7.02175 451.524 6.80538 451.404 6.6377C451.284 6.47001 451.125 6.35101 450.924 6.27528C450.722 6.19955 450.476 6.16169 450.181 6.16169C450.061 6.16169 449.936 6.16169 449.81 6.1725C449.685 6.18332 449.559 6.18873 449.444 6.20496C449.33 6.21578 449.226 6.23201 449.133 6.24823C449.041 6.26446 448.975 6.27528 448.937 6.2861V11.5114H447.818V5.50176L447.812 5.49094Z" fill="#010709"/>
<path d="M454.346 8.41651C454.346 7.87018 454.428 7.38875 454.586 6.98306C454.744 6.57737 454.957 6.23659 455.224 5.96613C455.486 5.69567 455.792 5.49553 456.136 5.3603C456.48 5.22507 456.835 5.16016 457.195 5.16016C458.035 5.16016 458.679 5.4198 459.127 5.93908C459.574 6.45837 459.798 7.24811 459.798 8.31373V8.49764C459.798 8.57337 459.798 8.64369 459.787 8.7086H455.514C455.563 9.3523 455.748 9.83913 456.076 10.1745C456.403 10.5099 456.916 10.6721 457.615 10.6721C458.008 10.6721 458.335 10.6397 458.603 10.5694C458.87 10.5045 459.072 10.4341 459.209 10.3746L459.367 11.305C459.231 11.3753 458.99 11.4511 458.652 11.5322C458.314 11.6134 457.926 11.6512 457.495 11.6512C456.949 11.6512 456.48 11.5701 456.087 11.4078C455.694 11.2455 455.366 11.0237 455.11 10.7371C454.853 10.4504 454.662 10.115 454.542 9.72013C454.422 9.32525 454.357 8.89793 454.357 8.42732L454.346 8.41651ZM458.636 7.81067C458.647 7.31302 458.521 6.90192 458.259 6.57737C457.997 6.25823 457.642 6.09595 457.184 6.09595C456.927 6.09595 456.704 6.14463 456.507 6.242C456.311 6.33937 456.147 6.46919 456.01 6.62605C455.874 6.78292 455.77 6.96684 455.694 7.17239C455.617 7.37794 455.568 7.5889 455.541 7.80526H458.636V7.81067Z" fill="#010709"/>
<path d="M469.715 8.41688C469.715 8.88748 469.655 9.32022 469.53 9.71509C469.404 10.11 469.224 10.4507 468.984 10.7374C468.744 11.0241 468.449 11.2459 468.1 11.4028C467.75 11.5596 467.352 11.6408 466.904 11.6408C466.544 11.6408 466.228 11.5921 465.949 11.5001C465.671 11.4028 465.469 11.3162 465.332 11.2243V13.7017H464.214V5.50131C464.476 5.4364 464.809 5.36608 465.207 5.29035C465.605 5.21462 466.064 5.17676 466.582 5.17676C467.063 5.17676 467.494 5.25249 467.881 5.40395C468.263 5.5554 468.596 5.76636 468.864 6.04764C469.137 6.32351 469.344 6.66429 469.491 7.06458C469.639 7.46486 469.715 7.91382 469.715 8.41688ZM468.553 8.41688C468.553 7.69745 468.373 7.1403 468.012 6.75084C467.652 6.36138 467.172 6.16664 466.571 6.16664C466.233 6.16664 465.971 6.17746 465.785 6.20451C465.6 6.23156 465.447 6.2586 465.332 6.28565V10.1911C465.469 10.3047 465.665 10.4075 465.922 10.5102C466.178 10.613 466.457 10.6671 466.762 10.6671C467.084 10.6671 467.357 10.6076 467.587 10.494C467.816 10.3804 468.001 10.2182 468.143 10.018C468.285 9.81787 468.389 9.57986 468.454 9.30399C468.52 9.02812 468.553 8.73602 468.553 8.41688Z" fill="#010709"/>
<path d="M473.65 5.18217C473.749 5.18217 473.858 5.18758 473.978 5.19839C474.098 5.20921 474.224 5.22544 474.344 5.24708C474.464 5.26871 474.573 5.28494 474.677 5.30658C474.775 5.32822 474.851 5.34444 474.9 5.36067L474.709 6.32351C474.622 6.29106 474.475 6.25319 474.273 6.20992C474.071 6.16664 473.809 6.14501 473.487 6.14501C473.279 6.14501 473.072 6.16664 472.87 6.20992C472.668 6.25319 472.532 6.28565 472.466 6.30188V11.5001H471.347V5.57163C471.609 5.47427 471.942 5.38772 472.33 5.30117C472.723 5.22003 473.159 5.17676 473.65 5.17676V5.18217Z" fill="#010709"/>
<path d="M480.446 6.14454C480.276 6.32846 480.058 6.58269 479.78 6.91806C479.501 7.25343 479.207 7.62126 478.89 8.02695C478.573 8.43264 478.257 8.85456 477.94 9.29812C477.624 9.74167 477.345 10.169 477.105 10.5693H480.538V11.4997H475.774V10.764C475.965 10.4124 476.199 10.0284 476.483 9.61185C476.761 9.18993 477.056 8.77342 477.367 8.35691C477.678 7.9404 477.973 7.54553 478.268 7.1777C478.563 6.80988 478.814 6.49614 479.032 6.24191H475.948V5.31152H480.451V6.14454H480.446Z" fill="#010709"/>
<path d="M481.526 8.41651C481.526 7.87018 481.608 7.38875 481.766 6.98306C481.925 6.57737 482.137 6.23659 482.405 5.96613C482.667 5.69567 482.972 5.49553 483.316 5.3603C483.66 5.22507 484.015 5.16016 484.375 5.16016C485.216 5.16016 485.86 5.4198 486.307 5.93908C486.755 6.45837 486.979 7.24811 486.979 8.31373V8.49764C486.979 8.57337 486.979 8.64369 486.968 8.7086H482.694C482.743 9.3523 482.929 9.83913 483.256 10.1745C483.584 10.5099 484.097 10.6721 484.795 10.6721C485.188 10.6721 485.516 10.6397 485.783 10.5694C486.051 10.5045 486.253 10.4341 486.389 10.3746L486.547 11.305C486.411 11.3753 486.171 11.4511 485.832 11.5322C485.494 11.6134 485.107 11.6512 484.675 11.6512C484.13 11.6512 483.66 11.5701 483.267 11.4078C482.869 11.2455 482.547 11.0237 482.29 10.7371C482.034 10.4504 481.843 10.115 481.723 9.72013C481.603 9.32525 481.537 8.89793 481.537 8.42732L481.526 8.41651ZM485.811 7.81067C485.816 7.31302 485.691 6.90192 485.434 6.57737C485.172 6.25823 484.817 6.09595 484.359 6.09595C484.102 6.09595 483.878 6.14463 483.682 6.242C483.486 6.33937 483.322 6.46919 483.185 6.62605C483.049 6.78292 482.945 6.96684 482.869 7.17239C482.792 7.37794 482.743 7.5889 482.716 7.80526H485.816L485.811 7.81067Z" fill="#010709"/>
<path d="M492.677 6.14454C492.508 6.32846 492.289 6.58269 492.011 6.91806C491.733 7.25343 491.438 7.62126 491.121 8.02695C490.805 8.43264 490.488 8.85456 490.172 9.29812C489.855 9.74167 489.577 10.169 489.336 10.5693H492.77V11.4997H488.005V10.764C488.196 10.4124 488.43 10.0284 488.714 9.61185C488.993 9.18993 489.287 8.77342 489.598 8.35691C489.91 7.9404 490.204 7.54553 490.499 7.1777C490.794 6.80988 491.045 6.49614 491.263 6.24191H488.179V5.31152H492.682V6.14454H492.677Z" fill="#010709"/>
<path d="M409.241 27.0135C408.696 27.0135 408.226 26.9324 407.822 26.7647C407.424 26.597 407.096 26.3698 406.84 26.0777C406.583 25.7856 406.392 25.4448 406.272 25.05C406.147 24.6551 406.087 24.2223 406.087 23.7626V18.5859H407.249V23.6327C407.249 24.4603 407.435 25.0554 407.8 25.4286C408.166 25.8018 408.646 25.9857 409.241 25.9857C409.536 25.9857 409.809 25.9425 410.055 25.8505C410.3 25.7586 410.508 25.6179 410.688 25.4286C410.862 25.2393 410.999 24.9959 411.097 24.6984C411.195 24.4008 411.239 24.0438 411.239 23.6327V18.5859H412.401V23.7626C412.401 24.2223 412.341 24.6497 412.216 25.05C412.09 25.4502 411.899 25.791 411.637 26.0777C411.375 26.3698 411.048 26.597 410.655 26.7647C410.257 26.9324 409.787 27.0135 409.247 27.0135H409.241Z" fill="#010709"/>
<path d="M414.312 20.8259C414.568 20.761 414.907 20.6961 415.332 20.6258C415.758 20.5554 416.244 20.5176 416.795 20.5176C417.292 20.5176 417.707 20.5879 418.034 20.7285C418.362 20.8692 418.624 21.0639 418.82 21.3127C419.017 21.5616 419.153 21.8645 419.235 22.2107C419.317 22.5623 419.355 22.9463 419.355 23.3628V26.8355H418.236V23.6008C418.236 23.2222 418.209 22.8922 418.16 22.6272C418.105 22.3567 418.023 22.1403 417.903 21.9727C417.783 21.805 417.625 21.686 417.423 21.6102C417.221 21.5345 416.975 21.4966 416.681 21.4966C416.56 21.4966 416.435 21.4966 416.309 21.5075C416.178 21.5129 416.058 21.5237 415.944 21.5399C415.829 21.5507 415.725 21.567 415.633 21.5832C415.54 21.5994 415.474 21.6102 415.436 21.6211V26.8464H414.317V20.8367L414.312 20.8259Z" fill="#010709"/>
<path d="M421.691 19.5268C421.489 19.5268 421.32 19.4619 421.183 19.3321C421.041 19.2023 420.976 19.0238 420.976 18.802C420.976 18.5802 421.047 18.4017 421.183 18.2719C421.325 18.1421 421.494 18.0771 421.691 18.0771C421.887 18.0771 422.062 18.1421 422.204 18.2719C422.346 18.4017 422.411 18.5802 422.411 18.802C422.411 19.0238 422.34 19.2023 422.204 19.3321C422.062 19.4619 421.893 19.5268 421.691 19.5268ZM422.259 26.8347H421.14V20.6465H422.259V26.8347Z" fill="#010709"/>
<path d="M423.858 23.7515C423.858 23.2051 423.94 22.7237 424.098 22.318C424.256 21.9123 424.469 21.5716 424.736 21.3011C424.998 21.0306 425.304 20.8305 425.648 20.6953C425.992 20.56 426.346 20.4951 426.707 20.4951C427.547 20.4951 428.191 20.7548 428.639 21.274C429.086 21.7933 429.31 22.5831 429.31 23.6487V23.8326C429.31 23.9083 429.31 23.9787 429.299 24.0436H425.026C425.075 24.6873 425.26 25.1741 425.588 25.5095C425.915 25.8448 426.428 26.0071 427.127 26.0071C427.52 26.0071 427.847 25.9747 428.12 25.9043C428.388 25.8394 428.59 25.7691 428.726 25.7096L428.884 26.64C428.748 26.7428 428.612 26.8455 428.475 26.9483C428.339 27.0511 428.208 27.1701 428.077 27.3053C427.94 27.4406 427.842 27.5596 427.782 27.6569C427.722 27.7543 427.689 27.8517 427.689 27.949C427.689 28.0843 427.733 28.1762 427.826 28.2249C427.918 28.2736 428.033 28.2952 428.169 28.2952C428.268 28.2952 428.355 28.2844 428.448 28.2628C428.541 28.2411 428.606 28.2249 428.666 28.2087L428.748 28.9335C428.65 28.9822 428.53 29.0146 428.377 29.0363C428.224 29.0579 428.082 29.0633 427.957 29.0633C427.547 29.0633 427.225 28.993 426.991 28.847C426.756 28.7063 426.636 28.4737 426.636 28.1546C426.636 27.9707 426.701 27.7759 426.832 27.5704C426.963 27.3648 427.154 27.1593 427.4 26.9537C427.334 26.9591 427.269 26.97 427.203 26.97C427.138 26.97 427.067 26.9754 427.007 26.9754C426.461 26.9754 425.992 26.8942 425.599 26.7319C425.206 26.5697 424.878 26.3479 424.622 26.0612C424.365 25.7745 424.174 25.4391 424.054 25.0443C423.934 24.6494 423.869 24.2221 423.869 23.7515H423.858ZM428.142 23.1456C428.148 22.648 428.022 22.2369 427.766 21.9123C427.504 21.5932 427.149 21.4309 426.69 21.4309C426.434 21.4309 426.21 21.4796 426.014 21.577C425.817 21.6743 425.653 21.8041 425.517 21.961C425.38 22.1179 425.277 22.3018 425.2 22.5073C425.124 22.7129 425.075 22.9239 425.047 23.1402H428.148L428.142 23.1456Z" fill="#010709"/>
<path d="M434.375 26.835V18.5859H439.456V19.5758H435.543V22.0262H439.025V22.989H435.543V25.8451H439.757V26.835H434.375Z" fill="#010709"/>
<path d="M445.908 26.6562C445.651 26.7211 445.313 26.786 444.893 26.8563C444.472 26.9267 443.987 26.9645 443.435 26.9645C442.955 26.9645 442.551 26.8942 442.224 26.7536C441.896 26.6129 441.634 26.4182 441.432 26.164C441.23 25.9097 441.088 25.6122 441.001 25.266C440.914 24.9198 440.87 24.5358 440.87 24.1193V20.6466H441.989V23.8813C441.989 24.6332 442.109 25.1741 442.349 25.4986C442.589 25.8232 442.993 25.9855 443.561 25.9855C443.681 25.9855 443.806 25.9855 443.932 25.9746C444.063 25.9692 444.183 25.9584 444.292 25.9422C444.401 25.926 444.505 25.9205 444.598 25.9043C444.691 25.8935 444.756 25.8773 444.794 25.861V20.6357H445.913V26.6454L445.908 26.6562Z" fill="#010709"/>
<path d="M450.17 20.5113C450.269 20.5113 450.378 20.5167 450.503 20.5275C450.629 20.5383 450.749 20.5545 450.869 20.5762C450.989 20.5978 451.098 20.614 451.202 20.6357C451.3 20.6573 451.377 20.6735 451.426 20.6898L451.235 21.6526C451.147 21.6202 451 21.5823 450.798 21.539C450.596 21.4957 450.329 21.4741 450.012 21.4741C449.805 21.4741 449.597 21.4957 449.395 21.539C449.193 21.5823 449.057 21.6148 448.991 21.631V26.8292H447.873V20.9007C448.135 20.8034 448.462 20.7168 448.855 20.6303C449.248 20.5491 449.69 20.5059 450.176 20.5059L450.17 20.5113Z" fill="#010709"/>
<path d="M457.986 23.7406C457.986 24.2329 457.915 24.6764 457.768 25.0713C457.62 25.4662 457.424 25.807 457.162 26.0937C456.9 26.3803 456.594 26.5967 456.229 26.7536C455.863 26.9105 455.475 26.9862 455.05 26.9862C454.624 26.9862 454.231 26.9105 453.871 26.7536C453.511 26.5967 453.2 26.3803 452.938 26.0937C452.676 25.807 452.474 25.4662 452.332 25.0713C452.19 24.6764 452.113 24.2329 452.113 23.7406C452.113 23.2484 452.184 22.8157 452.332 22.4154C452.474 22.0151 452.676 21.6743 452.938 21.3876C453.2 21.101 453.505 20.8792 453.871 20.7277C454.231 20.5708 454.624 20.4951 455.05 20.4951C455.475 20.4951 455.868 20.5708 456.229 20.7277C456.589 20.8846 456.9 21.101 457.162 21.3876C457.424 21.6743 457.626 22.0151 457.768 22.4154C457.91 22.8157 457.986 23.2592 457.986 23.7406ZM456.818 23.7406C456.818 23.0429 456.66 22.4911 456.343 22.08C456.027 21.6689 455.596 21.4688 455.055 21.4688C454.515 21.4688 454.078 21.6743 453.762 22.08C453.445 22.4911 453.287 23.0429 453.287 23.7406C453.287 24.4384 453.445 24.9902 453.762 25.4013C454.078 25.8124 454.509 26.0125 455.055 26.0125C455.601 26.0125 456.032 25.807 456.343 25.4013C456.654 24.9956 456.818 24.4384 456.818 23.7406Z" fill="#010709"/>
<path d="M465.109 23.7518C465.109 24.2224 465.049 24.6552 464.923 25.0501C464.798 25.4449 464.618 25.7857 464.377 26.0724C464.137 26.3591 463.843 26.5809 463.493 26.7377C463.144 26.8946 462.745 26.9757 462.298 26.9757C461.938 26.9757 461.621 26.9271 461.343 26.8351C461.064 26.7377 460.862 26.6512 460.726 26.5592V29.0366H459.607V20.8363C459.869 20.7714 460.202 20.701 460.6 20.6253C460.999 20.5496 461.457 20.5117 461.976 20.5117C462.456 20.5117 462.887 20.5874 463.275 20.7389C463.657 20.8904 463.99 21.1013 464.257 21.3826C464.53 21.6585 464.738 21.9993 464.885 22.3995C465.032 22.7998 465.109 23.2488 465.109 23.7518ZM463.946 23.7518C463.946 23.0324 463.766 22.4753 463.406 22.0858C463.046 21.6963 462.565 21.5016 461.965 21.5016C461.627 21.5016 461.365 21.5124 461.179 21.5395C460.993 21.5665 460.841 21.5936 460.726 21.6206V25.5261C460.862 25.6397 461.059 25.7424 461.315 25.8452C461.572 25.948 461.85 26.0021 462.156 26.0021C462.478 26.0021 462.751 25.9426 462.98 25.829C463.209 25.7154 463.395 25.5531 463.537 25.353C463.679 25.1528 463.782 24.9148 463.848 24.639C463.913 24.3631 463.946 24.071 463.946 23.7518Z" fill="#010709"/>
<path d="M466.282 23.7515C466.282 23.2051 466.364 22.7237 466.522 22.318C466.681 21.9123 466.894 21.5716 467.161 21.3011C467.423 21.0306 467.729 20.8305 468.072 20.6953C468.416 20.56 468.771 20.4951 469.131 20.4951C469.972 20.4951 470.616 20.7548 471.063 21.274C471.511 21.7933 471.735 22.5831 471.735 23.6487V23.8326C471.735 23.9083 471.735 23.9787 471.724 24.0436H467.45C467.499 24.6873 467.685 25.1741 468.012 25.5095C468.34 25.8448 468.853 26.0071 469.552 26.0071C469.944 26.0071 470.272 25.9747 470.539 25.9043C470.807 25.8394 471.009 25.7691 471.145 25.7096L471.304 26.64C471.167 26.7103 470.927 26.786 470.589 26.8672C470.25 26.9483 469.863 26.9862 469.431 26.9862C468.886 26.9862 468.416 26.905 468.023 26.7428C467.625 26.5805 467.303 26.3587 467.046 26.072C466.79 25.7853 466.599 25.45 466.479 25.0551C466.359 24.6602 466.293 24.2329 466.293 23.7623L466.282 23.7515ZM470.572 23.1456C470.578 22.648 470.452 22.2369 470.196 21.9123C469.934 21.5932 469.579 21.4309 469.12 21.4309C468.864 21.4309 468.64 21.4796 468.444 21.577C468.247 21.6743 468.083 21.8041 467.947 21.961C467.81 22.1179 467.707 22.3018 467.63 22.5073C467.554 22.7129 467.505 22.9239 467.478 23.1402H470.578L470.572 23.1456Z" fill="#010709"/>
<path d="M472.373 29.0579C472.275 29.0579 472.155 29.047 472.002 29.02C471.849 28.993 471.724 28.9659 471.62 28.9226L471.762 28.0193C471.844 28.0409 471.937 28.0626 472.04 28.0788C472.144 28.095 472.242 28.1004 472.33 28.1004C472.712 28.1004 472.99 27.9814 473.154 27.7488C473.317 27.5162 473.399 27.17 473.399 26.7211V20.6411H474.518V26.7103C474.518 27.5054 474.338 28.095 473.972 28.4791C473.607 28.8631 473.077 29.0579 472.379 29.0579H472.373ZM473.945 19.5268C473.743 19.5268 473.574 19.4619 473.432 19.3321C473.29 19.2023 473.225 19.0238 473.225 18.802C473.225 18.5802 473.296 18.4017 473.432 18.2719C473.574 18.1421 473.743 18.0771 473.945 18.0771C474.147 18.0771 474.316 18.1421 474.453 18.2719C474.595 18.4017 474.66 18.5802 474.66 18.802C474.66 19.0238 474.589 19.2023 474.453 19.3321C474.311 19.4619 474.142 19.5268 473.945 19.5268Z" fill="#010709"/>
<path d="M477.979 26.0342C478.437 26.0342 478.775 25.9747 478.994 25.8557C479.212 25.7367 479.321 25.5474 479.321 25.2824C479.321 25.0173 479.212 24.8009 478.999 24.6387C478.781 24.4818 478.426 24.3033 477.929 24.1031C477.689 24.0058 477.46 23.9084 477.242 23.811C477.023 23.7137 476.832 23.5947 476.674 23.4594C476.516 23.3242 476.385 23.1619 476.292 22.9726C476.194 22.7833 476.15 22.5507 476.15 22.2694C476.15 21.7231 476.352 21.2849 476.761 20.9658C477.171 20.6467 477.727 20.4844 478.432 20.4844C478.606 20.4844 478.781 20.4952 478.961 20.5168C479.136 20.5385 479.299 20.5601 479.452 20.5872C479.605 20.6142 479.736 20.6467 479.856 20.6791C479.976 20.7116 480.063 20.7386 480.129 20.7602L479.927 21.7123C479.807 21.6474 479.621 21.5824 479.365 21.5175C479.108 21.4526 478.803 21.4148 478.442 21.4148C478.131 21.4148 477.858 21.4743 477.624 21.5987C477.389 21.7231 477.274 21.9124 477.274 22.1775C477.274 22.3127 477.302 22.4317 477.351 22.5345C477.4 22.6372 477.482 22.7292 477.591 22.8157C477.7 22.8969 477.831 22.978 477.995 23.0483C478.153 23.1187 478.35 23.1944 478.573 23.2755C478.868 23.3891 479.136 23.4973 479.365 23.6001C479.6 23.7083 479.796 23.8327 479.96 23.9733C480.124 24.114 480.249 24.2871 480.336 24.4926C480.424 24.6927 480.467 24.9416 480.467 25.2337C480.467 25.807 480.255 26.2398 479.823 26.5319C479.392 26.824 478.786 26.97 477.989 26.97C477.438 26.97 477.007 26.9268 476.69 26.8348C476.379 26.7428 476.166 26.6725 476.052 26.6238L476.254 25.6718C476.379 25.7205 476.587 25.7908 476.865 25.8882C477.143 25.9856 477.52 26.0288 477.984 26.0288L477.979 26.0342Z" fill="#010709"/>
<path d="M484.228 23.4273C484.468 23.6112 484.725 23.8384 484.992 24.1034C485.259 24.3739 485.527 24.666 485.783 24.9797C486.045 25.2935 486.291 25.6126 486.52 25.9318C486.755 26.2509 486.951 26.5538 487.11 26.8297H485.8C485.631 26.5538 485.44 26.2671 485.216 25.9804C484.997 25.6883 484.763 25.4125 484.528 25.1474C484.288 24.8824 484.042 24.639 483.797 24.4172C483.551 24.1954 483.311 24.0061 483.087 23.86V26.8351H481.968V17.7909L483.087 17.6016V23.2434C483.278 23.0541 483.491 22.8431 483.726 22.6105C483.96 22.3779 484.184 22.1453 484.408 21.9073C484.632 21.6693 484.845 21.4421 485.047 21.2203C485.249 21.004 485.418 20.8092 485.565 20.6415H486.875C486.689 20.8417 486.493 21.0581 486.275 21.2961C486.056 21.5341 485.833 21.7721 485.603 22.0155C485.369 22.2589 485.139 22.4969 484.899 22.7403C484.665 22.9837 484.441 23.2109 484.233 23.4273H484.228Z" fill="#010709"/>
<path d="M490.374 20.4902C490.821 20.4902 491.198 20.5497 491.509 20.6633C491.814 20.7769 492.065 20.9392 492.251 21.1502C492.437 21.3611 492.573 21.6099 492.655 21.902C492.737 22.1941 492.775 22.5133 492.775 22.8595V26.7271C492.677 26.7974 492.573 26.8785 492.458 26.9705C492.344 27.0624 492.224 27.1706 492.104 27.295C491.989 27.4194 491.902 27.533 491.825 27.6304C491.754 27.7278 491.716 27.8305 491.716 27.9387C491.716 28.1713 491.874 28.2849 492.196 28.2849C492.251 28.2849 492.327 28.2795 492.42 28.2687C492.513 28.2579 492.6 28.2362 492.693 28.2038L492.775 28.9286C492.688 28.9665 492.573 28.9989 492.431 29.026C492.289 29.0476 492.142 29.0638 491.984 29.0638C491.536 29.0638 491.203 28.9827 490.985 28.8204C490.766 28.6582 490.663 28.4364 490.663 28.1605C490.663 27.9766 490.717 27.8035 490.832 27.6304C490.947 27.4573 491.067 27.3058 491.203 27.1598C491.241 27.1111 491.29 27.0678 491.345 27.0246C491.4 26.9813 491.449 26.938 491.487 26.9002C491.301 26.9164 491.11 26.9326 490.919 26.9488C490.723 26.9651 490.532 26.9705 490.335 26.9705C489.981 26.9705 489.659 26.9326 489.364 26.8623C489.069 26.792 488.813 26.6784 488.594 26.5215C488.376 26.3646 488.212 26.1645 488.092 25.9103C487.972 25.656 487.912 25.3531 487.912 24.9961C487.912 24.6391 487.983 24.3632 488.119 24.1144C488.261 23.871 488.447 23.6709 488.687 23.5194C488.927 23.3679 489.205 23.2598 489.528 23.184C489.85 23.1137 490.182 23.0758 490.537 23.0758C490.652 23.0758 490.766 23.0812 490.887 23.0921C491.007 23.1029 491.121 23.1191 491.23 23.1408C491.34 23.1624 491.432 23.1786 491.514 23.1948C491.596 23.2111 491.651 23.2219 491.683 23.2327V22.9244C491.683 22.7405 491.662 22.562 491.623 22.3835C491.585 22.205 491.509 22.0481 491.405 21.9074C491.301 21.7668 491.159 21.6586 490.979 21.5721C490.799 21.4909 490.565 21.4477 490.275 21.4477C489.91 21.4477 489.582 21.4747 489.309 21.5234C489.031 21.5775 488.829 21.6262 488.692 21.6857L488.561 20.7715C488.703 20.7066 488.944 20.6471 489.282 20.5876C489.62 20.5281 489.981 20.4956 490.374 20.4956V20.4902ZM490.466 26.0347C490.728 26.0347 490.963 26.0293 491.17 26.0185C491.378 26.0076 491.547 25.986 491.678 25.9535V24.109C491.596 24.0711 491.471 24.0333 491.29 24.0062C491.11 23.9792 490.892 23.963 490.635 23.963C490.466 23.963 490.292 23.9738 490.101 24.0008C489.91 24.0279 489.74 24.0765 489.582 24.1469C489.424 24.2226 489.298 24.3254 489.195 24.4552C489.091 24.585 489.036 24.7581 489.036 24.9745C489.036 25.3693 489.162 25.6452 489.418 25.8021C489.675 25.959 490.024 26.0347 490.461 26.0347H490.466Z" fill="#010709"/>
<path d="M383.011 42.171C382.705 41.6679 382.366 41.1216 381.99 40.5428C381.613 39.964 381.226 39.3744 380.822 38.7848C380.418 38.1952 380.009 37.6218 379.594 37.0701C379.179 36.5183 378.781 36.0153 378.404 35.5717V42.171H376.739V32.9482H378.12C378.48 33.3215 378.862 33.7596 379.277 34.2735C379.687 34.782 380.101 35.3121 380.522 35.8638C380.936 36.4156 381.34 36.9673 381.728 37.519C382.115 38.0708 382.465 38.5901 382.77 39.0715V32.9482H384.451V42.171H383.016H383.011Z" fill="#010709"/>
<path d="M385.941 38.7252C385.941 38.114 386.034 37.5785 386.214 37.1133C386.4 36.6535 386.64 36.2694 386.946 35.9611C387.251 35.6528 387.601 35.4256 387.994 35.2687C388.387 35.1119 388.79 35.0361 389.2 35.0361C390.166 35.0361 390.919 35.3336 391.465 35.9287C392.005 36.5237 392.278 37.4108 392.278 38.59C392.278 38.6765 392.278 38.7793 392.273 38.8875C392.273 39.0011 392.262 39.0985 392.251 39.185H387.617C387.661 39.7422 387.863 40.1749 388.217 40.4832C388.572 40.7915 389.085 40.943 389.756 40.943C390.149 40.943 390.51 40.9051 390.837 40.8348C391.165 40.7645 391.421 40.6888 391.607 40.6076L391.82 41.9275C391.727 41.9708 391.607 42.0194 391.448 42.0681C391.29 42.1168 391.11 42.1601 390.914 42.2033C390.717 42.2466 390.493 42.2791 390.264 42.3007C390.029 42.3278 389.795 42.3386 389.555 42.3386C388.938 42.3386 388.397 42.2466 387.944 42.0681C387.486 41.8842 387.109 41.6354 386.815 41.3108C386.52 40.9863 386.302 40.6076 386.154 40.1641C386.012 39.7259 385.941 39.2445 385.941 38.7198V38.7252ZM390.652 38.0058C390.652 37.784 390.619 37.5731 390.559 37.3729C390.493 37.1728 390.406 36.9997 390.28 36.8536C390.16 36.7076 390.013 36.594 389.838 36.5074C389.664 36.4209 389.456 36.383 389.216 36.383C388.976 36.383 388.747 36.4317 388.556 36.5237C388.37 36.6156 388.206 36.74 388.081 36.8915C387.95 37.043 387.852 37.2161 387.781 37.4108C387.71 37.6055 387.661 37.8057 387.633 38.0112H390.652V38.0058Z" fill="#010709"/>
<path d="M396.41 37.3402L397.9 35.209H399.603L397.245 38.5411C397.736 39.1523 398.211 39.7744 398.664 40.4018C399.117 41.0293 399.488 41.6189 399.777 42.1707H398.009C397.927 42.0084 397.823 41.8299 397.692 41.6351C397.561 41.4404 397.425 41.2349 397.278 41.0239C397.13 40.8129 396.977 40.602 396.819 40.3964C396.661 40.1909 396.503 39.9907 396.35 39.8122C396.033 40.1746 395.728 40.5749 395.427 41.0131C395.127 41.4512 394.876 41.8407 394.68 42.1761H393.026C393.157 41.911 393.321 41.6297 393.517 41.3322C393.708 41.0347 393.915 40.7372 394.139 40.4235C394.358 40.1151 394.587 39.8068 394.821 39.4985C395.056 39.1902 395.291 38.8981 395.52 38.6168L393.135 35.2144H394.92L396.41 37.3456V37.3402Z" fill="#010709"/>
<path d="M401.136 33.3754L402.763 33.1104V35.2145H405.263V36.556H402.763V39.3905C402.763 39.9476 402.85 40.3479 403.03 40.5859C403.21 40.8239 403.511 40.9429 403.942 40.9429C404.236 40.9429 404.498 40.9104 404.728 40.8509C404.957 40.7914 405.137 40.7319 405.273 40.6778L405.541 41.9544C405.355 42.0356 405.11 42.1167 404.804 42.2032C404.498 42.2898 404.144 42.3277 403.729 42.3277C403.227 42.3277 402.806 42.2627 402.474 42.1275C402.141 41.9923 401.873 41.803 401.677 41.5487C401.48 41.2945 401.338 40.9916 401.262 40.6292C401.18 40.2722 401.142 39.8611 401.142 39.3959V33.37L401.136 33.3754Z" fill="#010709"/>
<path d="M411.463 34.2139C410.508 34.2139 409.771 34.5115 409.269 35.1011C408.767 35.6907 408.51 36.5075 408.51 37.5568C408.51 38.0545 408.57 38.5089 408.69 38.92C408.81 39.3311 408.99 39.6827 409.225 39.9802C409.465 40.2723 409.76 40.4995 410.109 40.6671C410.464 40.8294 410.879 40.916 411.354 40.916C411.648 40.916 411.905 40.9052 412.118 40.8835C412.331 40.8619 412.505 40.8348 412.625 40.797V37.4865H414.317V41.9167C414.083 42.0032 413.69 42.1006 413.138 42.2088C412.582 42.317 411.943 42.3656 411.217 42.3656C410.546 42.3656 409.935 42.2575 409.378 42.0465C408.821 41.8355 408.352 41.5218 407.959 41.1161C407.571 40.7104 407.266 40.2074 407.053 39.6123C406.84 39.0173 406.731 38.3358 406.731 37.5623C406.731 36.7887 406.851 36.1072 407.085 35.5122C407.32 34.9171 407.648 34.4141 408.057 34.003C408.466 33.5919 408.952 33.2782 409.509 33.0672C410.065 32.8562 410.655 32.748 411.283 32.748C411.714 32.748 412.096 32.7751 412.429 32.8346C412.767 32.8941 413.051 32.959 413.297 33.0293C413.537 33.0996 413.739 33.1754 413.897 33.2565C414.055 33.3377 414.164 33.3917 414.224 33.4296L413.711 34.7981C413.444 34.6359 413.111 34.5006 412.713 34.3924C412.314 34.2843 411.894 34.2248 411.457 34.2248L411.463 34.2139Z" fill="#010709"/>
<path d="M415.955 38.7252C415.955 38.114 416.047 37.5785 416.227 37.1133C416.413 36.6535 416.653 36.2694 416.959 35.9611C417.265 35.6528 417.614 35.4256 418.007 35.2687C418.4 35.1119 418.804 35.0361 419.213 35.0361C420.179 35.0361 420.932 35.3336 421.478 35.9287C422.018 36.5237 422.291 37.4108 422.291 38.59C422.291 38.6765 422.291 38.7793 422.286 38.8875C422.286 39.0011 422.275 39.0985 422.264 39.185H417.63C417.674 39.7422 417.876 40.1749 418.231 40.4832C418.585 40.7915 419.098 40.943 419.77 40.943C420.163 40.943 420.523 40.9051 420.85 40.8348C421.178 40.7645 421.434 40.6888 421.62 40.6076L421.833 41.9275C421.74 41.9708 421.62 42.0194 421.462 42.0681C421.303 42.1168 421.123 42.1601 420.927 42.2033C420.73 42.2466 420.507 42.2791 420.277 42.3007C420.043 42.3278 419.808 42.3386 419.568 42.3386C418.951 42.3386 418.411 42.2466 417.958 42.0681C417.499 41.8842 417.123 41.6354 416.828 41.3108C416.533 40.9863 416.315 40.6076 416.167 40.1641C416.026 39.7259 415.955 39.2445 415.955 38.7198V38.7252ZM420.67 38.0058C420.67 37.784 420.638 37.5731 420.577 37.3729C420.512 37.1728 420.425 36.9997 420.299 36.8536C420.179 36.7076 420.032 36.594 419.857 36.5074C419.682 36.4209 419.475 36.383 419.235 36.383C418.995 36.383 418.765 36.4317 418.574 36.5237C418.389 36.6156 418.225 36.74 418.1 36.8915C417.969 37.043 417.87 37.2161 417.799 37.4108C417.728 37.6055 417.679 37.8057 417.652 38.0112H420.67V38.0058Z" fill="#010709"/>
<path d="M423.989 35.4357C424.3 35.3492 424.709 35.2626 425.211 35.1815C425.713 35.1004 426.265 35.0625 426.876 35.0625C427.449 35.0625 427.929 35.1382 428.311 35.2951C428.699 35.452 429.005 35.6683 429.234 35.9496C429.463 36.2309 429.621 36.5663 429.714 36.9611C429.807 37.356 429.856 37.7887 429.856 38.2594V42.1702H428.23V38.5136C428.23 38.1403 428.202 37.8266 428.153 37.5616C428.104 37.3019 428.022 37.0855 427.913 36.9233C427.798 36.761 427.651 36.642 427.455 36.5663C427.263 36.4905 427.029 36.4527 426.75 36.4527C426.543 36.4527 426.33 36.4635 426.106 36.4905C425.883 36.5176 425.719 36.5392 425.61 36.5554V42.1702H423.983V35.4357H423.989Z" fill="#010709"/>
<path d="M431.466 38.7252C431.466 38.114 431.559 37.5785 431.744 37.1133C431.93 36.6535 432.17 36.2694 432.476 35.9611C432.781 35.6528 433.131 35.4256 433.524 35.2687C433.917 35.1119 434.321 35.0361 434.73 35.0361C435.696 35.0361 436.449 35.3336 436.989 35.9287C437.53 36.5237 437.803 37.4108 437.803 38.59C437.803 38.6765 437.803 38.7793 437.797 38.8875C437.797 39.0011 437.786 39.0985 437.775 39.185H433.142C433.185 39.7422 433.387 40.1749 433.737 40.4832C434.086 40.7915 434.604 40.943 435.276 40.943C435.669 40.943 436.029 40.9051 436.356 40.8348C436.684 40.7645 436.94 40.6888 437.126 40.6076L437.339 41.9275C437.251 41.9708 437.126 42.0194 436.968 42.0681C436.809 42.1168 436.629 42.1601 436.433 42.2033C436.236 42.2466 436.012 42.2791 435.783 42.3007C435.554 42.3224 435.314 42.3386 435.074 42.3386C434.457 42.3386 433.917 42.2466 433.464 42.0681C433.011 41.8896 432.629 41.6354 432.334 41.3108C432.039 40.9863 431.821 40.6076 431.673 40.1641C431.531 39.7259 431.461 39.2445 431.461 38.7198L431.466 38.7252ZM436.176 38.0058C436.176 37.784 436.143 37.5731 436.083 37.3729C436.018 37.1728 435.931 36.9997 435.811 36.8536C435.69 36.7076 435.543 36.594 435.368 36.5074C435.194 36.4209 434.986 36.383 434.746 36.383C434.506 36.383 434.277 36.4317 434.086 36.5237C433.9 36.6156 433.742 36.74 433.611 36.8915C433.48 37.043 433.382 37.2161 433.311 37.4108C433.24 37.6055 433.191 37.8057 433.163 38.0112H436.182L436.176 38.0058Z" fill="#010709"/>
<path d="M443.501 36.6582C443.364 36.6149 443.179 36.5663 442.944 36.5176C442.709 36.4689 442.431 36.4419 442.12 36.4419C441.94 36.4419 441.749 36.4581 441.547 36.4959C441.345 36.5338 441.203 36.5609 441.127 36.5879V42.1648H439.5V35.5385C439.811 35.4249 440.204 35.3167 440.674 35.214C441.143 35.1112 441.667 35.0625 442.24 35.0625C442.349 35.0625 442.475 35.0679 442.617 35.0841C442.759 35.095 442.9 35.1166 443.048 35.1382C443.19 35.1599 443.332 35.1869 443.463 35.2194C443.599 35.2518 443.703 35.2789 443.785 35.3059L443.501 36.6636V36.6582Z" fill="#010709"/>
<path d="M447.278 35.0361C447.813 35.0361 448.266 35.101 448.631 35.2363C448.997 35.3715 449.292 35.5554 449.51 35.7934C449.728 36.0314 449.887 36.3235 449.979 36.6643C450.072 37.0051 450.121 37.3783 450.121 37.7894V42.0086C449.87 42.0627 449.494 42.1276 448.986 42.2033C448.478 42.2791 447.911 42.3169 447.272 42.3169C446.852 42.3169 446.464 42.2791 446.115 42.1979C445.766 42.1168 445.471 41.987 445.226 41.8139C444.98 41.6408 444.789 41.4082 444.647 41.1215C444.505 40.8348 444.44 40.4886 444.44 40.0721C444.44 39.6556 444.516 39.3365 444.674 39.0606C444.833 38.7847 445.045 38.5629 445.313 38.3899C445.58 38.2168 445.891 38.0923 446.246 38.0166C446.601 37.9409 446.967 37.903 447.354 37.903C447.534 37.903 447.72 37.9138 447.916 37.9355C448.113 37.9571 448.326 37.995 448.549 38.0491V37.784C448.549 37.6001 448.528 37.4216 448.484 37.2539C448.44 37.0862 448.364 36.9348 448.249 36.8104C448.135 36.6805 447.987 36.5832 447.807 36.5129C447.627 36.4425 447.392 36.4047 447.114 36.4047C446.737 36.4047 446.394 36.4317 446.082 36.4858C445.771 36.5399 445.515 36.5994 445.318 36.6697L445.116 35.3661C445.324 35.2958 445.624 35.2255 446.017 35.1551C446.41 35.0848 446.83 35.047 447.278 35.047V35.0361ZM447.414 41.0404C447.916 41.0404 448.298 41.0133 448.555 40.9592V39.1742C448.468 39.1471 448.337 39.1201 448.167 39.093C447.998 39.066 447.807 39.0552 447.605 39.0552C447.425 39.0552 447.245 39.066 447.059 39.093C446.874 39.1201 446.71 39.1688 446.563 39.2391C446.415 39.3094 446.295 39.4122 446.208 39.5366C446.121 39.661 446.071 39.8287 446.071 40.0234C446.071 40.4075 446.192 40.6671 446.432 40.8132C446.672 40.9592 446.999 41.035 447.414 41.035V41.0404Z" fill="#010709"/>
<path d="M452.032 33.3754L453.658 33.1104V35.2145H456.152V36.556H453.658V39.3905C453.658 39.9476 453.745 40.3479 453.926 40.5859C454.106 40.8239 454.411 40.9429 454.837 40.9429C455.132 40.9429 455.394 40.9104 455.623 40.8509C455.852 40.7914 456.032 40.7319 456.169 40.6778L456.436 41.9544C456.245 42.0356 456 42.1167 455.699 42.2032C455.394 42.2898 455.039 42.3277 454.624 42.3277C454.122 42.3277 453.707 42.2627 453.369 42.1275C453.03 41.9923 452.768 41.803 452.572 41.5487C452.375 41.2945 452.234 40.9916 452.157 40.6292C452.075 40.2722 452.037 39.8611 452.037 39.3959V33.37L452.032 33.3754Z" fill="#010709"/>
<path d="M459.569 33.175C459.569 33.4779 459.471 33.7159 459.274 33.8944C459.078 34.0729 458.843 34.1595 458.576 34.1595C458.308 34.1595 458.063 34.0729 457.866 33.8944C457.67 33.7159 457.571 33.4779 457.571 33.175C457.571 32.8721 457.67 32.6232 457.866 32.4447C458.063 32.2662 458.303 32.1797 458.576 32.1797C458.849 32.1797 459.078 32.2662 459.274 32.4447C459.471 32.6232 459.569 32.8667 459.569 33.175ZM459.394 42.1705H457.768V35.2088H459.394V42.1705Z" fill="#010709"/>
<path d="M467.805 38.6815C467.805 39.2332 467.723 39.7309 467.565 40.1853C467.407 40.6396 467.177 41.0237 466.883 41.3428C466.588 41.662 466.233 41.9108 465.818 42.0893C465.403 42.2678 464.945 42.3544 464.443 42.3544C463.941 42.3544 463.482 42.2678 463.073 42.0893C462.664 41.9108 462.309 41.662 462.014 41.3428C461.719 41.0237 461.49 40.6396 461.321 40.1853C461.157 39.7309 461.07 39.2332 461.07 38.6815C461.07 38.1298 461.152 37.6321 461.321 37.1831C461.485 36.7342 461.719 36.3501 462.02 36.031C462.32 35.7118 462.674 35.463 463.089 35.2899C463.499 35.1168 463.952 35.0303 464.443 35.0303C464.934 35.0303 465.387 35.1168 465.807 35.2899C466.222 35.463 466.577 35.7064 466.872 36.031C467.166 36.3501 467.396 36.7342 467.565 37.1831C467.729 37.6321 467.816 38.1298 467.816 38.6815H467.805ZM466.14 38.6815C466.14 37.9891 465.993 37.4428 465.693 37.0371C465.393 36.6314 464.978 36.4313 464.437 36.4313C463.897 36.4313 463.482 36.6314 463.182 37.0371C462.882 37.4428 462.735 37.9891 462.735 38.6815C462.735 39.3739 462.887 39.9364 463.182 40.3475C463.477 40.7586 463.903 40.9588 464.437 40.9588C464.972 40.9588 465.393 40.7532 465.693 40.3475C465.993 39.9418 466.14 39.3847 466.14 38.6815Z" fill="#010709"/>
<path d="M469.491 35.4357C469.803 35.3492 470.212 35.2626 470.714 35.1815C471.216 35.1004 471.773 35.0625 472.379 35.0625C472.952 35.0625 473.432 35.1382 473.814 35.2951C474.202 35.452 474.507 35.6683 474.737 35.9496C474.966 36.2309 475.124 36.5663 475.217 36.9611C475.31 37.356 475.359 37.7887 475.359 38.2594V42.1702H473.732V38.5136C473.732 38.1403 473.71 37.8266 473.661 37.5616C473.612 37.3019 473.53 37.0855 473.421 36.9233C473.307 36.761 473.159 36.642 472.963 36.5663C472.772 36.4905 472.537 36.4527 472.259 36.4527C472.051 36.4527 471.838 36.4635 471.615 36.4905C471.391 36.5176 471.227 36.5392 471.118 36.5554V42.1702H469.491V35.4357Z" fill="#010709"/>
<path d="M477.504 42.171V32.9482H483.48V34.3709H479.196V36.6481H483.011V38.0437H479.196V40.7429H483.802V42.1656H477.504V42.171Z" fill="#010709"/>
<path d="M489.08 42.3706C488.447 42.3706 487.901 42.2786 487.443 42.1001C486.984 41.9162 486.608 41.662 486.307 41.3374C486.007 41.0075 485.783 40.6234 485.641 40.1798C485.5 39.7363 485.429 39.2495 485.429 38.7139V32.9531H487.132V38.5571C487.132 38.9736 487.181 39.3306 487.273 39.6281C487.366 39.9256 487.503 40.169 487.677 40.3529C487.852 40.5369 488.059 40.6775 488.294 40.764C488.534 40.8506 488.796 40.8993 489.091 40.8993C489.386 40.8993 489.653 40.856 489.893 40.764C490.133 40.6775 490.341 40.5369 490.515 40.3529C490.69 40.169 490.827 39.9256 490.919 39.6281C491.012 39.3306 491.061 38.9736 491.061 38.5571V32.9531H492.764V38.7139C492.764 39.244 492.688 39.7363 492.54 40.1798C492.393 40.6234 492.169 41.0075 491.869 41.3374C491.569 41.6674 491.187 41.9216 490.723 42.1001C490.259 42.284 489.708 42.3706 489.069 42.3706H489.08Z" fill="#010709"/>
<path d="M54.7158 5.47935H55.1688C55.3544 5.47935 55.5017 5.4523 55.6218 5.40362C55.7419 5.35493 55.8456 5.2738 55.9329 5.16561L58.8202 1.54684C58.9402 1.39538 59.0658 1.2872 59.2022 1.2277C59.3332 1.1682 59.5024 1.13574 59.7043 1.13574H61.3799L57.8596 5.44148C57.6522 5.70653 57.4393 5.89045 57.2155 5.99863C57.3738 6.05813 57.5157 6.13386 57.6467 6.23664C57.7722 6.33941 57.8978 6.47464 58.0124 6.64233L61.6419 11.4944H59.9281C59.6989 11.4944 59.5242 11.4619 59.4096 11.397C59.295 11.3321 59.2022 11.2402 59.1258 11.1158L56.1676 7.28603C56.0748 7.1562 55.9711 7.06425 55.851 7.01556C55.731 6.96147 55.5563 6.93442 55.3325 6.93442H54.7158V11.4944H52.7728V1.13574H54.7158V5.47935Z" fill="#010709"/>
<path d="M70.8494 11.4998H69.092C68.7591 11.4998 68.5189 11.37 68.3715 11.1103L66.172 7.79449C66.0901 7.67008 65.9973 7.58353 65.8991 7.52944C65.8009 7.47535 65.6535 7.4483 65.4625 7.4483H64.6329V11.4998H62.6898V1.13574H65.8773C66.5868 1.13574 67.1926 1.20606 67.7057 1.35211C68.2133 1.49816 68.6335 1.70371 68.9555 1.96335C69.283 2.2284 69.5232 2.54214 69.676 2.90456C69.8288 3.27238 69.9052 3.67267 69.9052 4.11081C69.9052 4.46241 69.8506 4.78697 69.7524 5.1007C69.6487 5.40903 69.5013 5.69571 69.3049 5.94454C69.1084 6.19336 68.8682 6.42055 68.5789 6.60987C68.2897 6.7992 67.9677 6.95065 67.5965 7.06425C67.722 7.13457 67.8367 7.22111 67.9458 7.31848C68.0495 7.41585 68.1478 7.53485 68.2351 7.66467L70.8549 11.4944L70.8494 11.4998ZM65.8445 6.06354C66.2102 6.06354 66.5322 6.02027 66.8051 5.92831C67.078 5.83635 67.3018 5.71194 67.4764 5.54966C67.6511 5.38739 67.7821 5.19807 67.8694 4.9817C67.9567 4.75992 68.0004 4.52191 68.0004 4.25686C68.0004 3.73217 67.8257 3.32648 67.4764 3.0452C67.1271 2.76392 66.5923 2.62328 65.8773 2.62328H64.6329V6.06354H65.85H65.8445Z" fill="#010709"/>
<path d="M80.9466 11.4998H79.4402C79.271 11.4998 79.1346 11.4565 79.0254 11.3754C78.9217 11.2943 78.8399 11.1861 78.7853 11.0617L78.0048 8.94666H73.6712L72.8907 11.0617C72.8525 11.1698 72.7761 11.2726 72.6669 11.3646C72.5578 11.4565 72.4159 11.4998 72.2521 11.4998H70.7348L74.8501 1.13574H76.8313L80.9412 11.4998H80.9466ZM77.5081 7.58353L76.2364 4.13786C76.1709 3.9864 76.1109 3.80249 76.0399 3.59153C75.9744 3.38057 75.9035 3.15338 75.838 2.90997C75.7725 3.15338 75.7125 3.38057 75.6415 3.59153C75.576 3.80249 75.5105 3.99181 75.445 4.14868L74.1788 7.58353H77.5081Z" fill="#010709"/>
<path d="M86.0116 7.81613C86.0116 8.40032 85.9406 8.92502 85.7933 9.39021C85.6514 9.86081 85.433 10.2557 85.1438 10.5856C84.86 10.9156 84.4997 11.1698 84.0686 11.3429C83.6428 11.5214 83.1407 11.608 82.5731 11.608C82.3111 11.608 82.06 11.5918 81.809 11.5593C81.5579 11.5269 81.2959 11.4782 81.023 11.4133C81.0394 11.2239 81.0558 11.0292 81.0721 10.8399C81.094 10.6506 81.1104 10.4558 81.1213 10.2665C81.1376 10.1637 81.1758 10.0772 81.2468 10.0123C81.3178 9.94736 81.416 9.9149 81.547 9.9149C81.6289 9.9149 81.738 9.93113 81.869 9.96359C82 9.99604 82.1692 10.0123 82.3711 10.0123C82.644 10.0123 82.8896 9.97441 83.1025 9.89327C83.3154 9.81213 83.49 9.68772 83.6319 9.51462C83.7738 9.34153 83.883 9.11975 83.9539 8.84388C84.0249 8.56801 84.0631 8.23805 84.0631 7.84317V1.13574H86.0061V7.81613H86.0116Z" fill="#010709"/>
<path d="M98.2155 6.31764C98.2155 7.07493 98.09 7.77813 97.8335 8.42723C97.5824 9.07634 97.2222 9.63349 96.7582 10.1095C96.2943 10.5801 95.7376 10.9533 95.0881 11.2184C94.4386 11.4834 93.7127 11.6187 92.9159 11.6187C92.119 11.6187 91.404 11.4834 90.7545 11.2184C90.105 10.9533 89.5483 10.5855 89.0789 10.1095C88.615 9.6389 88.2548 9.07634 87.9983 8.42723C87.7417 7.77813 87.6162 7.07493 87.6162 6.31764C87.6162 5.56035 87.7417 4.85715 87.9983 4.20804C88.2548 3.55893 88.615 3.00179 89.0789 2.52577C89.5429 2.05517 90.0996 1.68194 90.7545 1.41688C91.404 1.15183 92.1245 1.0166 92.9159 1.0166C93.4453 1.0166 93.9474 1.0761 94.4113 1.20052C94.8807 1.31952 95.3064 1.49261 95.6994 1.71439C96.0924 1.93617 96.4417 2.20663 96.7528 2.52577C97.0639 2.84492 97.3259 3.19652 97.5442 3.59139C97.7625 3.98085 97.9263 4.40818 98.0409 4.86797C98.1555 5.32775 98.2101 5.80917 98.2101 6.31764H98.2155ZM96.2234 6.31764C96.2234 5.74967 96.147 5.2412 95.9941 4.78683C95.8413 4.33786 95.623 3.95381 95.3337 3.63466C95.0499 3.32093 94.7061 3.07751 94.2967 2.90983C93.8874 2.74214 93.4289 2.661 92.9213 2.661C92.4137 2.661 91.9498 2.74214 91.5459 2.90983C91.1366 3.07751 90.7927 3.32093 90.5035 3.63466C90.2197 3.9484 89.9959 4.33245 89.843 4.78683C89.6902 5.2412 89.6138 5.74967 89.6138 6.31764C89.6138 6.8856 89.6902 7.39407 89.843 7.84845C89.9959 8.30282 90.2197 8.68146 90.5035 8.9952C90.7927 9.30893 91.1366 9.54694 91.5459 9.71463C91.9553 9.88231 92.4137 9.96345 92.9213 9.96345C93.4289 9.96345 93.8928 9.88231 94.2967 9.71463C94.7061 9.54694 95.0499 9.30893 95.3337 8.9952C95.6175 8.68146 95.8359 8.29741 95.9941 7.84845C96.147 7.39948 96.2234 6.8856 96.2234 6.31764Z" fill="#010709"/>
<path d="M113.623 1.13627L110.376 11.5003H108.618L106.331 4.41966C106.266 4.24657 106.211 4.03561 106.157 3.78679C106.13 3.90579 106.097 4.01938 106.069 4.12216C106.042 4.22493 106.009 4.32771 105.977 4.41426L103.668 11.4949H101.905L98.6631 1.13086H100.29C100.459 1.13086 100.601 1.16872 100.715 1.24986C100.83 1.331 100.906 1.43378 100.944 1.56901L102.724 7.76797C102.762 7.91943 102.8 8.08712 102.838 8.26562C102.877 8.44412 102.909 8.63345 102.948 8.82818C102.986 8.62804 103.029 8.43871 103.073 8.26021C103.117 8.08171 103.166 7.91943 103.22 7.76797L105.273 1.56901C105.311 1.46082 105.387 1.35805 105.502 1.26609C105.616 1.17413 105.753 1.13086 105.917 1.13086H106.49C106.659 1.13086 106.795 1.16872 106.905 1.25527C107.008 1.33641 107.09 1.43918 107.145 1.56901L109.191 7.76797C109.295 8.06548 109.382 8.40626 109.464 8.79572C109.53 8.41708 109.595 8.0763 109.672 7.76797L111.451 1.56901C111.478 1.45 111.555 1.34723 111.669 1.26068C111.789 1.17413 111.931 1.13086 112.095 1.13086H113.618L113.623 1.13627Z" fill="#010709"/>
<path d="M119.403 7.48617V11.4998H117.466V7.48617L113.656 1.13574H115.37C115.539 1.13574 115.67 1.17361 115.768 1.26015C115.866 1.34129 115.948 1.44407 116.019 1.56848L117.93 5.03038C118.039 5.23593 118.137 5.43066 118.224 5.60917C118.312 5.79308 118.383 5.97158 118.454 6.1555C118.519 5.97158 118.59 5.79308 118.672 5.60917C118.754 5.42525 118.846 5.23593 118.956 5.03038L120.855 1.56848C120.91 1.4657 120.986 1.36293 121.095 1.27638C121.199 1.18443 121.335 1.14115 121.499 1.14115H123.218L119.409 7.49157L119.403 7.48617Z" fill="#010709"/>
<path d="M56.173 16.4708C56.8716 16.4708 57.4775 16.5519 57.9905 16.7142C58.5036 16.8765 58.9238 17.1037 59.2568 17.3958C59.5897 17.6879 59.8353 18.034 59.999 18.4397C60.1628 18.8454 60.2392 19.289 60.2392 19.7704C60.2392 20.2518 60.1573 20.7332 59.9881 21.1498C59.8189 21.5663 59.5679 21.9287 59.2295 22.2262C58.8911 22.5291 58.4708 22.7617 57.9578 22.9294C57.4502 23.0971 56.8553 23.1782 56.173 23.1782H54.7212V26.824H52.7782V16.46H56.1785L56.173 16.4708ZM56.173 21.6799C56.5278 21.6799 56.8389 21.6366 57.1063 21.5446C57.3738 21.4581 57.5921 21.3283 57.7667 21.166C57.9414 21.0037 58.0724 20.7982 58.1597 20.5656C58.247 20.3276 58.2907 20.0625 58.2907 19.7758C58.2907 19.4891 58.247 19.2457 58.1597 19.0239C58.0724 18.8022 57.9414 18.6074 57.7667 18.4506C57.5921 18.2937 57.3738 18.1747 57.1063 18.0881C56.8389 18.007 56.5278 17.9637 56.1676 17.9637H54.7158V21.6853H56.1676L56.173 21.6799Z" fill="#010709"/>
<path d="M67.8476 25.2445V26.8348H61.7238V16.4707H63.6668V25.2445H67.8476Z" fill="#010709"/>
<path d="M78.1958 26.8348H76.6894C76.5202 26.8348 76.3838 26.7915 76.2746 26.7104C76.1709 26.6292 76.089 26.521 76.0345 26.3966L75.254 24.2816H70.9204L70.1399 26.3966C70.1017 26.5048 70.0253 26.6076 69.9161 26.6995C69.807 26.7915 69.6705 26.8348 69.5013 26.8348H67.984L72.0993 16.4707H74.0805L78.1849 26.8348H78.1958ZM74.7628 22.9185L73.4911 19.4728C73.431 19.3214 73.3655 19.1374 73.2946 18.9265C73.2291 18.7155 73.1581 18.4883 73.0926 18.2449C73.0271 18.4883 72.9671 18.7155 72.8961 18.9265C72.8307 19.1374 72.7652 19.3268 72.6997 19.4836L71.4334 22.9185H74.7573H74.7628Z" fill="#010709"/>
<path d="M88.0965 16.4707V26.8348H87.0977C86.9449 26.8348 86.8139 26.8077 86.7102 26.759C86.6065 26.7104 86.5082 26.6238 86.41 26.5048L80.9521 19.5972C80.9793 19.911 80.9957 20.2031 80.9957 20.4735V26.8402H79.2819V16.4761H80.3026C80.3844 16.4761 80.4554 16.4761 80.5154 16.4869C80.5755 16.4923 80.63 16.5086 80.6737 16.5302C80.7174 16.5518 80.7665 16.5843 80.8101 16.6222C80.8538 16.66 80.9029 16.7141 80.9521 16.7844L86.4318 23.7245C86.4154 23.5568 86.4045 23.3945 86.3936 23.2322C86.3827 23.07 86.3772 22.9185 86.3772 22.7779V16.4761H88.091L88.0965 16.4707Z" fill="#010709"/>
<path d="M63.4048 36.9827C63.4048 37.74 63.2793 38.4432 63.0228 39.0923C62.7717 39.7414 62.4115 40.2985 61.9475 40.7745C61.4836 41.2451 60.9269 41.6184 60.2774 41.8834C59.6279 42.1485 58.902 42.2837 58.1052 42.2837C57.3083 42.2837 56.5933 42.1485 55.9438 41.8834C55.2943 41.6184 54.7376 41.2505 54.2682 40.7745C53.8043 40.3039 53.4441 39.7414 53.1876 39.0923C52.931 38.4432 52.8055 37.74 52.8055 36.9827C52.8055 36.2254 52.931 35.5222 53.1876 34.8731C53.4441 34.224 53.8043 33.6668 54.2682 33.1908C54.7322 32.7202 55.2889 32.347 55.9438 32.0819C56.5933 31.8169 57.3138 31.6816 58.1052 31.6816C58.6346 31.6816 59.1367 31.7411 59.6006 31.8656C60.07 31.99 60.4957 32.1577 60.8887 32.3794C61.2817 32.6012 61.631 32.8717 61.9421 33.1908C62.2532 33.51 62.5152 33.8616 62.7335 34.2564C62.9518 34.6459 63.1155 35.0732 63.2302 35.533C63.3448 35.9928 63.3994 36.4742 63.3994 36.9827H63.4048ZM61.4181 36.9827C61.4181 36.4147 61.3417 35.9062 61.1889 35.4519C61.0361 35.0029 60.8178 34.6188 60.5285 34.2997C60.2447 33.986 59.8954 33.7426 59.4915 33.5749C59.0821 33.4072 58.6237 33.326 58.1161 33.326C57.6085 33.326 57.1446 33.4072 56.7407 33.5749C56.3313 33.7426 55.9875 33.986 55.6982 34.2997C55.4089 34.6134 55.1906 34.9975 55.0378 35.4519C54.885 35.9062 54.8086 36.4147 54.8086 36.9827C54.8086 37.5506 54.885 38.0591 55.0378 38.5135C55.1906 38.9679 55.4144 39.3465 55.6982 39.6602C55.9875 39.974 56.3313 40.212 56.7407 40.3797C57.15 40.5474 57.6085 40.6285 58.1161 40.6285C58.6237 40.6285 59.0876 40.5474 59.4915 40.3797C59.9008 40.212 60.2447 39.974 60.5285 39.6602C60.8123 39.3465 61.0306 38.9624 61.1889 38.5135C61.3417 38.0645 61.4181 37.5506 61.4181 36.9827Z" fill="#010709"/>
<path d="M74.4025 36.9824C74.4025 37.7397 74.277 38.4374 74.0205 39.0757C73.764 39.714 73.4037 40.2603 72.9453 40.7147C72.4813 41.1745 71.9246 41.5315 71.2751 41.7803C70.6256 42.0346 69.8997 42.159 69.1083 42.159H65.1241V31.7949H69.1083C69.9052 31.7949 70.6256 31.9247 71.2751 32.179C71.9246 32.4332 72.4813 32.7902 72.9453 33.2446C73.4092 33.699 73.7694 34.2453 74.0205 34.8836C74.277 35.5165 74.4025 36.2143 74.4025 36.977V36.9824ZM72.4104 36.9824C72.4104 36.4144 72.334 35.9059 72.1812 35.4516C72.0283 35.0026 71.81 34.6185 71.5207 34.3048C71.2315 33.9911 70.8876 33.7531 70.4783 33.5854C70.0689 33.4177 69.6105 33.3366 69.1029 33.3366H67.0725V40.6336H69.1029C69.6159 40.6336 70.0744 40.5525 70.4783 40.3848C70.8876 40.2171 71.2315 39.9791 71.5207 39.6653C71.81 39.3516 72.0283 38.9675 72.1812 38.5186C72.334 38.0696 72.4104 37.5557 72.4104 36.9878V36.9824Z" fill="#010709"/>
<path d="M79.7186 31.8009C80.4008 31.8009 80.9903 31.8658 81.476 31.9956C81.9618 32.1254 82.3602 32.3093 82.6713 32.5473C82.9824 32.7853 83.2117 33.0774 83.3536 33.4128C83.4955 33.7536 83.5719 34.1322 83.5719 34.5596C83.5719 34.803 83.5337 35.0356 83.4627 35.2573C83.3918 35.4791 83.2772 35.6847 83.1243 35.8794C82.9715 36.0741 82.7805 36.2472 82.5458 36.4041C82.3111 36.561 82.0327 36.6962 81.7107 36.8044C83.1462 37.1235 83.8666 37.8916 83.8666 39.1141C83.8666 39.5523 83.7793 39.958 83.6155 40.3312C83.4463 40.7044 83.2007 41.0236 82.8787 41.294C82.5567 41.5645 82.1583 41.7755 81.6834 41.9269C81.2086 42.0784 80.6683 42.1541 80.0624 42.1541H76.1163V31.79H79.7186V31.8009ZM78.0648 33.2938V36.2905H79.6094C80.2753 36.2905 80.7774 36.1715 81.1158 35.9335C81.4542 35.6955 81.6234 35.3168 81.6234 34.7922C81.6234 34.2675 81.4706 33.8672 81.1595 33.64C80.8484 33.4128 80.3681 33.2938 79.7131 33.2938H78.0594H78.0648ZM80.0297 40.6612C80.3899 40.6612 80.6956 40.6179 80.9412 40.5313C81.1868 40.4448 81.3833 40.3312 81.5306 40.1851C81.678 40.0391 81.7817 39.8768 81.8472 39.6821C81.9127 39.4928 81.9454 39.2872 81.9454 39.0708C81.9454 38.8545 81.9072 38.6435 81.8363 38.465C81.7653 38.2865 81.6507 38.1351 81.4979 38.0052C81.345 37.8808 81.1431 37.7835 80.9029 37.7131C80.6573 37.6482 80.3681 37.6104 80.0242 37.6104H78.0648V40.6503H80.0297V40.6612Z" fill="#010709"/>
<path d="M89.8485 40.6119C90.2251 40.6119 90.5635 40.5524 90.8582 40.428C91.153 40.3035 91.404 40.1305 91.606 39.9033C91.8079 39.6815 91.9662 39.4056 92.0753 39.0865C92.1845 38.7673 92.2391 38.4103 92.2391 38.01V31.8057H94.1821V38.01C94.1821 38.6267 94.0839 39.1947 93.8819 39.7194C93.68 40.244 93.3962 40.693 93.0196 41.0717C92.6484 41.4503 92.19 41.7478 91.6551 41.9588C91.1202 42.1697 90.5198 42.2779 89.8485 42.2779C89.1772 42.2779 88.5659 42.1697 88.031 41.9588C87.4961 41.7478 87.0431 41.4503 86.6665 41.0717C86.2954 40.693 86.0061 40.2386 85.8042 39.7194C85.6022 39.1947 85.504 38.6267 85.504 38.01V31.8057H87.447V38.0046C87.447 38.3995 87.5016 38.7619 87.6108 39.0811C87.7199 39.4002 87.8782 39.6761 88.0801 39.9033C88.2875 40.1305 88.5331 40.3035 88.8333 40.428C89.1281 40.5524 89.4665 40.6119 89.8431 40.6119H89.8485Z" fill="#010709"/>
<path d="M105.666 36.9824C105.666 37.7397 105.54 38.4374 105.284 39.0757C105.027 39.7086 104.667 40.2603 104.208 40.7147C103.744 41.1745 103.188 41.5315 102.538 41.7803C101.889 42.0346 101.163 42.159 100.371 42.159H96.3871V31.7949H100.371C101.168 31.7949 101.889 31.9247 102.538 32.179C103.188 32.4332 103.744 32.7902 104.208 33.2446C104.672 33.699 105.032 34.2453 105.284 34.8836C105.54 35.5165 105.666 36.2143 105.666 36.977V36.9824ZM103.668 36.9824C103.668 36.4144 103.592 35.9059 103.439 35.4516C103.286 35.0026 103.068 34.6185 102.778 34.3048C102.489 33.9911 102.145 33.7531 101.736 33.5854C101.327 33.4177 100.868 33.3366 100.36 33.3366H98.3301V40.6336H100.36C100.874 40.6336 101.332 40.5525 101.736 40.3848C102.145 40.2171 102.489 39.9791 102.778 39.6653C103.062 39.3516 103.286 38.9675 103.439 38.5186C103.592 38.0696 103.668 37.5557 103.668 36.9878V36.9824Z" fill="#010709"/>
<path d="M117.351 36.9827C117.351 37.74 117.226 38.4432 116.969 39.0923C116.718 39.7414 116.358 40.2985 115.894 40.7745C115.43 41.2451 114.873 41.6184 114.224 41.8834C113.574 42.1485 112.848 42.2837 112.057 42.2837C111.265 42.2837 110.545 42.1485 109.895 41.8834C109.246 41.6184 108.684 41.2505 108.22 40.7745C107.756 40.3039 107.396 39.7414 107.139 39.0923C106.883 38.4432 106.757 37.74 106.757 36.9827C106.757 36.2254 106.883 35.5222 107.139 34.8731C107.396 34.224 107.756 33.6668 108.22 33.1908C108.684 32.7202 109.241 32.347 109.895 32.0819C110.545 31.8169 111.265 31.6816 112.057 31.6816C112.586 31.6816 113.088 31.7411 113.552 31.8656C114.022 31.99 114.447 32.1577 114.84 32.3794C115.228 32.6012 115.583 32.8717 115.894 33.1908C116.205 33.51 116.467 33.8616 116.685 34.2564C116.903 34.6459 117.067 35.0732 117.182 35.533C117.296 35.9928 117.351 36.4742 117.351 36.9827ZM115.364 36.9827C115.364 36.4147 115.288 35.9062 115.135 35.4519C114.982 35.0029 114.764 34.6188 114.475 34.2997C114.191 33.986 113.842 33.7426 113.438 33.5749C113.028 33.4072 112.57 33.326 112.062 33.326C111.555 33.326 111.091 33.4072 110.687 33.5749C110.278 33.7426 109.934 33.986 109.644 34.2997C109.355 34.6134 109.137 34.9975 108.984 35.4519C108.831 35.9062 108.755 36.4147 108.755 36.9827C108.755 37.5506 108.831 38.0591 108.984 38.5135C109.137 38.9679 109.361 39.3465 109.644 39.6602C109.928 39.974 110.278 40.212 110.687 40.3797C111.096 40.5474 111.555 40.6285 112.062 40.6285C112.57 40.6285 113.034 40.5474 113.438 40.3797C113.847 40.212 114.191 39.974 114.475 39.6602C114.759 39.3465 114.977 38.9624 115.135 38.5135C115.288 38.0645 115.364 37.5506 115.364 36.9827Z" fill="#010709"/>
<path d="M132.759 31.8009L129.511 42.1649H127.754L125.467 35.0843C125.401 34.9112 125.347 34.7002 125.292 34.4514C125.265 34.5704 125.232 34.684 125.205 34.7867C125.178 34.8895 125.145 34.9923 125.112 35.0788L122.804 42.1595H121.041L117.799 31.7954H119.425C119.594 31.7954 119.736 31.8333 119.845 31.9145C119.96 31.9956 120.036 32.0984 120.075 32.2336L121.854 38.4326C121.892 38.584 121.93 38.7517 121.963 38.9302C122.001 39.1087 122.034 39.298 122.078 39.4928C122.116 39.2926 122.159 39.1033 122.203 38.9248C122.247 38.7463 122.296 38.584 122.35 38.4326L124.403 32.2336C124.441 32.1254 124.517 32.0226 124.632 31.9307C124.747 31.8387 124.883 31.7954 125.047 31.7954H125.62C125.789 31.7954 125.925 31.8333 126.035 31.9145C126.138 31.9956 126.22 32.0984 126.275 32.2282L128.321 38.4272C128.425 38.7247 128.513 39.0654 128.594 39.4549C128.654 39.0763 128.725 38.7355 128.802 38.4272L130.581 32.2282C130.608 32.1092 130.685 32.0064 130.805 31.9199C130.925 31.8333 131.061 31.79 131.225 31.79H132.753L132.759 31.8009Z" fill="#010709"/>
<path d="M138.539 38.1512V42.1648H136.601V38.1512L132.792 31.8008H134.505C134.675 31.8008 134.806 31.8386 134.909 31.9198C135.007 32.0009 135.089 32.1037 135.16 32.2281L137.071 35.69C137.18 35.8956 137.278 36.0903 137.365 36.2688C137.447 36.4527 137.524 36.6312 137.595 36.8151C137.66 36.6312 137.731 36.4527 137.813 36.2688C137.895 36.0849 137.987 35.8956 138.097 35.69L140.001 32.2281C140.056 32.1253 140.132 32.0226 140.242 31.936C140.345 31.8441 140.482 31.8008 140.646 31.8008H142.365L138.555 38.1512H138.539Z" fill="#010709"/>
<path d="M24.3206 11.3916L0 18.6562V23.7625L24.3206 18.6021V22.8754L41.1747 26.1534V23.2919L24.3206 18.1369V11.3916Z" fill="#C01422"/>
<path d="M24.3206 23.1084L0 26.3918V31.7307L24.3206 30.3243V34.5543L41.1747 33.4887V30.6597L24.3206 30.0863V23.1084Z" fill="#C01422"/>
<path d="M24.3206 35.0245L0 34.3213V38.7244L24.3206 42.235V45.9998L41.1747 40.2119V37.4424L24.3206 41.5859V35.0245Z" fill="#C01422"/>
<path d="M24.3206 6.50729V0L0 10.31V16.1195L24.3206 7.21049V10.9212L41.1747 18.1858V15.4163L24.3206 6.50729Z" fill="#C01422"/>
</g>
<defs>
<clipPath id="clip0_408_1994">
<rect width="574" height="46" fill="white"/>
</clipPath>
</defs>
</svg>
