<svg width="71" height="28" viewBox="0 0 71 28" fill="none" xmlns="http://www.w3.org/2000/svg">
<path fill-rule="evenodd" clip-rule="evenodd" d="M29.122 14.0139C29.1551 14.2525 29.188 14.4943 29.188 14.7395C29.188 14.9979 29.1551 15.253 29.122 15.5048C28.8569 17.4496 27.3989 18.6488 25.5436 19.4075C20.3421 21.5113 7.65325 26.302 5.69854 26.302C5.53289 26.302 5.3671 26.2954 5.23458 26.2821C3.51179 26.1562 2.25295 25.3512 1.39155 23.8669C0.463894 22.2435 0 19.1954 0 14.7228C0 14.4843 0 14.2491 0 14.0171C0.0662613 9.93213 0.563092 7.15249 1.52388 5.67818C2.55093 4.12104 4.04181 3.34253 5.99652 3.34253C6.59287 3.34253 7.22242 3.39221 7.88503 3.49492C9.40904 3.73346 22.562 9.26287 25.4113 10.0149C25.7095 10.0944 25.9744 10.2005 26.2725 10.3297C27.7966 10.9725 28.8901 12.3706 29.122 14.0139Z" fill="#939598"/>
<path d="M29.4724 25.1687C29.4724 24.3724 29.7378 23.7089 30.3129 23.1339C30.8879 22.5589 31.5514 22.2935 32.3034 22.2935C33.0996 22.2935 33.7631 22.5589 34.3381 23.1339C34.9132 23.7089 35.1786 24.3724 35.1786 25.1687C35.1786 25.9206 34.9132 26.5841 34.3381 27.1592C33.7631 27.7342 33.0996 27.9996 32.3034 27.9996C31.5514 27.9996 30.8879 27.7342 30.3129 27.1592C29.7378 26.5841 29.4724 25.9206 29.4724 25.1687Z" fill="#010709" fill-opacity="0.7"/>
<path d="M41.4598 5.52922V0H45.1755V5.52922H49.4219V8.49289H45.1755V21.3649C45.1755 22.4708 45.3082 23.2227 45.5294 23.6208C45.7505 24.019 46.3698 24.1959 47.4314 24.1959H49.4219V27.4692H46.6352C45.5736 27.4692 44.7331 27.3807 44.0696 27.248C43.4061 27.1153 42.8753 26.8499 42.4772 26.4076C42.0791 26.0095 41.8137 25.4787 41.681 24.7709C41.5483 24.0632 41.4598 23.1343 41.4598 21.9842V8.49289H37.7442V5.52922H41.4598Z" fill="#010709" fill-opacity="0.7"/>
<path d="M51.1908 5.5293H55.2161L60.9665 22.6035L66.6726 5.5293H70.6979L62.8685 27.4693H59.0202L51.1908 5.5293Z" fill="#010709" fill-opacity="0.7"/>
</svg>
