<svg width="131" height="45" viewBox="0 0 131 45" fill="none" xmlns="http://www.w3.org/2000/svg">
<path d="M30.4338 21.8359C30.4338 23.4473 31.2023 24.2528 32.7393 24.2528C33.6317 24.2528 34.7968 23.9494 36.2346 23.3418C37.6724 22.7345 38.4285 22.4307 38.5029 22.4307C38.9739 22.4307 39.5937 23.1375 40.3622 24.5502C41.1307 25.9633 41.5149 27.0044 41.5149 27.6739C41.5149 28.6407 40.5233 29.3719 38.5401 29.868C36.5569 30.3636 34.6171 30.6117 32.7206 30.6117C30.8242 30.6117 29.2377 30.4628 27.9609 30.1654C26.6843 29.868 25.643 29.4899 24.8374 29.0312C24.0317 28.5725 23.3252 28.0086 22.7178 27.3391C22.1105 26.6701 21.658 26.0316 21.3606 25.4243C21.0631 24.8167 20.8276 24.1412 20.6541 23.3975C20.4061 22.3071 20.2822 21.1789 20.2822 20.0138C20.2822 15.5019 21.4598 12.3909 23.8148 10.6803C24.9799 9.81271 26.2814 9.20536 27.7192 8.85828C29.157 8.51124 30.8552 8.3377 32.8136 8.3377C39.0855 8.3377 42.2214 10.5192 42.2214 14.8822C42.2214 19.5181 38.7013 21.8359 31.6608 21.8359H30.4338ZM30.3594 16.4069V18.8611C31.0783 18.8611 31.6671 18.5758 32.1257 18.0059C32.5843 17.4356 32.8136 16.7416 32.8136 15.9233C32.8136 14.436 32.4293 13.6923 31.6608 13.6923C30.7932 13.6923 30.3594 14.5973 30.3594 16.4069Z" fill="black"/>
<path d="M51.9798 0.0282681C52.4484 -0.0149746 52.9137 0.141118 53.2615 0.458279C53.6092 0.775405 53.8074 1.22432 53.8074 1.69501C53.811 9.29909 53.811 29.3472 53.811 29.3472C53.811 29.6201 53.1044 29.8368 51.6914 29.9982C50.2783 30.1591 48.8219 30.2398 47.3222 30.2398C45.8223 30.2398 44.8555 30.1716 44.4217 30.0355C43.9879 29.899 43.771 29.6695 43.771 29.3472C43.771 29.3472 43.771 26.866 43.771 3.22031C43.7709 2.6423 44.1061 2.11671 44.6302 1.87292C46.0607 1.25502 48.8556 0.328551 51.9798 0.0282681Z" fill="black"/>
<path d="M62.3015 30.5744C60.0455 30.5744 58.2727 30.0414 56.9841 28.9754C56.4631 28.5291 56.0109 27.8721 55.6267 27.0044C55.2424 26.1371 55.0503 25.1205 55.0503 23.9554C55.0503 22.7903 55.3288 21.7741 55.8867 20.9064C56.4446 20.0387 57.12 19.3693 57.9137 18.8981C58.7064 18.4273 59.636 18.0428 60.7024 17.7454C62.3141 17.324 64.0859 17.1133 66.0197 17.1133H67.2472C67.2472 16.0971 66.8998 15.3779 66.206 14.9565C65.9081 14.7831 65.456 14.6964 64.8486 14.6964C64.2411 14.6964 63.5095 14.8574 62.6547 15.1796C61.7998 15.5019 61.0866 15.8306 60.5161 16.165C59.9465 16.4997 59.5623 16.667 59.3634 16.667C58.917 16.667 58.3106 16.0783 57.5421 14.9007C56.7736 13.7232 56.3893 12.6512 56.3893 11.6843C56.3893 11.3621 56.8473 10.9406 57.7652 10.4201C58.6822 9.89948 59.9776 9.42225 61.6504 8.98844C63.3242 8.55462 64.9543 8.3377 66.5408 8.3377C68.1273 8.3377 69.4964 8.46785 70.6491 8.72813C71.8018 8.98844 72.744 9.3045 73.4756 9.67634C74.2073 10.0482 74.8263 10.544 75.3348 11.1638C75.8432 11.7835 76.2275 12.3413 76.4875 12.8371C76.7475 13.3329 76.9397 13.9776 77.0639 14.7707C77.2376 15.6878 77.3239 16.8159 77.3239 18.1544V29.3471C77.3239 29.62 76.6612 29.8367 75.3348 29.998C74.0083 30.159 72.6945 30.2396 71.3933 30.2396C70.0921 30.2396 69.2489 30.2023 68.8647 30.1281C68.4805 30.0538 68.2515 29.9671 68.1767 29.868C68.102 29.7688 68.0399 29.5951 67.9904 29.3471L67.6935 27.2276H67.3956C66.7756 29.459 65.0776 30.5744 62.3015 30.5744ZM67.284 24.4017V20.0511C66.6398 20.0511 66.1187 20.3237 65.7228 20.8691C65.326 21.4145 65.127 22.0342 65.127 22.7285C65.127 24.3644 65.4996 25.1823 66.2429 25.1823C66.565 25.1823 66.8193 25.102 67.0056 24.9407C67.1909 24.7798 67.284 24.6 67.284 24.4017Z" fill="black"/>
<path fill-rule="evenodd" clip-rule="evenodd" d="M95.6814 26.6319C95.6938 26.7472 95.6939 26.86 95.6939 26.9716C95.6939 28.3102 94.9998 29.246 93.6116 29.7778C92.2853 30.2872 91.2193 30.6318 89.7814 30.6814C88.7031 30.7185 86.0134 30.6702 83.8318 29.6092C83.2493 29.3229 82.6047 28.9275 81.923 28.3821C81.2412 27.8367 80.6712 27.1922 80.2249 26.4485C79.1837 24.6636 78.6631 22.3334 78.6631 19.4577C78.6631 19.3635 78.6756 19.2693 78.6756 19.1751C78.7003 17.5042 78.9854 16.0057 79.5184 14.6794C80.0886 13.2788 80.7827 12.1942 81.6007 11.4257C82.4188 10.6572 83.3608 10.0251 84.4268 9.5293C86.0133 8.79676 88.827 8.3369 90.4135 8.34681C92.0125 8.35673 93.1405 8.65419 94.0329 9.01117C95.0989 9.43136 95.6691 10.1292 95.7311 11.101C95.7311 11.1593 95.7311 11.2187 95.7311 11.2782C95.7311 12.3454 95.6443 13.5155 95.2601 14.7178C95.1237 15.1442 95.0493 15.5471 94.8757 15.8471C93.4999 15.3091 92.2976 14.843 92.0249 14.7997C91.7398 14.7563 91.4796 14.7352 91.2317 14.7352C90.4136 14.7352 89.7814 15.0624 89.3476 15.7169C88.9262 16.3713 88.7031 17.6393 88.7031 19.5184C88.7031 21.3987 88.9014 22.6804 89.2856 23.3621C89.6451 23.9856 90.1781 24.324 90.897 24.3785C90.9714 24.3834 91.0334 24.3859 91.1077 24.3859C91.5168 24.3859 93.0537 23.884 94.7518 23.2717C94.851 23.4749 94.9378 23.7216 95.037 23.9968C95.4212 24.9698 95.6318 25.8473 95.6814 26.6319Z" fill="#00AEEF"/>
<path d="M118.278 21.8359C118.278 23.4473 119.046 24.2528 120.583 24.2528C121.475 24.2528 122.64 23.9494 124.078 23.3418C125.516 22.7345 126.272 22.4307 126.347 22.4307C126.818 22.4307 127.438 23.1375 128.206 24.5502C128.975 25.9633 129.359 27.0044 129.359 27.6739C129.359 28.6407 128.367 29.3719 126.384 29.868C124.401 30.3636 122.461 30.6117 120.564 30.6117C118.668 30.6117 117.082 30.4628 115.805 30.1654C114.528 29.868 113.486 29.4899 112.681 29.0312C111.876 28.5725 111.169 28.0086 110.562 27.3391C109.955 26.6701 109.502 26.0316 109.204 25.4243C108.907 24.8167 108.672 24.1412 108.498 23.3975C108.25 22.3071 108.125 21.1789 108.125 20.0138C108.125 15.5019 109.303 12.3909 111.658 10.6803C112.824 9.81271 114.125 9.20536 115.563 8.85828C117.001 8.51124 118.699 8.3377 120.657 8.3377C126.929 8.3377 130.065 10.5192 130.065 14.8822C130.065 19.5181 126.545 21.8359 119.504 21.8359H118.278ZM118.203 16.4069V18.8611C118.922 18.8611 119.511 18.5758 119.969 18.0059C120.428 17.4356 120.657 16.7416 120.657 15.9233C120.657 14.436 120.273 13.6923 119.504 13.6923C118.637 13.6923 118.203 14.5973 118.203 16.4069Z" fill="black"/>
<path fill-rule="evenodd" clip-rule="evenodd" d="M96.7971 16.5992C96.8219 14.5503 96.8715 12.5002 96.9335 10.4488C96.9335 9.90346 97.6276 9.36424 99.0282 8.83126C100.429 8.29827 101.954 8.03182 103.59 8.03182C105.87 8.03182 107.011 8.61434 107.011 9.77947V25.6575C107.011 28.7066 106.316 34.7059 104.941 36.218C103.565 37.7302 101.681 38.4863 99.2761 38.4863C96.8715 38.4863 95.3222 38.257 94.6404 37.7984C93.9587 37.3398 93.624 36.311 93.624 34.7121C93.624 33.1131 93.9339 32.2764 94.5536 32.2021C95.4213 32.0781 96.0782 31.8922 96.3881 31.5327C97.1566 30.6774 97.169 29.6177 96.9335 26.0293C96.8839 24.8555 96.8467 23.6817 96.8219 22.5067C97.8383 22.1224 98.7804 21.7543 99.4373 21.4891C100.231 21.1693 100.838 20.6648 100.949 19.8479C100.962 19.7426 100.974 19.6348 100.974 19.5257C100.974 18.7064 100.479 17.9813 99.7472 17.6726C99.6233 17.6181 99.5117 17.5747 99.3877 17.5412C98.9539 17.4247 97.9374 17.0429 96.7971 16.5992Z" fill="black"/>
<path d="M107.196 3.23511C107.196 5.54058 105.461 6.6933 101.991 6.6933C98.52 6.6933 96.7847 5.56538 96.7847 3.30949C96.7847 2.0452 97.2433 1.17755 98.1729 0.706539C99.1026 0.235529 100.404 0 102.065 0C103.726 0 104.99 0.216913 105.87 0.650738C106.75 1.08456 107.196 1.94603 107.196 3.23511Z" fill="black"/>
<path fill-rule="evenodd" clip-rule="evenodd" d="M10.0541 20.7246V29.3292C10.0541 29.6019 9.34761 29.8188 7.94697 29.9799C6.54634 30.1411 5.09617 30.2216 3.59637 30.2216C2.09657 30.2216 1.12969 30.1534 0.671072 30.0171C0.237246 29.8807 0.0141602 29.6515 0.0141602 29.3292V10.997C0.0141602 10.526 0.695959 10.0178 2.07181 9.47237C3.44765 8.92699 4.94743 8.65429 6.57117 8.65429C8.19492 8.65429 9.09971 9.10055 9.31043 9.99299L9.68228 11.7035H9.94265C10.2773 10.7615 11.1201 9.96196 12.434 9.30503C13.7479 8.64809 15.0493 8.31966 16.3756 8.31966C17.6895 8.31966 18.6067 8.53039 19.1397 8.95182C19.6726 9.37325 19.9453 9.91241 19.9453 10.5693C19.9453 11.2263 19.8835 12.0629 19.7967 13.0793C19.6975 14.0957 19.4496 15.1989 19.0653 16.3888C18.6811 17.5787 18.1853 18.1737 17.5656 18.1737C17.4788 18.1737 17.3673 18.1563 17.1937 18.1229C15.4584 17.4411 13.6983 16.7446 13.3513 16.6913C13.0786 16.6479 12.8182 16.6255 12.5703 16.6255C11.9877 16.6255 11.5044 16.7879 11.1202 17.1127C10.959 17.249 10.8103 17.4138 10.6863 17.6072C10.3021 18.1798 10.0913 19.2186 10.0541 20.7246Z" fill="black"/>
<path d="M0 43.8099C0 43.4753 0.111555 43.1964 0.353258 42.9547C0.594961 42.713 0.873849 42.6014 1.18992 42.6014C1.52459 42.6014 1.80348 42.713 2.04518 42.9547C2.28688 43.1964 2.39844 43.4753 2.39844 43.8099C2.39844 44.126 2.28688 44.4049 2.04518 44.6466C1.80348 44.8883 1.52459 44.9999 1.18992 44.9999C0.873849 44.9999 0.594961 44.8883 0.353258 44.6466C0.111555 44.4049 0 44.126 0 43.8099Z" fill="#00AEEF"/>
<path d="M10.04 39.0876C10.0586 38.3067 9.90987 37.7117 9.57521 37.2841C9.24054 36.8565 8.70136 36.652 7.95766 36.652C7.39988 36.652 6.93507 36.7821 6.6004 37.0238C6.24714 37.2841 6.00544 37.6374 5.91248 38.0836L4.40648 37.6374C4.64819 36.9309 5.09441 36.3731 5.74515 35.9826C6.37729 35.5922 7.1024 35.4063 7.93906 35.4063C9.22195 35.4063 10.1516 35.7038 10.7279 36.2987C11.3043 36.8937 11.5832 37.8419 11.6018 39.1434L11.6204 41.3001C11.639 42.081 11.6576 42.7503 11.7319 43.2895C11.7877 43.8473 11.8435 44.3493 11.9365 44.7769H10.5048L10.133 43.5126C9.8541 43.9774 9.46365 44.3493 8.96165 44.6096C8.45966 44.8699 7.80892 45 6.99085 45C6.56322 45 6.15418 44.9442 5.76374 44.8327C5.3733 44.7025 5.03863 44.5352 4.75974 44.2935C4.46226 44.0704 4.23915 43.7915 4.07182 43.4568C3.90449 43.1408 3.81152 42.7689 3.81152 42.3413C3.81152 41.8021 3.96026 41.3373 4.25774 40.9654C4.55522 40.5936 4.96426 40.2775 5.52204 40.0358C6.06122 39.7941 6.71196 39.6082 7.47425 39.4594C8.23655 39.3293 9.0918 39.1991 10.04 39.0876ZM5.54063 42.3041C5.54063 42.7317 5.68937 43.085 6.02403 43.3453C6.32151 43.6242 6.76774 43.7543 7.32551 43.7543C7.67877 43.7543 8.03203 43.7171 8.38529 43.6056C8.71995 43.5126 9.01743 43.3639 9.29632 43.1408C9.55662 42.9362 9.76113 42.6388 9.92847 42.2669C10.0958 41.9136 10.1702 41.4488 10.1702 40.9097V40.3333C9.46365 40.4077 8.83151 40.482 8.25514 40.575C7.67877 40.668 7.19536 40.7981 6.80492 40.9468C6.39588 41.0956 6.07981 41.2815 5.87529 41.486C5.65218 41.7091 5.54063 41.988 5.54063 42.3041Z" fill="black"/>
<path d="M13.7212 35.555H16.5658V44.7768H15.0041V36.8007H13.7212V35.555ZM14.6322 32.6359C14.6322 32.3199 14.7438 32.041 14.9669 31.8179C15.19 31.5948 15.4689 31.4832 15.785 31.4832C16.101 31.4832 16.3799 31.5948 16.6216 31.8179C16.8447 32.041 16.9563 32.3199 16.9563 32.6359C16.9563 32.952 16.8447 33.2309 16.6216 33.454C16.3799 33.6957 16.101 33.8073 15.785 33.8073C15.4689 33.8073 15.19 33.6957 14.9669 33.454C14.7438 33.2309 14.6322 32.952 14.6322 32.6359Z" fill="black"/>
</svg>
