<svg width="131" height="45" viewBox="0 0 131 45" fill="none" xmlns="http://www.w3.org/2000/svg">
<g id="relacje logo">
<g id="Group 31">
<g id="Group">
<path id="Vector" d="M30.4337 21.8361C30.4337 23.4475 31.2022 24.253 32.7391 24.253C33.6315 24.253 34.7967 23.9496 36.2345 23.342C37.6723 22.7347 38.4284 22.4309 38.5028 22.4309C38.9738 22.4309 39.5935 23.1376 40.362 24.5504C41.1305 25.9635 41.5148 27.0046 41.5148 27.674C41.5148 28.6409 40.5232 29.3721 38.54 29.8682C36.5567 30.3638 34.617 30.6119 32.7205 30.6119C30.8241 30.6119 29.2376 30.463 27.9608 30.1656C26.6842 29.8682 25.6429 29.4901 24.8373 29.0314C24.0316 28.5727 23.3251 28.0088 22.7177 27.3393C22.1104 26.6703 21.6579 26.0317 21.3605 25.4245C21.063 24.8169 20.8275 24.1414 20.6539 23.3977C20.406 22.3073 20.2821 21.1791 20.2821 20.014C20.2821 15.5021 21.4597 12.3911 23.8146 10.6805C24.9798 9.81291 26.2813 9.20555 27.7191 8.85847C29.1569 8.51143 30.8551 8.33789 32.8135 8.33789C39.0854 8.33789 42.2213 10.5194 42.2213 14.8824C42.2213 19.5183 38.7011 21.8361 31.6607 21.8361H30.4337ZM30.3592 16.4071V18.8613C31.0781 18.8613 31.6669 18.576 32.1256 18.0061C32.5842 17.4358 32.8135 16.7418 32.8135 15.9235C32.8135 14.4361 32.4292 13.6925 31.6607 13.6925C30.7931 13.6925 30.3592 14.5975 30.3592 16.4071Z" fill="white"/>
</g>
<g id="Group_2">
<path id="Vector_2" d="M51.9795 0.0280813C52.4481 -0.0151614 52.9134 0.140931 53.2612 0.458092C53.6089 0.775218 53.8071 1.22413 53.8071 1.69483C53.8107 9.29891 53.8107 29.347 53.8107 29.347C53.8107 29.6199 53.1041 29.8367 51.6911 29.998C50.278 30.1589 48.8216 30.2396 47.3219 30.2396C45.822 30.2396 44.8552 30.1714 44.4214 30.0353C43.9876 29.8988 43.7707 29.6693 43.7707 29.347C43.7707 29.347 43.7707 26.8658 43.7707 3.22012C43.7706 2.64212 44.1057 2.11652 44.6299 1.87274C46.0604 1.25483 48.8553 0.328364 51.9795 0.0280813Z" fill="white"/>
</g>
<g id="Group_3">
<path id="Vector_3" d="M62.3014 30.5745C60.0454 30.5745 58.2726 30.0416 56.984 28.9756C56.463 28.5293 56.0108 27.8723 55.6265 27.0046C55.2423 26.1373 55.0502 25.1207 55.0502 23.9556C55.0502 22.7905 55.3287 21.7743 55.8866 20.9066C56.4445 20.0389 57.1199 19.3695 57.9136 18.8983C58.7063 18.4275 59.6359 18.043 60.7023 17.7456C62.314 17.3242 64.0858 17.1135 66.0196 17.1135H67.2471C67.2471 16.0973 66.8997 15.3781 66.2059 14.9567C65.908 14.7833 65.4559 14.6966 64.8484 14.6966C64.241 14.6966 63.5094 14.8576 62.6546 15.1798C61.7997 15.5021 61.0865 15.8308 60.516 16.1652C59.9464 16.4999 59.5621 16.6672 59.3632 16.6672C58.9169 16.6672 58.3104 16.0785 57.5419 14.9009C56.7735 13.7234 56.3892 12.6514 56.3892 11.6845C56.3892 11.3623 56.8472 10.9408 57.7651 10.4203C58.6821 9.89967 59.9774 9.42244 61.6503 8.98863C63.3241 8.55482 64.9542 8.33789 66.5407 8.33789C68.1271 8.33789 69.4962 8.46804 70.649 8.72832C71.8017 8.98863 72.7439 9.30469 73.4755 9.67653C74.2071 10.0484 74.8262 10.5442 75.3346 11.1639C75.8431 11.7837 76.2273 12.3415 76.4874 12.8373C76.7474 13.3331 76.9396 13.9778 77.0638 14.7709C77.2374 15.688 77.3238 16.8161 77.3238 18.1546V29.3473C77.3238 29.6201 76.6611 29.8369 75.3346 29.9982C74.0082 30.1592 72.6944 30.2398 71.3932 30.2398C70.092 30.2398 69.2488 30.2025 68.8646 30.1283C68.4803 30.054 68.2513 29.9673 68.1766 29.8682C68.1019 29.769 68.0398 29.5953 67.9903 29.3473L67.6934 27.2278H67.3955C66.7755 29.4592 65.0774 30.5745 62.3014 30.5745ZM67.2839 24.4019V20.0513C66.6396 20.0513 66.1186 20.3238 65.7227 20.8693C65.3258 21.4147 65.1269 22.0344 65.1269 22.7287C65.1269 24.3646 65.4995 25.1825 66.2428 25.1825C66.5649 25.1825 66.8191 25.1022 67.0054 24.9409C67.1908 24.7799 67.2839 24.6002 67.2839 24.4019Z" fill="white"/>
</g>
<g id="Group_4">
<path id="Vector_4" fill-rule="evenodd" clip-rule="evenodd" d="M95.6813 26.6319C95.6937 26.7472 95.6938 26.86 95.6938 26.9716C95.6938 28.3103 94.9997 29.246 93.6114 29.7778C92.2852 30.2872 91.2191 30.6318 89.7813 30.6814C88.703 30.7186 86.0132 30.6702 83.8317 29.6092C83.2491 29.3229 82.6046 28.9275 81.9228 28.3821C81.2411 27.8368 80.671 27.1922 80.2248 26.4485C79.1836 24.6636 78.663 22.3334 78.663 19.4577C78.663 19.3635 78.6754 19.2693 78.6754 19.1751C78.7002 17.5042 78.9853 16.0057 79.5183 14.6794C80.0884 13.2788 80.7825 12.1942 81.6006 11.4257C82.4187 10.6572 83.3607 10.0251 84.4266 9.52932C86.0132 8.79678 88.8269 8.33692 90.4134 8.34684C92.0124 8.35675 93.1403 8.65422 94.0328 9.01119C95.0988 9.43138 95.669 10.1293 95.7309 11.101C95.7309 11.1593 95.7309 11.2187 95.7309 11.2782C95.7309 12.3455 95.6442 13.5155 95.2599 14.7179C95.1236 15.1442 95.0492 15.5471 94.8756 15.8471C93.4998 15.3091 92.2975 14.8431 92.0248 14.7997C91.7397 14.7563 91.4795 14.7352 91.2316 14.7352C90.4135 14.7352 89.7813 15.0624 89.3475 15.7169C88.9261 16.3714 88.7029 17.6394 88.7029 19.5184C88.7029 21.3988 88.9013 22.6804 89.2855 23.3622C89.645 23.9856 90.178 24.324 90.8969 24.3785C90.9712 24.3835 91.0332 24.386 91.1076 24.386C91.5166 24.386 93.0536 23.884 94.7517 23.2717C94.8508 23.475 94.9377 23.7216 95.0369 23.9968C95.4211 24.9698 95.6317 25.8473 95.6813 26.6319Z" fill="#00AEEF"/>
</g>
<g id="Group_5">
<path id="Vector_5" d="M118.278 21.8361C118.278 23.4475 119.046 24.253 120.583 24.253C121.475 24.253 122.64 23.9496 124.078 23.342C125.516 22.7347 126.272 22.4309 126.347 22.4309C126.817 22.4309 127.437 23.1376 128.206 24.5504C128.974 25.9635 129.359 27.0046 129.359 27.674C129.359 28.6409 128.367 29.3721 126.384 29.8682C124.4 30.3638 122.461 30.6119 120.564 30.6119C118.668 30.6119 117.081 30.463 115.804 30.1656C114.527 29.8682 113.486 29.4901 112.681 29.0314C111.875 28.5727 111.169 28.0088 110.562 27.3393C109.954 26.6703 109.502 26.0317 109.204 25.4245C108.906 24.8169 108.671 24.1414 108.498 23.3977C108.249 22.3073 108.125 21.1791 108.125 20.014C108.125 15.5021 109.303 12.3911 111.658 10.6805C112.823 9.81291 114.125 9.20555 115.563 8.85847C117.001 8.51143 118.699 8.33789 120.657 8.33789C126.929 8.33789 130.065 10.5194 130.065 14.8824C130.065 19.5183 126.545 21.8361 119.504 21.8361H118.278ZM118.203 16.4071V18.8613C118.922 18.8613 119.511 18.576 119.969 18.0061C120.428 17.4358 120.657 16.7418 120.657 15.9235C120.657 14.4361 120.273 13.6925 119.504 13.6925C118.637 13.6925 118.203 14.5975 118.203 16.4071Z" fill="white"/>
</g>
<g id="Group_6">
<path id="Vector_6" fill-rule="evenodd" clip-rule="evenodd" d="M96.7967 16.5991C96.8215 14.5502 96.8712 12.5001 96.9332 10.4488C96.9332 9.90338 97.6272 9.36416 99.0278 8.83118C100.428 8.29819 101.953 8.03174 103.589 8.03174C105.87 8.03174 107.01 8.61426 107.01 9.77939V25.6574C107.01 28.7066 106.316 34.7058 104.94 36.218C103.564 37.7302 101.68 38.4862 99.2757 38.4862C96.8711 38.4862 95.3218 38.2569 94.6401 37.7983C93.9583 37.3397 93.6237 36.3109 93.6237 34.712C93.6237 33.113 93.9335 32.2764 94.5533 32.202C95.4209 32.078 96.0778 31.8921 96.3877 31.5326C97.1562 30.6774 97.1687 29.6176 96.9332 26.0292C96.8836 24.8554 96.8463 23.6816 96.8215 22.5066C97.8379 22.1224 98.78 21.7542 99.437 21.489C100.23 21.1692 100.838 20.6647 100.949 19.8478C100.961 19.7425 100.974 19.6347 100.974 19.5256C100.974 18.7063 100.478 17.9812 99.7468 17.6725C99.6229 17.618 99.5113 17.5746 99.3873 17.5412C98.9535 17.4246 97.9371 17.0429 96.7967 16.5991Z" fill="white"/>
</g>
<g id="Group_7">
<path id="Vector_7" d="M107.196 3.23511C107.196 5.54058 105.461 6.6933 101.99 6.6933C98.5198 6.6933 96.7845 5.56538 96.7845 3.30949C96.7845 2.0452 97.2432 1.17755 98.1728 0.706539C99.1024 0.235529 100.404 0 102.065 0C103.726 0 104.99 0.216913 105.87 0.650738C106.75 1.08456 107.196 1.94603 107.196 3.23511Z" fill="white"/>
</g>
<g id="Group_8">
<path id="Vector_8" fill-rule="evenodd" clip-rule="evenodd" d="M10.0539 20.7248V29.3294C10.0539 29.602 9.34737 29.819 7.94673 29.9801C6.54609 30.1412 5.09592 30.2218 3.59613 30.2218C2.09633 30.2218 1.12944 30.1536 0.670828 30.0173C0.237002 29.8809 0.013916 29.6516 0.013916 29.3294V10.9972C0.013916 10.5261 0.695715 10.0179 2.07156 9.47254C3.44741 8.92716 4.94718 8.65445 6.57093 8.65445C8.19468 8.65445 9.09947 9.10071 9.31018 9.99315L9.68203 11.7036H9.9424C10.2771 10.7616 11.1199 9.96213 12.4338 9.30519C13.7476 8.64826 15.0491 8.31982 16.3753 8.31982C17.6892 8.31982 18.6064 8.53055 19.1394 8.95198C19.6724 9.37341 19.9451 9.91257 19.9451 10.5695C19.9451 11.2264 19.8832 12.0631 19.7964 13.0795C19.6973 14.0959 19.4493 15.1991 19.0651 16.389C18.6808 17.5789 18.1851 18.1739 17.5653 18.1739C17.4786 18.1739 17.367 18.1565 17.1935 18.123C15.4582 17.4413 13.6981 16.7447 13.351 16.6914C13.0783 16.648 12.8179 16.6257 12.57 16.6257C11.9875 16.6257 11.5042 16.7881 11.1199 17.1128C10.9588 17.2492 10.8101 17.414 10.6861 17.6074C10.3019 18.18 10.0911 19.2188 10.0539 20.7248Z" fill="white"/>
</g>
</g>
<g id="Group_9">
<g id="Group_10">
<path id="Vector_9" d="M-6.10352e-05 43.8101C-6.10352e-05 43.4754 0.111494 43.1965 0.353197 42.9548C0.5949 42.7131 0.873788 42.6016 1.18986 42.6016C1.52453 42.6016 1.80341 42.7131 2.04512 42.9548C2.28682 43.1965 2.39838 43.4754 2.39838 43.8101C2.39838 44.1261 2.28682 44.405 2.04512 44.6467C1.80341 44.8884 1.52453 45 1.18986 45C0.873788 45 0.5949 44.8884 0.353197 44.6467C0.111494 44.405 -6.10352e-05 44.1261 -6.10352e-05 43.8101Z" fill="#00AEEF"/>
</g>
<g id="Group_11">
<path id="Vector_10" d="M10.0398 39.0876C10.0584 38.3067 9.90963 37.7117 9.57496 37.2841C9.2403 36.8565 8.70111 36.6519 7.95741 36.6519C7.39964 36.6519 6.93482 36.7821 6.60016 37.0238C6.2469 37.2841 6.0052 37.6374 5.91224 38.0836L4.40624 37.6374C4.64794 36.9308 5.09416 36.3731 5.7449 35.9826C6.37705 35.5922 7.10216 35.4062 7.93882 35.4062C9.2217 35.4062 10.1513 35.7037 10.7277 36.2987C11.3041 36.8937 11.583 37.8419 11.6015 39.1433L11.6201 41.3001C11.6387 42.081 11.6573 42.7503 11.7317 43.2895C11.7875 43.8472 11.8433 44.3492 11.9362 44.7769H10.5046L10.1327 43.5126C9.85385 43.9774 9.46341 44.3492 8.96141 44.6095C8.45941 44.8698 7.80867 45 6.9906 45C6.56297 45 6.15394 44.9442 5.76349 44.8326C5.37305 44.7025 5.03839 44.5352 4.7595 44.2935C4.46202 44.0704 4.23891 43.7915 4.07157 43.4568C3.90424 43.1407 3.81128 42.7689 3.81128 42.3413C3.81128 41.8021 3.96002 41.3373 4.2575 40.9654C4.55498 40.5936 4.96402 40.2775 5.52179 40.0358C6.06098 39.7941 6.71171 39.6082 7.47401 39.4594C8.2363 39.3293 9.09156 39.1991 10.0398 39.0876ZM5.54038 42.3041C5.54038 42.7317 5.68912 43.085 6.02379 43.3452C6.32127 43.6241 6.76749 43.7543 7.32527 43.7543C7.67853 43.7543 8.03178 43.7171 8.38504 43.6055C8.71971 43.5126 9.01719 43.3638 9.29608 43.1407C9.55637 42.9362 9.76089 42.6387 9.92822 42.2669C10.0956 41.9136 10.1699 41.4488 10.1699 40.9096V40.3333C9.46341 40.4076 8.83126 40.482 8.25489 40.575C7.67853 40.6679 7.19512 40.7981 6.80468 40.9468C6.39564 41.0956 6.07957 41.2815 5.87505 41.486C5.65194 41.7091 5.54038 41.988 5.54038 42.3041Z" fill="white"/>
</g>
<g id="Group_12">
<path id="Vector_11" d="M13.7212 35.5552H16.5658V44.777H15.0041V36.8009H13.7212V35.5552ZM14.6322 32.6361C14.6322 32.3201 14.7438 32.0412 14.9669 31.8181C15.19 31.595 15.4689 31.4834 15.785 31.4834C16.101 31.4834 16.3799 31.595 16.6216 31.8181C16.8447 32.0412 16.9563 32.3201 16.9563 32.6361C16.9563 32.9522 16.8447 33.2311 16.6216 33.4542C16.3799 33.6959 16.101 33.8075 15.785 33.8075C15.4689 33.8075 15.19 33.6959 14.9669 33.4542C14.7438 33.2311 14.6322 32.9522 14.6322 32.6361Z" fill="white"/>
</g>
</g>
</g>
</svg>
