<svg width="89" height="28" viewBox="0 0 89 28" fill="none" xmlns="http://www.w3.org/2000/svg">
<path fill-rule="evenodd" clip-rule="evenodd" d="M25.3565 15.8216C25.3853 16.0293 25.4139 16.2398 25.4139 16.4533C25.4139 16.6783 25.3853 16.9005 25.3565 17.1197C25.1257 18.813 23.8562 19.8572 22.2408 20.5178C17.7118 22.3496 6.66367 26.5208 4.96171 26.5208C4.81748 26.5208 4.67313 26.5151 4.55774 26.5035C3.05771 26.3939 1.96164 25.6929 1.21162 24.4006C0.403912 22.9871 0 20.3331 0 16.4388C0 16.2311 0 16.0263 0 15.8244C0.0576936 12.2676 0.490283 9.84736 1.32684 8.56368C2.22109 7.20787 3.5192 6.53003 5.22116 6.53003C5.7404 6.53003 6.28855 6.57329 6.86549 6.66271C8.19244 6.87041 19.6447 11.6849 22.1256 12.3397C22.3852 12.4089 22.6159 12.5013 22.8755 12.6138C24.2024 13.1734 25.1545 14.3908 25.3565 15.8216Z" fill="#00A650"/>
<path d="M25.6615 25.5349C25.6615 24.8417 25.8926 24.264 26.3933 23.7633C26.894 23.2626 27.4717 23.0315 28.1264 23.0315C28.8197 23.0315 29.3974 23.2626 29.8981 23.7633C30.3988 24.264 30.6298 24.8417 30.6298 25.5349C30.6298 26.1897 30.3988 26.7674 29.8981 27.2681C29.3974 27.7688 28.8197 27.9998 28.1264 27.9998C27.4717 27.9998 26.894 27.7688 26.3933 27.2681C25.8926 26.7674 25.6615 26.1897 25.6615 25.5349Z" fill="#005C35"/>
<path d="M34.7895 22.7621V1.84888H38.0247V22.2229C38.0247 23.1858 38.1402 23.8405 38.3328 24.1872C38.5254 24.5338 39.1031 24.6879 39.9889 24.6879H40.7207V27.5379H39.2957C38.3713 27.5379 37.601 27.4609 37.0618 27.3453C36.4841 27.2298 36.0219 26.9987 35.6753 26.6136C35.3287 26.2669 35.0976 25.8048 34.9821 25.1885C34.8665 24.5723 34.7895 23.7635 34.7895 22.7621Z" fill="#010709" fill-opacity="0.7"/>
<path d="M43.0314 8.43463H48.9241V27.5377H45.6889V11.0151H43.0314V8.43463ZM44.9186 2.38789C44.9186 1.73314 45.1497 1.15543 45.6119 0.693255C46.0741 0.231084 46.6518 0 47.3065 0C47.9613 0 48.539 0.231084 49.0397 0.693255C49.5018 1.15543 49.7329 1.73314 49.7329 2.38789C49.7329 3.04263 49.5018 3.62034 49.0397 4.08251C48.539 4.5832 47.9613 4.81429 47.3065 4.81429C46.6518 4.81429 46.0741 4.5832 45.6119 4.08251C45.1497 3.62034 44.9186 3.04263 44.9186 2.38789Z" fill="#010709" fill-opacity="0.7"/>
<path d="M52.0054 8.43481H55.5102L60.5171 23.3013L65.4855 8.43481H68.9903L62.1732 27.5379H58.8225L52.0054 8.43481Z" fill="#010709" fill-opacity="0.7"/>
<path d="M79.7357 8.12671C81.2378 8.12671 82.5858 8.43482 83.7412 9.01254C84.8966 9.62877 85.8595 10.4376 86.6298 11.4389C87.3615 12.4403 87.9392 13.5957 88.2859 14.8667C88.6325 16.1762 88.7481 17.5242 88.6325 18.8722H73.92C73.9585 20.0661 74.1896 21.106 74.6133 21.8763C74.9984 22.6851 75.4991 23.3399 76.0768 23.802C76.6545 24.3027 77.2708 24.6493 77.9255 24.8419C78.5803 25.0345 79.235 25.15 79.8127 25.15C80.8911 25.15 81.8155 24.996 82.5472 24.6493C83.279 24.3027 83.8567 23.8405 84.2804 23.2628L87.4 24.1872C86.7068 25.3041 85.7054 26.2284 84.4344 26.9217C83.1635 27.6535 81.6229 28.0001 79.8127 28.0001C78.3107 28.0001 77.0012 27.7305 75.8457 27.2298C74.6518 26.7291 73.6889 25.9973 72.8801 25.1115C72.0713 24.2257 71.4936 23.1473 71.07 21.9533C70.6463 20.7594 70.4537 19.4499 70.4537 18.0249C70.4537 16.5228 70.6848 15.1363 71.1855 13.9039C71.6477 12.7099 72.3024 11.67 73.1497 10.7842C73.9585 9.93688 74.9599 9.28214 76.0768 8.81997C77.1937 8.3578 78.4262 8.12671 79.7357 8.12671ZM85.2047 16.2917C85.2047 15.637 85.0892 14.9437 84.8196 14.289C84.55 13.6343 84.2034 13.0565 83.7412 12.5559C83.2405 12.0552 82.6628 11.67 82.008 11.3619C81.3533 11.0538 80.583 10.8997 79.7357 10.8997C79.0039 10.8997 78.3107 11.0153 77.6559 11.2079C77.0012 11.4004 76.3849 11.7085 75.8843 12.1322C75.3836 12.5559 74.9599 13.1336 74.6133 13.7883C74.2281 14.4816 74.0356 15.3289 73.9585 16.2917H85.2047Z" fill="#010709" fill-opacity="0.7"/>
</svg>
