<svg width="75" height="13" viewBox="0 0 75 13" fill="none" xmlns="http://www.w3.org/2000/svg">
<g clip-path="url(#clip0_408_1962)">
<path fill-rule="evenodd" clip-rule="evenodd" d="M12.2519 7.41234C12.2652 7.50775 12.2783 7.60448 12.2783 7.70254C12.2783 7.8059 12.2652 7.90794 12.2519 8.00865C12.1459 8.78652 11.5626 9.26619 10.8203 9.56965C8.73933 10.4111 3.66283 12.3273 2.8808 12.3273C2.81452 12.3273 2.7482 12.3246 2.69518 12.3193C2.00593 12.269 1.5023 11.947 1.15768 11.3533C0.786545 10.704 0.600952 9.48482 0.600952 7.69587C0.600952 7.60046 0.600952 7.50639 0.600952 7.41363C0.627462 5.77973 0.826231 4.66794 1.21062 4.07825C1.62152 3.45543 2.21798 3.14404 3.00001 3.14404C3.2386 3.14404 3.49046 3.16392 3.75556 3.20499C4.36528 3.30041 9.62747 5.51203 10.7674 5.81284C10.8867 5.84465 10.9927 5.88708 11.112 5.93876C11.7217 6.19584 12.1592 6.75506 12.2519 7.41234Z" fill="#EC008C"/>
<path d="M12.392 11.8746C12.392 11.5562 12.4982 11.2908 12.7283 11.0608C12.9583 10.8308 13.2238 10.7246 13.5246 10.7246C13.8432 10.7246 14.1086 10.8308 14.3387 11.0608C14.5687 11.2908 14.6749 11.5562 14.6749 11.8746C14.6749 12.1754 14.5687 12.4408 14.3387 12.6708C14.1086 12.9008 13.8432 13.0069 13.5246 13.0069C13.2238 13.0069 12.9583 12.9008 12.7283 12.6708C12.4982 12.4408 12.392 12.1754 12.392 11.8746Z" fill="#690039"/>
<path d="M20.2672 3.87744C21.0636 3.87744 21.736 4.07206 22.3023 4.46129C22.8686 4.85053 23.2934 5.31053 23.5765 5.859L22.2139 6.35438C22.0192 6.00054 21.736 5.71746 21.3821 5.50515C21.0105 5.29284 20.6034 5.18668 20.161 5.18668C19.8248 5.18668 19.5062 5.25745 19.2054 5.3813C18.9045 5.50515 18.6391 5.69976 18.409 5.96515C18.179 6.23054 17.9843 6.56669 17.8427 6.97362C17.7012 7.38055 17.6304 7.87594 17.6304 8.4244C17.6304 8.97287 17.7012 9.45056 17.8427 9.85749C17.9843 10.2821 18.179 10.6183 18.409 10.8837C18.6391 11.149 18.9222 11.3613 19.2231 11.4852C19.5239 11.6267 19.8248 11.6975 20.161 11.6975C20.6388 11.6975 21.0636 11.5913 21.4175 11.3613C21.7714 11.149 22.0546 10.8837 22.2493 10.5475L23.6119 11.0429C23.2757 11.609 22.8156 12.069 22.1962 12.4406C21.5768 12.8298 20.8866 13.0067 20.1079 13.0067C19.4885 13.0067 18.9222 12.9006 18.409 12.6706C17.8958 12.4406 17.4711 12.1221 17.1172 11.7152C16.7632 11.3083 16.4978 10.8306 16.3031 10.2644C16.1084 9.71595 16.02 9.09671 16.02 8.44209C16.02 7.78747 16.1261 7.16824 16.3208 6.61977C16.5155 6.0713 16.7986 5.57592 17.1703 5.16899C17.5419 4.76206 17.9843 4.4436 18.5152 4.2136C19.0284 3.9836 19.6124 3.87744 20.2672 3.87744Z" fill="#010709" fill-opacity="0.7"/>
<path d="M24.8683 8.44209C24.8683 7.64593 24.9922 6.97362 25.24 6.38977C25.4877 5.80592 25.8063 5.32822 26.2133 4.95668C26.6203 4.58514 27.0627 4.31975 27.5759 4.14283C28.0715 3.9659 28.567 3.87744 29.0802 3.87744C29.5934 3.87744 30.0889 3.9659 30.6021 4.14283C31.0976 4.31975 31.54 4.58514 31.9471 4.95668C32.3541 5.32822 32.6726 5.80592 32.9204 6.38977C33.1682 6.97362 33.292 7.64593 33.292 8.44209C33.292 9.23825 33.1682 9.91057 32.9204 10.4944C32.6726 11.0783 32.3541 11.5383 31.9471 11.9098C31.54 12.2814 31.0976 12.5644 30.6021 12.7414C30.0889 12.9183 29.5934 13.0067 29.0802 13.0067C28.567 13.0067 28.0715 12.9183 27.5759 12.7414C27.0627 12.5644 26.6203 12.2814 26.2133 11.9098C25.8063 11.5383 25.4877 11.0783 25.24 10.4944C24.9922 9.91057 24.8683 9.23825 24.8683 8.44209ZM26.461 8.44209C26.461 9.00825 26.5318 9.48595 26.6911 9.89287C26.8504 10.3175 27.045 10.636 27.2928 10.9013C27.5405 11.1667 27.8237 11.379 28.1422 11.5029C28.4431 11.6267 28.7616 11.6975 29.0802 11.6975C29.3987 11.6975 29.7173 11.6267 30.0358 11.5029C30.3367 11.379 30.6198 11.1667 30.8676 10.9013C31.1153 10.636 31.31 10.3175 31.4693 9.89287C31.6285 9.48595 31.6993 9.00825 31.6993 8.44209C31.6993 7.87593 31.6285 7.38055 31.4693 6.97362C31.31 6.56669 31.1153 6.21284 30.8676 5.94746C30.6198 5.68207 30.3367 5.48745 30.0358 5.36361C29.7173 5.23976 29.3987 5.18668 29.0802 5.18668C28.7616 5.18668 28.4431 5.23976 28.1422 5.36361C27.8237 5.48745 27.5405 5.68207 27.2928 5.94746C27.045 6.21284 26.8504 6.56669 26.6911 6.97362C26.5318 7.38055 26.461 7.87593 26.461 8.44209Z" fill="#010709" fill-opacity="0.7"/>
<path d="M35.1678 4H36.6544V9.16619C36.6544 9.50235 36.6721 9.83851 36.7252 10.1393C36.7606 10.4401 36.849 10.7231 36.9729 10.9354C37.0968 11.1654 37.2915 11.3601 37.5392 11.4839C37.7693 11.6254 38.0878 11.6962 38.4949 11.6962C39.2027 11.6962 39.7513 11.4485 40.1407 10.9708C40.53 10.4931 40.7247 9.76774 40.7247 8.83004V4H42.2112V12.7931H41.0963L40.7247 11.5193C40.4769 11.9439 40.1407 12.2978 39.7159 12.5808C39.2912 12.8639 38.7072 13.0055 37.9816 13.0055C37.4684 13.0055 37.0437 12.917 36.6898 12.7578C36.3181 12.5985 36.035 12.3508 35.8049 12.0501C35.5749 11.7493 35.4156 11.3954 35.3271 10.9708C35.2209 10.5639 35.1678 10.1039 35.1678 9.60851V4Z" fill="#010709" fill-opacity="0.7"/>
<path d="M44.6888 4.01898H45.7683L46.2461 5.64669C46.5469 5.11591 46.9716 4.69129 47.4849 4.35514C47.9981 4.03667 48.6352 3.87744 49.3784 3.87744V5.41668C48.175 5.41668 47.3433 5.73515 46.8832 6.33669C46.4053 6.97362 46.1753 7.85824 46.1753 9.02594V12.7944H44.6888V4.01898Z" fill="#010709" fill-opacity="0.7"/>
<path d="M51.4489 10.2812C51.5728 10.7943 51.856 11.1659 52.3161 11.3959C52.7585 11.6259 53.2186 11.7497 53.6965 11.7497C53.9619 11.7497 54.2097 11.7143 54.4574 11.6613C54.7052 11.6082 54.9352 11.5197 55.1299 11.3959C55.3246 11.272 55.4661 11.1482 55.59 10.9713C55.7139 10.812 55.767 10.6351 55.767 10.4405C55.767 10.0336 55.6254 9.73278 55.36 9.53816C55.0768 9.34355 54.7229 9.18431 54.3158 9.06047C53.9088 8.95431 53.4664 8.86585 52.9886 8.77739C52.4931 8.68893 52.0506 8.56508 51.6436 8.38815C51.2366 8.22892 50.8826 7.98123 50.6172 7.64507C50.334 7.32661 50.1925 6.8843 50.1925 6.30044C50.1925 5.91121 50.2987 5.55736 50.4933 5.25659C50.6703 4.95582 50.9357 4.69043 51.2543 4.47812C51.5551 4.28351 51.9091 4.12427 52.3338 4.01812C52.7408 3.91196 53.1478 3.85889 53.5726 3.85889C54.2628 3.85889 54.9175 4.00043 55.5369 4.28351C56.1563 4.58428 56.5987 5.02659 56.8642 5.64582L55.4661 6.15891C55.3069 5.80506 55.0414 5.53967 54.6698 5.36275C54.2804 5.20351 53.8734 5.11505 53.4664 5.11505C53.024 5.11505 52.6169 5.22121 52.2453 5.41582C51.8737 5.61044 51.6967 5.91121 51.6967 6.28275C51.6967 6.6366 51.8383 6.90199 52.1214 7.06122C52.3869 7.22045 52.7408 7.36199 53.1478 7.45045C53.5549 7.55661 54.015 7.64507 54.4928 7.73353C54.9706 7.822 55.413 7.94584 55.8201 8.14046C56.2271 8.33508 56.581 8.60046 56.8642 8.93662C57.1296 9.27278 57.2712 9.76817 57.2712 10.3874C57.2712 10.7943 57.165 11.1659 56.9704 11.4843C56.7757 11.8205 56.5103 12.0859 56.174 12.3159C55.8378 12.5459 55.4484 12.7051 55.0237 12.829C54.599 12.9528 54.1566 13.0059 53.6965 13.0059C53.3248 13.0059 52.9355 12.9705 52.5639 12.882C52.1922 12.7936 51.8383 12.652 51.502 12.4751C51.1658 12.2982 50.8826 12.0682 50.6172 11.7851C50.3517 11.5197 50.1571 11.1836 50.0155 10.812L51.4489 10.2812Z" fill="#010709" fill-opacity="0.7"/>
<path d="M62.7395 3.87744C63.4297 3.87744 64.0491 4.01898 64.58 4.28437C65.1109 4.56745 65.5533 4.93899 65.9073 5.39899C66.2435 5.859 66.509 6.38977 66.6682 6.97362C66.8275 7.57516 66.8806 8.1944 66.8275 8.81363H60.0673C60.085 9.3621 60.1912 9.8398 60.3858 10.1936C60.5628 10.5652 60.7929 10.866 61.0583 11.0783C61.3238 11.3083 61.6069 11.4675 61.9078 11.556C62.2086 11.6444 62.5095 11.6975 62.7749 11.6975C63.2704 11.6975 63.6952 11.6267 64.0314 11.4675C64.3676 11.3083 64.6331 11.096 64.8278 10.8306L66.2612 11.2552C65.9427 11.7683 65.4825 12.1929 64.8985 12.5114C64.3145 12.8475 63.6067 13.0067 62.7749 13.0067C62.0847 13.0067 61.483 12.8829 60.9521 12.6529C60.4035 12.4229 59.9611 12.0867 59.5895 11.6798C59.2178 11.2729 58.9524 10.7775 58.7577 10.229C58.5631 9.68056 58.4746 9.07902 58.4746 8.4244C58.4746 7.7344 58.5808 7.09747 58.8108 6.53131C59.0232 5.98284 59.324 5.50515 59.7134 5.09822C60.085 4.70899 60.5451 4.40821 61.0583 4.19591C61.5715 3.9836 62.1378 3.87744 62.7395 3.87744ZM65.2525 7.62824C65.2525 7.32747 65.1994 7.009 65.0755 6.70823C64.9516 6.40746 64.7924 6.14207 64.58 5.91207C64.3499 5.68207 64.0845 5.50515 63.7836 5.36361C63.4828 5.22207 63.1289 5.1513 62.7395 5.1513C62.4033 5.1513 62.0847 5.20438 61.7839 5.29284C61.483 5.3813 61.1999 5.52284 60.9698 5.71746C60.7398 5.91207 60.5451 6.17746 60.3858 6.47823C60.2089 6.7967 60.1204 7.18593 60.085 7.62824H65.2525Z" fill="#010709" fill-opacity="0.7"/>
<path d="M69.3229 10.2812C69.4468 10.7943 69.7299 11.1659 70.19 11.3959C70.6325 11.6259 71.0926 11.7497 71.5704 11.7497C71.8358 11.7497 72.0836 11.7143 72.3314 11.6613C72.5791 11.6082 72.8092 11.5197 73.0038 11.3959C73.1985 11.272 73.3401 11.1482 73.464 10.9713C73.5878 10.812 73.6409 10.6351 73.6409 10.4405C73.6409 10.0336 73.4993 9.73278 73.2339 9.53816C72.9507 9.34355 72.5968 9.18431 72.1898 9.06047C71.7827 8.95431 71.3403 8.86585 70.8625 8.77739C70.367 8.68893 69.9246 8.56508 69.5175 8.38815C69.1105 8.22892 68.7566 7.98123 68.4911 7.64507C68.208 7.32661 68.0664 6.8843 68.0664 6.30044C68.0664 5.91121 68.1726 5.55736 68.3673 5.25659C68.5442 4.95582 68.8097 4.69043 69.1282 4.47812C69.4291 4.28351 69.783 4.12427 70.2077 4.01812C70.6148 3.91196 71.0218 3.85889 71.4465 3.85889C72.1367 3.85889 72.7915 4.00043 73.4109 4.28351C74.0303 4.58428 74.4727 5.02659 74.7381 5.64582L73.3401 6.15891C73.1808 5.80506 72.9153 5.53967 72.5437 5.36275C72.1544 5.20351 71.7474 5.11505 71.3403 5.11505C70.8979 5.11505 70.4909 5.22121 70.1192 5.41582C69.7476 5.61044 69.5706 5.91121 69.5706 6.28275C69.5706 6.6366 69.7122 6.90199 69.9954 7.06122C70.2608 7.22045 70.6148 7.36199 71.0218 7.45045C71.4288 7.55661 71.8889 7.64507 72.3667 7.73353C72.8446 7.822 73.287 7.94584 73.694 8.14046C74.101 8.33508 74.455 8.60046 74.7381 8.93662C75.0036 9.27278 75.1452 9.76817 75.1452 10.3874C75.1452 10.7943 75.039 11.1659 74.8443 11.4843C74.6496 11.8205 74.3842 12.0859 74.0479 12.3159C73.7117 12.5459 73.3224 12.7051 72.8977 12.829C72.4729 12.9528 72.0305 13.0059 71.5704 13.0059C71.1988 13.0059 70.8094 12.9705 70.4378 12.882C70.0662 12.7936 69.7122 12.652 69.376 12.4751C69.0397 12.2982 68.7566 12.0682 68.4911 11.7851C68.2257 11.5197 68.031 11.1836 67.8894 10.812L69.3229 10.2812Z" fill="#010709" fill-opacity="0.7"/>
</g>
<defs>
<clipPath id="clip0_408_1962">
<rect width="74" height="13" fill="white" transform="translate(0.800476 0.00341797)"/>
</clipPath>
</defs>
</svg>
