<svg width="123" height="28" viewBox="0 0 123 28" fill="none" xmlns="http://www.w3.org/2000/svg">
<path fill-rule="evenodd" clip-rule="evenodd" d="M25.3565 15.8213C25.3853 16.029 25.4139 16.2396 25.4139 16.4531C25.4139 16.6781 25.3853 16.9002 25.3565 17.1194C25.1257 18.8128 23.8562 19.8569 22.2408 20.5175C17.7118 22.3493 6.66367 26.5206 4.96171 26.5206C4.81747 26.5206 4.67313 26.5148 4.55774 26.5033C3.05771 26.3936 1.96164 25.6926 1.21162 24.4003C0.403912 22.9868 0 20.3329 0 16.4386C0 16.2309 0 16.0261 0 15.8242C0.0576936 12.2673 0.490283 9.84711 1.32684 8.56343C2.22109 7.20763 3.5192 6.52979 5.22116 6.52979C5.7404 6.52979 6.28855 6.57304 6.86548 6.66247C8.19244 6.87017 19.6447 11.6846 22.1256 12.3394C22.3852 12.4087 22.6158 12.501 22.8755 12.6135C24.2024 13.1732 25.1545 14.3905 25.3565 15.8213Z" fill="#FF0000"/>
<path d="M25.6615 25.5347C25.6615 24.8414 25.8926 24.2637 26.3933 23.763C26.894 23.2623 27.4717 23.0312 28.1264 23.0312C28.8197 23.0312 29.3974 23.2623 29.8981 23.763C30.3988 24.2637 30.6298 24.8414 30.6298 25.5347C30.6298 26.1894 30.3988 26.7671 29.8981 27.2678C29.3974 27.7685 28.8197 27.9996 28.1264 27.9996C27.4717 27.9996 26.894 27.7685 26.3933 27.2678C25.8926 26.7671 25.6615 26.1894 25.6615 25.5347Z" fill="#720E10"/>
<path d="M32.0933 8.43457H35.5981L40.605 23.3011L45.5733 8.43457H49.0781L42.2611 27.5377H38.9104L32.0933 8.43457Z" fill="#010709" fill-opacity="0.7"/>
<path d="M50.8113 8.43463H56.704V27.5377H53.4688V11.0151H50.8113V8.43463ZM52.6985 2.38788C52.6985 1.73314 52.9296 1.15543 53.3918 0.693255C53.854 0.231084 54.4317 0 55.0864 0C55.7412 0 56.3189 0.231084 56.8196 0.693255C57.2817 1.15543 57.5128 1.73314 57.5128 2.38788C57.5128 3.04263 57.2817 3.62034 56.8196 4.08251C56.3189 4.5832 55.7412 4.81429 55.0864 4.81429C54.4317 4.81429 53.854 4.5832 53.3918 4.08251C52.9296 3.62034 52.6985 3.04263 52.6985 2.38788Z" fill="#010709" fill-opacity="0.7"/>
<path d="M69.4523 8.12664C70.9543 8.12664 72.2253 8.43476 73.2652 9.01247C74.2666 9.6287 75.0754 10.4375 75.6531 11.4389V1.8103H78.8883V20.3357C78.8883 20.9904 78.9268 21.9148 78.9653 23.1472C79.0038 24.3797 79.1964 25.8432 79.543 27.5378H76.5004L75.6531 24.6493C75.0754 25.6892 74.2666 26.498 73.2652 27.0757C72.2253 27.6919 70.9543 28 69.4523 28C68.3739 28 67.334 27.7689 66.3326 27.3068C65.3312 26.8831 64.4454 26.2284 63.7136 25.381C62.9819 24.5337 62.3656 23.4938 61.942 22.2614C61.4798 21.0289 61.2487 19.6424 61.2487 18.0633C61.2487 16.4842 61.4798 15.0977 61.942 13.8653C62.3656 12.6328 62.9819 11.5929 63.7136 10.7456C64.4454 9.8983 65.3312 9.24356 66.3326 8.78139C67.334 8.35773 68.3739 8.12664 69.4523 8.12664ZM64.8691 18.0633C64.8691 20.3357 65.3698 22.1073 66.3711 23.3398C67.334 24.6108 68.6435 25.227 70.2996 25.227C71.9557 25.227 73.2652 24.6108 74.2666 23.3398C75.2294 22.1073 75.7301 20.3357 75.7301 18.0633C75.7301 15.791 75.2294 14.0193 74.2666 12.7484C73.2652 11.5159 71.9557 10.8997 70.2996 10.8997C68.6435 10.8997 67.334 11.5159 66.3711 12.7484C65.3698 14.0193 64.8691 15.791 64.8691 18.0633Z" fill="#010709" fill-opacity="0.7"/>
<path d="M92.2528 8.12671C93.7548 8.12671 95.1028 8.43482 96.2583 9.01254C97.4137 9.62877 98.3766 10.4376 99.1468 11.4389C99.8786 12.4403 100.456 13.5957 100.803 14.8667C101.15 16.1762 101.265 17.5242 101.15 18.8722H86.4371C86.4756 20.0661 86.7067 21.106 87.1304 21.8763C87.5155 22.6851 88.0162 23.3399 88.5939 23.802C89.1716 24.3027 89.7879 24.6493 90.4426 24.8419C91.0973 25.0345 91.7521 25.15 92.3298 25.15C93.4082 25.15 94.3326 24.996 95.0643 24.6493C95.7961 24.3027 96.3738 23.8405 96.7975 23.2628L99.9171 24.1872C99.2239 25.3041 98.2225 26.2284 96.9515 26.9217C95.6806 27.6535 94.14 28.0001 92.3298 28.0001C90.8277 28.0001 89.5183 27.7305 88.3628 27.2298C87.1689 26.7291 86.206 25.9973 85.3972 25.1115C84.5884 24.2257 84.0107 23.1473 83.5871 21.9533C83.1634 20.7594 82.9708 19.4499 82.9708 18.0249C82.9708 16.5228 83.2019 15.1363 83.7026 13.9039C84.1648 12.7099 84.8195 11.67 85.6668 10.7842C86.4756 9.93688 87.477 9.28214 88.5939 8.81997C89.7108 8.35779 90.9433 8.12671 92.2528 8.12671ZM97.7218 16.2917C97.7218 15.637 97.6063 14.9437 97.3367 14.289C97.0671 13.6343 96.7204 13.0565 96.2583 12.5559C95.7576 12.0552 95.1799 11.67 94.5251 11.3619C93.8704 11.0538 93.1001 10.8997 92.2528 10.8997C91.521 10.8997 90.8277 11.0153 90.173 11.2079C89.5183 11.4004 88.902 11.7085 88.4013 12.1322C87.9007 12.5559 87.477 13.1336 87.1304 13.7883C86.7452 14.4816 86.5527 15.3289 86.4756 16.2917H97.7218Z" fill="#010709" fill-opacity="0.7"/>
<path d="M103.73 18.0634C103.73 16.3303 104 14.8667 104.539 13.5957C105.078 12.3248 105.771 11.2849 106.657 10.4761C107.543 9.66728 108.506 9.08957 109.623 8.70442C110.701 8.31928 111.78 8.12671 112.896 8.12671C114.013 8.12671 115.092 8.31928 116.209 8.70442C117.287 9.08957 118.25 9.66728 119.136 10.4761C120.022 11.2849 120.715 12.3248 121.254 13.5957C121.793 14.8667 122.063 16.3303 122.063 18.0634C122.063 19.7965 121.793 21.2601 121.254 22.5311C120.715 23.802 120.022 24.8034 119.136 25.6122C118.25 26.421 117.287 27.0372 116.209 27.4224C115.092 27.8075 114.013 28.0001 112.896 28.0001C111.78 28.0001 110.701 27.8075 109.623 27.4224C108.506 27.0372 107.543 26.421 106.657 25.6122C105.771 24.8034 105.078 23.802 104.539 22.5311C104 21.2601 103.73 19.7965 103.73 18.0634ZM107.196 18.0634C107.196 19.2959 107.35 20.3357 107.697 21.2216C108.044 22.1459 108.467 22.8392 109.007 23.4169C109.546 23.9946 110.162 24.4568 110.855 24.7264C111.51 24.996 112.203 25.15 112.896 25.15C113.59 25.15 114.283 24.996 114.976 24.7264C115.631 24.4568 116.247 23.9946 116.786 23.4169C117.326 22.8392 117.749 22.1459 118.096 21.2216C118.443 20.3357 118.597 19.2959 118.597 18.0634C118.597 16.8309 118.443 15.7525 118.096 14.8667C117.749 13.9809 117.326 13.2106 116.786 12.6329C116.247 12.0552 115.631 11.6315 114.976 11.3619C114.283 11.0923 113.59 10.9768 112.896 10.9768C112.203 10.9768 111.51 11.0923 110.855 11.3619C110.162 11.6315 109.546 12.0552 109.007 12.6329C108.467 13.2106 108.044 13.9809 107.697 14.8667C107.35 15.7525 107.196 16.8309 107.196 18.0634Z" fill="#010709" fill-opacity="0.7"/>
</svg>
