<svg width="65" height="10" viewBox="0 0 65 10" fill="none" xmlns="http://www.w3.org/2000/svg">
<g id="relacje_courses-signetsmall-logotypeshort-black-fullcolor-flat">
<g id="Group">
<g id="Group_2">
<path id="Vector" fill-rule="evenodd" clip-rule="evenodd" d="M10.1713 4.4032C10.1828 4.48563 10.1941 4.56919 10.1941 4.65391C10.1941 4.7432 10.1828 4.83136 10.1713 4.91836C10.0797 5.59036 9.57578 6.00475 8.93454 6.26691C7.13676 6.99385 2.75117 8.64923 2.07558 8.64923C2.01832 8.64923 1.96103 8.64694 1.91522 8.64236C1.31978 8.59885 0.884695 8.32066 0.586974 7.8078C0.266352 7.24685 0.106018 6.19362 0.106018 4.64815C0.106018 4.56572 0.106018 4.48446 0.106018 4.40432C0.12892 2.99279 0.300637 2.03231 0.63271 1.52288C0.987685 0.984825 1.50297 0.71582 2.17857 0.71582C2.38468 0.71582 2.60227 0.732988 2.83129 0.768476C3.35802 0.850902 7.90403 2.76153 8.8888 3.0214C8.99186 3.04887 9.08342 3.08553 9.18648 3.13018C9.71322 3.35227 10.0912 3.83538 10.1713 4.4032Z" fill="#EC008C"/>
</g>
<g id="Group_3">
<g id="Group_4">
<path id="Vector_2" d="M10.2924 8.25765C10.2924 7.98253 10.3841 7.75326 10.5828 7.55457C10.7816 7.35587 11.0109 7.26416 11.2708 7.26416C11.546 7.26416 11.7753 7.35587 11.9741 7.55457C12.1728 7.75326 12.2646 7.98253 12.2646 8.25765C12.2646 8.51749 12.1728 8.74676 11.9741 8.94546C11.7753 9.14416 11.546 9.23586 11.2708 9.23586C11.0109 9.23586 10.7816 9.14416 10.5828 8.94546C10.3841 8.74676 10.2924 8.51749 10.2924 8.25765Z" fill="#690039"/>
</g>
<g id="Group_5">
<path id="Vector_3" d="M17.0957 1.34912C17.7837 1.34912 18.3646 1.51725 18.8538 1.85351C19.3431 2.18977 19.71 2.58717 19.9546 3.06099L18.7774 3.48895C18.6092 3.18326 18.3646 2.93871 18.0589 2.7553C17.7378 2.57188 17.3862 2.48018 17.004 2.48018C16.7135 2.48018 16.4383 2.54131 16.1784 2.64831C15.9185 2.7553 15.6892 2.92343 15.4904 3.15269C15.2917 3.38196 15.1235 3.67237 15.0012 4.02391C14.8789 4.37546 14.8177 4.80342 14.8177 5.27724C14.8177 5.75106 14.8789 6.16374 15.0012 6.51529C15.1235 6.88212 15.2917 7.17252 15.4904 7.40179C15.6892 7.63106 15.9338 7.81447 16.1937 7.92146C16.4536 8.04374 16.7135 8.10488 17.004 8.10488C17.4167 8.10488 17.7837 8.01317 18.0894 7.81447C18.3952 7.63106 18.6398 7.40179 18.808 7.11138L19.9852 7.53935C19.6947 8.02846 19.2972 8.42585 18.7621 8.74683C18.227 9.08309 17.6308 9.23593 16.9581 9.23593C16.423 9.23593 15.9338 9.14423 15.4904 8.94553C15.047 8.74683 14.6801 8.47171 14.3744 8.12016C14.0686 7.76862 13.8393 7.35594 13.6711 6.86683C13.5029 6.39301 13.4265 5.85805 13.4265 5.29253C13.4265 4.727 13.5182 4.19204 13.6864 3.71822C13.8546 3.2444 14.0992 2.81643 14.4202 2.46489C14.7413 2.11335 15.1235 1.83823 15.5821 1.63953C16.0255 1.44083 16.53 1.34912 17.0957 1.34912Z" fill="white" fill-opacity="0.7"/>
</g>
<g id="Group_6">
<path id="Vector_4" d="M21.0706 5.29253C21.0706 4.60472 21.1776 4.02391 21.3917 3.51952C21.6057 3.01513 21.8809 2.60245 22.2325 2.28148C22.5842 1.9605 22.9664 1.73123 23.4097 1.57839C23.8378 1.42554 24.2659 1.34912 24.7092 1.34912C25.1526 1.34912 25.5807 1.42554 26.024 1.57839C26.4521 1.73123 26.8343 1.9605 27.186 2.28148C27.5376 2.60245 27.8128 3.01513 28.0268 3.51952C28.2408 4.02391 28.3479 4.60472 28.3479 5.29253C28.3479 5.98033 28.2408 6.56114 28.0268 7.06553C27.8128 7.56992 27.5376 7.96732 27.186 8.28829C26.8343 8.60927 26.4521 8.85382 26.024 9.00666C25.5807 9.15951 25.1526 9.23593 24.7092 9.23593C24.2659 9.23593 23.8378 9.15951 23.4097 9.00666C22.9664 8.85382 22.5842 8.60927 22.2325 8.28829C21.8809 7.96732 21.6057 7.56992 21.3917 7.06553C21.1776 6.56114 21.0706 5.98033 21.0706 5.29253ZM22.4466 5.29253C22.4466 5.78163 22.5077 6.19431 22.6453 6.54586C22.7829 6.91269 22.9511 7.18781 23.1651 7.41707C23.3792 7.64634 23.6238 7.82976 23.899 7.93675C24.1589 8.04374 24.4341 8.10488 24.7092 8.10488C24.9844 8.10488 25.2596 8.04374 25.5348 7.93675C25.7947 7.82976 26.0393 7.64634 26.2534 7.41707C26.4674 7.18781 26.6356 6.91269 26.7732 6.54586C26.9108 6.19431 26.9719 5.78163 26.9719 5.29253C26.9719 4.80342 26.9108 4.37546 26.7732 4.02391C26.6356 3.67237 26.4674 3.36668 26.2534 3.13741C26.0393 2.90814 25.7947 2.74001 25.5348 2.63302C25.2596 2.52603 24.9844 2.48018 24.7092 2.48018C24.4341 2.48018 24.1589 2.52603 23.899 2.63302C23.6238 2.74001 23.3792 2.90814 23.1651 3.13741C22.9511 3.36668 22.7829 3.67237 22.6453 4.02391C22.5077 4.37546 22.4466 4.80342 22.4466 5.29253Z" fill="white" fill-opacity="0.7"/>
</g>
<g id="Group_7">
<path id="Vector_5" d="M29.9684 1.45605H31.2526V5.91913C31.2526 6.20954 31.2679 6.49995 31.3138 6.75978C31.3444 7.01962 31.4208 7.26417 31.5278 7.44759C31.6348 7.64628 31.803 7.81441 32.0171 7.92141C32.2158 8.04368 32.491 8.10482 32.8426 8.10482C33.4542 8.10482 33.9281 7.89084 34.2644 7.47815C34.6008 7.06547 34.769 6.43881 34.769 5.62873V1.45605H36.0532V9.05246H35.09L34.769 7.95197C34.5549 8.3188 34.2644 8.62449 33.8975 8.86905C33.5306 9.1136 33.0261 9.23587 32.3993 9.23587C31.9559 9.23587 31.589 9.15945 31.2832 9.02189C30.9622 8.88433 30.7175 8.67035 30.5188 8.41051C30.32 8.15067 30.1825 7.84498 30.106 7.47815C30.0143 7.12661 29.9684 6.72921 29.9684 6.30125V1.45605Z" fill="white" fill-opacity="0.7"/>
</g>
<g id="Group_8">
<path id="Vector_6" d="M38.1935 1.4714H39.1261L39.5389 2.87757C39.7988 2.41904 40.1657 2.05221 40.6091 1.7618C41.0524 1.48668 41.6028 1.34912 42.2449 1.34912V2.67887C41.2053 2.67887 40.4868 2.954 40.0893 3.47367C39.6765 4.02391 39.4777 4.78814 39.4777 5.79692V9.05252H38.1935V1.4714Z" fill="white" fill-opacity="0.7"/>
</g>
<g id="Group_9">
<path id="Vector_7" d="M44.0336 6.88226C44.1407 7.32552 44.3853 7.64649 44.7828 7.84519C45.165 8.04389 45.5625 8.15088 45.9753 8.15088C46.2046 8.15088 46.4186 8.12031 46.6327 8.07446C46.8467 8.0286 47.0454 7.95218 47.2136 7.84519C47.3818 7.7382 47.5041 7.63121 47.6111 7.47836C47.7181 7.3408 47.764 7.18795 47.764 7.01982C47.764 6.66828 47.6417 6.40844 47.4124 6.24031C47.1678 6.07218 46.862 5.93462 46.5104 5.82763C46.1587 5.73593 45.7765 5.6595 45.3637 5.58308C44.9357 5.50666 44.5534 5.39967 44.2018 5.24682C43.8502 5.10926 43.5444 4.89528 43.3151 4.60487C43.0705 4.32975 42.9482 3.94764 42.9482 3.44325C42.9482 3.10699 43.0399 2.8013 43.2081 2.54146C43.361 2.28162 43.5903 2.05236 43.8655 1.86894C44.1254 1.70081 44.4311 1.56325 44.7981 1.47155C45.1497 1.37984 45.5013 1.33398 45.8682 1.33398C46.4645 1.33398 47.0302 1.45626 47.5652 1.70081C48.1003 1.96065 48.4826 2.34276 48.7119 2.87772L47.5041 3.32097C47.3665 3.01528 47.1372 2.78601 46.8161 2.63317C46.4798 2.49561 46.1281 2.41919 45.7765 2.41919C45.3943 2.41919 45.0427 2.51089 44.7216 2.67902C44.4006 2.84715 44.2477 3.10699 44.2477 3.42796C44.2477 3.73365 44.37 3.96292 44.6146 4.10048C44.8439 4.23804 45.1497 4.36032 45.5013 4.43674C45.853 4.52845 46.2505 4.60487 46.6632 4.68129C47.076 4.75772 47.4582 4.86471 47.8099 5.03284C48.1615 5.20097 48.4673 5.43024 48.7119 5.72064C48.9412 6.01105 49.0635 6.43901 49.0635 6.97397C49.0635 7.32552 48.9718 7.64649 48.8036 7.92161C48.6354 8.21202 48.4061 8.44129 48.1156 8.63998C47.8252 8.83868 47.4888 8.97624 47.1219 9.08323C46.755 9.19023 46.3728 9.23608 45.9753 9.23608C45.6542 9.23608 45.3179 9.20551 44.9968 9.12909C44.6758 9.05267 44.37 8.93039 44.0795 8.77754C43.789 8.6247 43.5444 8.426 43.3151 8.18145C43.0858 7.95218 42.9176 7.66178 42.7953 7.3408L44.0336 6.88226Z" fill="white" fill-opacity="0.7"/>
</g>
<g id="Group_10">
<path id="Vector_8" d="M53.7876 1.34912C54.3838 1.34912 54.9189 1.4714 55.3776 1.70067C55.8362 1.94522 56.2184 2.26619 56.5242 2.66359C56.8147 3.06099 57.044 3.51952 57.1816 4.02391C57.3192 4.54359 57.3651 5.07854 57.3192 5.6135H51.479C51.4943 6.08732 51.5861 6.5 51.7542 6.80569C51.9071 7.12667 52.1059 7.38651 52.3352 7.56992C52.5645 7.76862 52.8091 7.90618 53.069 7.9826C53.3289 8.05902 53.5888 8.10488 53.8182 8.10488C54.2462 8.10488 54.6131 8.04374 54.9036 7.90618C55.1941 7.76862 55.4234 7.5852 55.5916 7.35594L56.83 7.72276C56.5548 8.16602 56.1573 8.53284 55.6528 8.80797C55.1482 9.09837 54.5367 9.23593 53.8182 9.23593C53.2219 9.23593 52.7021 9.12894 52.2435 8.93024C51.7695 8.73154 51.3873 8.44114 51.0663 8.08959C50.7452 7.73805 50.5159 7.31008 50.3477 6.83626C50.1795 6.36244 50.1031 5.84277 50.1031 5.27724C50.1031 4.68115 50.1948 4.1309 50.3936 3.6418C50.577 3.16798 50.8369 2.7553 51.1733 2.40375C51.4943 2.06749 51.8918 1.80766 52.3352 1.62424C52.7785 1.44083 53.2678 1.34912 53.7876 1.34912ZM55.9585 4.58944C55.9585 4.3296 55.9127 4.05448 55.8056 3.79464C55.6986 3.53481 55.561 3.30554 55.3776 3.10684C55.1788 2.90814 54.9495 2.7553 54.6896 2.63302C54.4297 2.51074 54.1239 2.44961 53.7876 2.44961C53.4971 2.44961 53.2219 2.49546 52.962 2.57188C52.7021 2.64831 52.4575 2.77058 52.2587 2.93871C52.06 3.10684 51.8918 3.33611 51.7542 3.59595C51.6013 3.87107 51.5249 4.20733 51.4943 4.58944H55.9585Z" fill="white" fill-opacity="0.7"/>
</g>
<g id="Group_11">
<path id="Vector_9" d="M59.4749 6.88226C59.5819 7.32552 59.8266 7.64649 60.2241 7.84519C60.6063 8.04389 61.0038 8.15088 61.4165 8.15088C61.6459 8.15088 61.8599 8.12031 62.0739 8.07446C62.288 8.0286 62.4867 7.95218 62.6549 7.84519C62.8231 7.7382 62.9454 7.63121 63.0524 7.47836C63.1594 7.3408 63.2053 7.18795 63.2053 7.01982C63.2053 6.66828 63.083 6.40844 62.8537 6.24031C62.609 6.07218 62.3033 5.93462 61.9516 5.82763C61.6 5.73593 61.2178 5.6595 60.805 5.58308C60.3769 5.50666 59.9947 5.39967 59.6431 5.24682C59.2915 5.10926 58.9857 4.89528 58.7564 4.60487C58.5118 4.32975 58.3895 3.94764 58.3895 3.44325C58.3895 3.10699 58.4812 2.8013 58.6494 2.54146C58.8022 2.28162 59.0316 2.05236 59.3068 1.86894C59.5667 1.70081 59.8724 1.56325 60.2393 1.47155C60.591 1.37984 60.9426 1.33398 61.3095 1.33398C61.9058 1.33398 62.4714 1.45626 63.0065 1.70081C63.5416 1.96065 63.9238 2.34276 64.1532 2.87772L62.9454 3.32097C62.8078 3.01528 62.5785 2.78601 62.2574 2.63317C61.9211 2.49561 61.5694 2.41919 61.2178 2.41919C60.8356 2.41919 60.484 2.51089 60.1629 2.67902C59.8418 2.84715 59.689 3.10699 59.689 3.42796C59.689 3.73365 59.8113 3.96292 60.0559 4.10048C60.2852 4.23804 60.591 4.36032 60.9426 4.43674C61.2942 4.52845 61.6917 4.60487 62.1045 4.68129C62.5173 4.75772 62.8995 4.86471 63.2511 5.03284C63.6028 5.20097 63.9085 5.43024 64.1532 5.72064C64.3825 6.01105 64.5048 6.43901 64.5048 6.97397C64.5048 7.32552 64.4131 7.64649 64.2449 7.92161C64.0767 8.21202 63.8474 8.44129 63.5569 8.63998C63.2664 8.83868 62.9301 8.97624 62.5632 9.08323C62.1963 9.19023 61.814 9.23608 61.4165 9.23608C61.0955 9.23608 60.7591 9.20551 60.4381 9.12909C60.117 9.05267 59.8113 8.93039 59.5208 8.77754C59.2303 8.6247 58.9857 8.426 58.7564 8.18145C58.5271 7.95218 58.3589 7.66178 58.2366 7.3408L59.4749 6.88226Z" fill="white" fill-opacity="0.7"/>
</g>
</g>
</g>
</g>
</svg>
