<svg width="50" height="12" viewBox="0 0 50 12" fill="none" xmlns="http://www.w3.org/2000/svg">
<g id="relacje_video-signetsmall-logotypeshort-black-fullcolor-flat">
<g id="Group">
<g id="Group_2">
<path id="Vector" fill-rule="evenodd" clip-rule="evenodd" d="M10.2984 6.34924C10.31 6.43258 10.3215 6.51708 10.3215 6.60274C10.3215 6.69304 10.31 6.78218 10.2984 6.87016C10.2058 7.54967 9.69636 7.9687 9.0481 8.23379C7.23067 8.96886 2.79713 10.6428 2.11414 10.6428C2.05626 10.6428 1.99834 10.6404 1.95203 10.6358C1.35008 10.5918 0.910238 10.3105 0.609262 9.79191C0.285134 9.22469 0.123047 8.15968 0.123047 6.59692C0.123047 6.51357 0.123047 6.4314 0.123047 6.35037C0.146199 4.92304 0.319794 3.95182 0.655498 3.43669C1.01435 2.89262 1.53527 2.62061 2.21826 2.62061C2.42663 2.62061 2.64659 2.63796 2.87811 2.67385C3.41061 2.7572 8.00633 4.6892 9.00187 4.95197C9.10605 4.97976 9.19861 5.01682 9.3028 5.06197C9.83529 5.28654 10.2174 5.77507 10.2984 6.34924Z" fill="#FF0000"/>
</g>
<g id="Group_3">
<g id="Group_4">
<path id="Vector_2" d="M10.4208 10.2468C10.4208 9.9686 10.5136 9.73676 10.7145 9.53584C10.9154 9.33492 11.1472 9.24219 11.41 9.24219C11.6882 9.24219 11.92 9.33492 12.1209 9.53584C12.3219 9.73676 12.4146 9.9686 12.4146 10.2468C12.4146 10.5095 12.3219 10.7414 12.1209 10.9423C11.92 11.1432 11.6882 11.2359 11.41 11.2359C11.1472 11.2359 10.9154 11.1432 10.7145 10.9423C10.5136 10.7414 10.4208 10.5095 10.4208 10.2468Z" fill="#720E10"/>
</g>
<g id="Group_5">
<path id="Vector_3" d="M13.0019 3.38477H14.4083L16.4176 9.35059L18.4113 3.38477H19.8178L17.0821 11.0507H15.7375L13.0019 3.38477Z" fill="white" fill-opacity="0.7"/>
</g>
<g id="Group_6">
<path id="Vector_4" d="M20.5132 3.38475H22.8779V11.0507H21.5797V4.42027H20.5132V3.38475ZM21.2706 0.95824C21.2706 0.695497 21.3633 0.463664 21.5488 0.278198C21.7342 0.0927321 21.9661 0 22.2288 0C22.4915 0 22.7234 0.0927321 22.9243 0.278198C23.1098 0.463664 23.2025 0.695497 23.2025 0.95824C23.2025 1.22098 23.1098 1.45282 22.9243 1.63828C22.7234 1.8392 22.4915 1.93194 22.2288 1.93194C21.9661 1.93194 21.7342 1.8392 21.5488 1.63828C21.3633 1.45282 21.2706 1.22098 21.2706 0.95824Z" fill="white" fill-opacity="0.7"/>
</g>
<g id="Group_7">
<path id="Vector_5" d="M27.9937 3.26126C28.5965 3.26126 29.1065 3.38491 29.5238 3.61674C29.9257 3.86403 30.2502 4.18859 30.4821 4.59044V0.726562H31.7803V8.16066C31.7803 8.4234 31.7958 8.79433 31.8113 9.28891C31.8267 9.78348 31.904 10.3708 32.0431 11.0508H30.8221L30.4821 9.89167C30.2502 10.309 29.9257 10.6335 29.5238 10.8654C29.1065 11.1127 28.5965 11.2363 27.9937 11.2363C27.561 11.2363 27.1437 11.1436 26.7418 10.9581C26.34 10.7881 25.9845 10.5253 25.6909 10.1853C25.3972 9.8453 25.1499 9.42801 24.9799 8.93343C24.7945 8.43886 24.7017 7.88246 24.7017 7.24878C24.7017 6.61511 24.7945 6.05871 24.9799 5.56413C25.1499 5.06956 25.3972 4.65226 25.6909 4.31224C25.9845 3.97222 26.34 3.70947 26.7418 3.52401C27.1437 3.354 27.561 3.26126 27.9937 3.26126ZM26.1545 7.24878C26.1545 8.16066 26.3555 8.87161 26.7573 9.36619C27.1437 9.87622 27.6692 10.1235 28.3338 10.1235C28.9984 10.1235 29.5238 9.87622 29.9257 9.36619C30.3121 8.87161 30.513 8.16066 30.513 7.24878C30.513 6.33691 30.3121 5.62595 29.9257 5.11592C29.5238 4.62135 28.9984 4.37406 28.3338 4.37406C27.6692 4.37406 27.1437 4.62135 26.7573 5.11592C26.3555 5.62595 26.1545 6.33691 26.1545 7.24878Z" fill="white" fill-opacity="0.7"/>
</g>
<g id="Group_8">
<path id="Vector_6" d="M37.1434 3.26123C37.7462 3.26123 38.2871 3.38487 38.7508 3.61671C39.2145 3.86399 39.6008 4.18856 39.91 4.5904C40.2036 4.99225 40.4354 5.45591 40.5745 5.96594C40.7136 6.49143 40.76 7.03237 40.7136 7.57331H34.8096C34.8251 8.05243 34.9178 8.46973 35.0878 8.77884C35.2424 9.10341 35.4433 9.36615 35.6751 9.55162C35.907 9.75254 36.1543 9.89164 36.417 9.96892C36.6798 10.0462 36.9425 10.0926 37.1743 10.0926C37.6071 10.0926 37.978 10.0307 38.2717 9.89164C38.5653 9.75254 38.7972 9.56707 38.9672 9.33524L40.2191 9.70617C39.9409 10.1544 39.539 10.5253 39.029 10.8035C38.519 11.0972 37.9007 11.2363 37.1743 11.2363C36.5716 11.2363 36.0461 11.1281 35.5824 10.9272C35.1033 10.7262 34.7169 10.4326 34.3923 10.0771C34.0678 9.72163 33.8359 9.28887 33.6659 8.80975C33.4959 8.33063 33.4186 7.80515 33.4186 7.23329C33.4186 6.63053 33.5114 6.07413 33.7123 5.57955C33.8978 5.10043 34.1605 4.68314 34.5005 4.32766C34.8251 3.98764 35.2269 3.7249 35.6751 3.53943C36.1234 3.35396 36.6179 3.26123 37.1434 3.26123ZM39.3381 6.5378C39.3381 6.27505 39.2917 5.99685 39.1835 5.73411C39.0754 5.47137 38.9363 5.23953 38.7508 5.03861C38.5499 4.83769 38.318 4.68314 38.0553 4.55949C37.7925 4.43585 37.4834 4.37403 37.1434 4.37403C36.8498 4.37403 36.5716 4.42039 36.3088 4.49767C36.0461 4.57495 35.7988 4.69859 35.5979 4.8686C35.3969 5.03861 35.2269 5.27045 35.0878 5.53319C34.9333 5.81139 34.856 6.15141 34.8251 6.5378H39.3381Z" fill="white" fill-opacity="0.7"/>
</g>
<g id="Group_9">
<path id="Vector_7" d="M41.7491 7.24875C41.7491 6.55325 41.8573 5.96594 42.0737 5.45591C42.2901 4.94588 42.5683 4.52858 42.9238 4.20402C43.2792 3.87945 43.6656 3.64762 44.1138 3.49306C44.5466 3.33851 44.9793 3.26123 45.4276 3.26123C45.8758 3.26123 46.3085 3.33851 46.7567 3.49306C47.1895 3.64762 47.5759 3.87945 47.9313 4.20402C48.2868 4.52858 48.565 4.94588 48.7814 5.45591C48.9978 5.96594 49.106 6.55325 49.106 7.24875C49.106 7.94425 48.9978 8.53155 48.7814 9.04159C48.565 9.55162 48.2868 9.95346 47.9313 10.278C47.5759 10.6026 47.1895 10.8499 46.7567 11.0044C46.3085 11.159 45.8758 11.2363 45.4276 11.2363C44.9793 11.2363 44.5466 11.159 44.1138 11.0044C43.6656 10.8499 43.2792 10.6026 42.9238 10.278C42.5683 9.95346 42.2901 9.55162 42.0737 9.04159C41.8573 8.53155 41.7491 7.94425 41.7491 7.24875ZM43.1401 7.24875C43.1401 7.74332 43.202 8.16062 43.3411 8.5161C43.4802 8.88703 43.6502 9.16523 43.8665 9.39706C44.0829 9.62889 44.3302 9.81436 44.6084 9.92255C44.8712 10.0307 45.1494 10.0926 45.4276 10.0926C45.7058 10.0926 45.984 10.0307 46.2622 9.92255C46.5249 9.81436 46.7722 9.62889 46.9886 9.39706C47.2049 9.16523 47.375 8.88703 47.5141 8.5161C47.6532 8.16062 47.715 7.74332 47.715 7.24875C47.715 6.75417 47.6532 6.32142 47.5141 5.96594C47.375 5.61047 47.2049 5.30136 46.9886 5.06952C46.7722 4.83769 46.5249 4.66768 46.2622 4.55949C45.984 4.4513 45.7058 4.40494 45.4276 4.40494C45.1494 4.40494 44.8712 4.4513 44.6084 4.55949C44.3302 4.66768 44.0829 4.83769 43.8665 5.06952C43.6502 5.30136 43.4802 5.61047 43.3411 5.96594C43.202 6.32142 43.1401 6.75417 43.1401 7.24875Z" fill="white" fill-opacity="0.7"/>
</g>
</g>
</g>
</g>
</svg>
