<svg width="25" height="11" viewBox="0 0 25 11" fill="none" xmlns="http://www.w3.org/2000/svg">
<g id="relacje_tv-signetsmall-logotypeshort-black-fullcolor-flat">
<g id="Group">
<g id="Group_2">
<path id="Vector" fill-rule="evenodd" clip-rule="evenodd" d="M10.1399 5.36602C10.1514 5.44907 10.1628 5.53328 10.1628 5.61864C10.1628 5.70862 10.1514 5.79745 10.1399 5.88512C10.0476 6.56226 9.53992 6.97983 8.89393 7.24399C7.08283 7.97651 2.66475 9.64457 1.98415 9.64457C1.92647 9.64457 1.86875 9.64225 1.82261 9.63764C1.22275 9.5938 0.784445 9.31348 0.484519 8.79669C0.161521 8.23144 0 7.17015 0 5.61284C0 5.52978 0 5.44789 0 5.36714C0.0230713 3.9448 0.196061 2.97697 0.530594 2.46363C0.888199 1.92146 1.4073 1.65039 2.0879 1.65039C2.29555 1.65039 2.51475 1.66769 2.74546 1.70345C3.2761 1.78651 7.85579 3.71177 8.84785 3.97363C8.95167 4.00131 9.04391 4.03825 9.14773 4.08324C9.67837 4.30703 10.0591 4.79385 10.1399 5.36602Z" fill="#939598"/>
</g>
<g id="Group_3">
<g id="Group_4">
<path id="Vector_2" d="M10.2619 9.25013C10.2619 8.9729 10.3543 8.74187 10.5545 8.54165C10.7548 8.34143 10.9858 8.24902 11.2476 8.24902C11.5248 8.24902 11.7559 8.34143 11.9561 8.54165C12.1563 8.74187 12.2487 8.9729 12.2487 9.25013C12.2487 9.51195 12.1563 9.74298 11.9561 9.9432C11.7559 10.1434 11.5248 10.2358 11.2476 10.2358C10.9858 10.2358 10.7548 10.1434 10.5545 9.9432C10.3543 9.74298 10.2619 9.51195 10.2619 9.25013Z" fill="#403F41"/>
</g>
<g id="Group_5">
<path id="Vector_3" d="M14.4358 2.41201V0.486816H15.7295V2.41201H17.2081V3.44392H15.7295V7.92578C15.7295 8.31082 15.7757 8.57265 15.8527 8.71126C15.9297 8.84988 16.1453 8.91148 16.515 8.91148H17.2081V10.0512H16.2378C15.8681 10.0512 15.5755 10.0204 15.3445 9.97419C15.1134 9.92799 14.9286 9.83558 14.79 9.68156C14.6514 9.54295 14.559 9.35813 14.5128 9.11171C14.4666 8.86528 14.4358 8.54185 14.4358 8.14141V3.44392H13.142V2.41201H14.4358Z" fill="white" fill-opacity="0.7"/>
</g>
<g id="Group_6">
<path id="Vector_4" d="M17.8239 2.41211H19.2255L21.2277 8.35712L23.2145 2.41211H24.616L21.8899 10.0513H20.55L17.8239 2.41211Z" fill="white" fill-opacity="0.7"/>
</g>
</g>
</g>
</g>
</svg>
