<svg width="37" height="12" viewBox="0 0 37 12" fill="none" xmlns="http://www.w3.org/2000/svg">
<g id="relacje_live-signetsmall-logotypeshort-black-fullcolor-flat">
<g id="Group">
<g id="Group_2">
<path id="Vector" fill-rule="evenodd" clip-rule="evenodd" d="M10.7691 6.35963C10.7807 6.44279 10.7921 6.52711 10.7921 6.61258C10.7921 6.70268 10.7807 6.79162 10.7691 6.87941C10.6767 7.55743 10.1684 7.97554 9.52155 8.24005C7.70809 8.97352 3.28425 10.6438 2.60277 10.6438C2.54501 10.6438 2.48721 10.6414 2.44101 10.6368C1.84038 10.5929 1.4015 10.3122 1.10118 9.79477C0.77776 9.22879 0.616028 8.16611 0.616028 6.60677C0.616028 6.52361 0.616028 6.44161 0.616028 6.36076C0.639129 4.93656 0.812344 3.96747 1.14731 3.45346C1.50538 2.91058 2.02516 2.63916 2.70665 2.63916C2.91457 2.63916 3.13405 2.65648 3.36506 2.69229C3.89639 2.77545 8.48206 4.70323 9.47541 4.96543C9.57937 4.99315 9.67173 5.03013 9.77569 5.07518C10.307 5.29926 10.6883 5.78672 10.7691 6.35963Z" fill="#00A650"/>
</g>
<g id="Group_3">
<g id="Group_4">
<path id="Vector_2" d="M10.8912 10.249C10.8912 9.9714 10.9838 9.74008 11.1842 9.53959C11.3847 9.33911 11.6161 9.24658 11.8782 9.24658C12.1558 9.24658 12.3871 9.33911 12.5876 9.53959C12.7881 9.74008 12.8806 9.9714 12.8806 10.249C12.8806 10.5112 12.7881 10.7425 12.5876 10.943C12.3871 11.1434 12.1558 11.236 11.8782 11.236C11.6161 11.236 11.3847 11.1434 11.1842 10.943C10.9838 10.7425 10.8912 10.5112 10.8912 10.249Z" fill="#005C35"/>
</g>
<g id="Group_5">
<path id="Vector_3" d="M14.5462 9.13861V0.764648H15.8416V8.92271C15.8416 9.30825 15.8879 9.57042 15.965 9.70921C16.0421 9.84801 16.2734 9.90969 16.6281 9.90969H16.9211V11.0509H16.3505C15.9804 11.0509 15.672 11.0201 15.4561 10.9738C15.2248 10.9275 15.0397 10.835 14.9009 10.6808C14.7621 10.542 14.6696 10.3569 14.6233 10.1102C14.577 9.86343 14.5462 9.53957 14.5462 9.13861Z" fill="white" fill-opacity="0.7"/>
</g>
<g id="Group_6">
<path id="Vector_4" d="M17.8464 3.40176H20.2059V11.0509H18.9105V4.43501H17.8464V3.40176ZM18.602 0.980557C18.602 0.718388 18.6946 0.487063 18.8796 0.302003C19.0647 0.116943 19.296 0.0244141 19.5582 0.0244141C19.8203 0.0244141 20.0517 0.116943 20.2522 0.302003C20.4372 0.487063 20.5297 0.718388 20.5297 0.980557C20.5297 1.24273 20.4372 1.47405 20.2522 1.65911C20.0517 1.85959 19.8203 1.95212 19.5582 1.95212C19.296 1.95212 19.0647 1.85959 18.8796 1.65911C18.6946 1.47405 18.602 1.24273 18.602 0.980557Z" fill="white" fill-opacity="0.7"/>
</g>
<g id="Group_7">
<path id="Vector_5" d="M21.4397 3.40186H22.8431L24.8479 9.35462L26.8373 3.40186H28.2407L25.511 11.051H24.1693L21.4397 3.40186Z" fill="white" fill-opacity="0.7"/>
</g>
<g id="Group_8">
<path id="Vector_6" d="M32.5433 3.27832C33.1447 3.27832 33.6845 3.40169 34.1471 3.63302C34.6098 3.87977 34.9953 4.20362 35.3038 4.60458C35.5968 5.00555 35.8281 5.4682 35.9669 5.97711C36.1057 6.50145 36.152 7.04121 36.1057 7.58096H30.2146C30.23 8.05904 30.3226 8.47542 30.4922 8.78385C30.6464 9.10771 30.8469 9.36988 31.0782 9.55494C31.3096 9.75542 31.5563 9.89421 31.8185 9.97132C32.0806 10.0484 32.3428 10.0947 32.5741 10.0947C33.0059 10.0947 33.3761 10.033 33.6691 9.89421C33.9621 9.75542 34.1934 9.57036 34.363 9.33903L35.6122 9.70915C35.3346 10.1564 34.9336 10.5265 34.4247 10.8041C33.9158 11.0971 33.2989 11.2359 32.5741 11.2359C31.9727 11.2359 31.4483 11.1279 30.9857 10.9275C30.5076 10.727 30.1221 10.434 29.7982 10.0793C29.4744 9.72458 29.243 9.29277 29.0734 8.8147C28.9038 8.33663 28.8267 7.81229 28.8267 7.24169C28.8267 6.64024 28.9192 6.08506 29.1197 5.59157C29.3047 5.1135 29.5669 4.69711 29.9062 4.34242C30.23 4.00314 30.631 3.74097 31.0782 3.55591C31.5255 3.37085 32.0189 3.27832 32.5433 3.27832ZM34.7332 6.54771C34.7332 6.28554 34.6869 6.00795 34.5789 5.74579C34.471 5.48362 34.3322 5.25229 34.1471 5.05181C33.9467 4.85133 33.7153 4.69711 33.4532 4.57374C33.191 4.45037 32.8826 4.38868 32.5433 4.38868C32.2503 4.38868 31.9727 4.43495 31.7105 4.51205C31.4483 4.58916 31.2016 4.71253 31.0011 4.88217C30.8006 5.05181 30.631 5.28314 30.4922 5.5453C30.338 5.82289 30.2609 6.16217 30.23 6.54771H34.7332Z" fill="white" fill-opacity="0.7"/>
</g>
</g>
</g>
</g>
</svg>
